<ttFont>
<head>
    <!-- Most of this table will be recalculated by the compiler -->
    <tableVersion value="1.0"/>
    <fontRevision value="5.0"/>
    <checkSumAdjustment value="0xf9377886"/>
    <magicNumber value="0x5f0f3cf5"/>
    <flags value="00000000 00001011"/>
    <unitsPerEm value="2048"/>
    <created value="Sun May 15 08:57:39 2005"/>
    <modified value="Fri Apr 15 06:03:56 2011"/>
    <xMin value="-51"/>
    <yMin value="-1232"/>
    <xMax value="6773"/>
    <yMax value="2396"/>
    <macStyle value="00000000 00000000"/>
    <lowestRecPPEM value="8"/>
    <fontDirectionHint value="2"/>
    <indexToLocFormat value="1"/>
    <glyphDataFormat value="0"/>
  </head>
    <TTGlyph name=".notdef" xMin="142" yMin="226" xMax="842" yMax="1588">
      <contour>
        <pt x="142" y="226" on="1"/>
        <pt x="142" y="1588" on="1"/>
        <pt x="842" y="1588" on="1"/>
        <pt x="842" y="226" on="1"/>
      </contour>
      <contour>
        <pt x="284" y="368" on="1"/>
        <pt x="700" y="368" on="1"/>
        <pt x="700" y="1447" on="1"/>
        <pt x="284" y="1447" on="1"/>
      </contour>
    </TTGlyph>
    <TTGlyph name=".null" xMin="142" yMin="226" xMax="842" yMax="1588">
      <contour>
        <pt x="142" y="226" on="1"/>
        <pt x="142" y="1588" on="1"/>
        <pt x="842" y="1588" on="1"/>
        <pt x="842" y="226" on="1"/>
      </contour>
      <contour>
        <pt x="284" y="368" on="1"/>
        <pt x="700" y="368" on="1"/>
        <pt x="700" y="1447" on="1"/>
        <pt x="284" y="1447" on="1"/>
      </contour>
    </TTGlyph>
    <TTGlyph name="afii57381" xMin="142" yMin="226" xMax="842" yMax="1588">
      <contour>
        <pt x="142" y="226" on="1"/>
        <pt x="142" y="1588" on="1"/>
        <pt x="842" y="1588" on="1"/>
        <pt x="842" y="226" on="1"/>
      </contour>
      <contour>
        <pt x="284" y="368" on="1"/>
        <pt x="700" y="368" on="1"/>
        <pt x="700" y="1447" on="1"/>
        <pt x="284" y="1447" on="1"/>
      </contour>
    </TTGlyph>
    <TTGlyph name="afii57388" xMin="142" yMin="226" xMax="842" yMax="1588">
      <contour>
        <pt x="142" y="226" on="1"/>
        <pt x="142" y="1588" on="1"/>
        <pt x="842" y="1588" on="1"/>
        <pt x="842" y="226" on="1"/>
      </contour>
      <contour>
        <pt x="284" y="368" on="1"/>
        <pt x="700" y="368" on="1"/>
        <pt x="700" y="1447" on="1"/>
        <pt x="284" y="1447" on="1"/>
      </contour>
    </TTGlyph>
    <TTGlyph name="afii57396" xMin="142" yMin="226" xMax="842" yMax="1588">
      <contour>
        <pt x="142" y="226" on="1"/>
        <pt x="142" y="1588" on="1"/>
        <pt x="842" y="1588" on="1"/>
        <pt x="842" y="226" on="1"/>
      </contour>
      <contour>
        <pt x="284" y="368" on="1"/>
        <pt x="700" y="368" on="1"/>
        <pt x="700" y="1447" on="1"/>
        <pt x="284" y="1447" on="1"/>
      </contour>
    </TTGlyph>
    <TTGlyph name="afii57397" xMin="142" yMin="226" xMax="842" yMax="1588">
      <contour>
        <pt x="142" y="226" on="1"/>
        <pt x="142" y="1588" on="1"/>
        <pt x="842" y="1588" on="1"/>
        <pt x="842" y="226" on="1"/>
      </contour>
      <contour>
        <pt x="284" y="368" on="1"/>
        <pt x="700" y="368" on="1"/>
        <pt x="700" y="1447" on="1"/>
        <pt x="284" y="1447" on="1"/>
      </contour>
    </TTGlyph>
    <TTGlyph name="afii57398" xMin="142" yMin="226" xMax="842" yMax="1588">
      <contour>
        <pt x="142" y="226" on="1"/>
        <pt x="142" y="1588" on="1"/>
        <pt x="842" y="1588" on="1"/>
        <pt x="842" y="226" on="1"/>
      </contour>
      <contour>
        <pt x="284" y="368" on="1"/>
        <pt x="700" y="368" on="1"/>
        <pt x="700" y="1447" on="1"/>
        <pt x="284" y="1447" on="1"/>
      </contour>
    </TTGlyph>
    <TTGlyph name="afii57403" xMin="142" yMin="226" xMax="842" yMax="1588">
      <contour>
        <pt x="142" y="226" on="1"/>
        <pt x="142" y="1588" on="1"/>
        <pt x="842" y="1588" on="1"/>
        <pt x="842" y="226" on="1"/>
      </contour>
      <contour>
        <pt x="284" y="368" on="1"/>
        <pt x="700" y="368" on="1"/>
        <pt x="700" y="1447" on="1"/>
        <pt x="284" y="1447" on="1"/>
      </contour>
    </TTGlyph>
    <TTGlyph name="afii57407" xMin="142" yMin="226" xMax="842" yMax="1588">
      <contour>
        <pt x="142" y="226" on="1"/>
        <pt x="142" y="1588" on="1"/>
        <pt x="842" y="1588" on="1"/>
        <pt x="842" y="226" on="1"/>
      </contour>
      <contour>
        <pt x="284" y="368" on="1"/>
        <pt x="700" y="368" on="1"/>
        <pt x="700" y="1447" on="1"/>
        <pt x="284" y="1447" on="1"/>
      </contour>
    </TTGlyph>
    <TTGlyph name="afii57440" xMin="142" yMin="226" xMax="842" yMax="1588">
      <contour>
        <pt x="142" y="226" on="1"/>
        <pt x="142" y="1588" on="1"/>
        <pt x="842" y="1588" on="1"/>
        <pt x="842" y="226" on="1"/>
      </contour>
      <contour>
        <pt x="284" y="368" on="1"/>
        <pt x="700" y="368" on="1"/>
        <pt x="700" y="1447" on="1"/>
        <pt x="284" y="1447" on="1"/>
      </contour>
    </TTGlyph>
    <TTGlyph name="afii57451" xMin="142" yMin="226" xMax="842" yMax="1588">
      <contour>
        <pt x="142" y="226" on="1"/>
        <pt x="142" y="1588" on="1"/>
        <pt x="842" y="1588" on="1"/>
        <pt x="842" y="226" on="1"/>
      </contour>
      <contour>
        <pt x="284" y="368" on="1"/>
        <pt x="700" y="368" on="1"/>
        <pt x="700" y="1447" on="1"/>
        <pt x="284" y="1447" on="1"/>
      </contour>
    </TTGlyph>
    <TTGlyph name="afii57452" xMin="142" yMin="226" xMax="842" yMax="1588">
      <contour>
        <pt x="142" y="226" on="1"/>
        <pt x="142" y="1588" on="1"/>
        <pt x="842" y="1588" on="1"/>
        <pt x="842" y="226" on="1"/>
      </contour>
      <contour>
        <pt x="284" y="368" on="1"/>
        <pt x="700" y="368" on="1"/>
        <pt x="700" y="1447" on="1"/>
        <pt x="284" y="1447" on="1"/>
      </contour>
    </TTGlyph>
    <TTGlyph name="afii57453" xMin="142" yMin="226" xMax="842" yMax="1588">
      <contour>
        <pt x="142" y="226" on="1"/>
        <pt x="142" y="1588" on="1"/>
        <pt x="842" y="1588" on="1"/>
        <pt x="842" y="226" on="1"/>
      </contour>
      <contour>
        <pt x="284" y="368" on="1"/>
        <pt x="700" y="368" on="1"/>
        <pt x="700" y="1447" on="1"/>
        <pt x="284" y="1447" on="1"/>
      </contour>
    </TTGlyph>
    <TTGlyph name="afii57454" xMin="142" yMin="226" xMax="842" yMax="1588">
      <contour>
        <pt x="142" y="226" on="1"/>
        <pt x="142" y="1588" on="1"/>
        <pt x="842" y="1588" on="1"/>
        <pt x="842" y="226" on="1"/>
      </contour>
      <contour>
        <pt x="284" y="368" on="1"/>
        <pt x="700" y="368" on="1"/>
        <pt x="700" y="1447" on="1"/>
        <pt x="284" y="1447" on="1"/>
      </contour>
    </TTGlyph>
    <TTGlyph name="afii57455" xMin="142" yMin="226" xMax="842" yMax="1588">
      <contour>
        <pt x="142" y="226" on="1"/>
        <pt x="142" y="1588" on="1"/>
        <pt x="842" y="1588" on="1"/>
        <pt x="842" y="226" on="1"/>
      </contour>
      <contour>
        <pt x="284" y="368" on="1"/>
        <pt x="700" y="368" on="1"/>
        <pt x="700" y="1447" on="1"/>
        <pt x="284" y="1447" on="1"/>
      </contour>
    </TTGlyph>
    <TTGlyph name="afii57456" xMin="142" yMin="226" xMax="842" yMax="1588">
      <contour>
        <pt x="142" y="226" on="1"/>
        <pt x="142" y="1588" on="1"/>
        <pt x="842" y="1588" on="1"/>
        <pt x="842" y="226" on="1"/>
      </contour>
      <contour>
        <pt x="284" y="368" on="1"/>
        <pt x="700" y="368" on="1"/>
        <pt x="700" y="1447" on="1"/>
        <pt x="284" y="1447" on="1"/>
      </contour>
    </TTGlyph>
    <TTGlyph name="afii57457" xMin="142" yMin="226" xMax="842" yMax="1588">
      <contour>
        <pt x="142" y="226" on="1"/>
        <pt x="142" y="1588" on="1"/>
        <pt x="842" y="1588" on="1"/>
        <pt x="842" y="226" on="1"/>
      </contour>
      <contour>
        <pt x="284" y="368" on="1"/>
        <pt x="700" y="368" on="1"/>
        <pt x="700" y="1447" on="1"/>
        <pt x="284" y="1447" on="1"/>
      </contour>
    </TTGlyph>
    <TTGlyph name="afii57458" xMin="142" yMin="226" xMax="842" yMax="1588">
      <contour>
        <pt x="142" y="226" on="1"/>
        <pt x="142" y="1588" on="1"/>
        <pt x="842" y="1588" on="1"/>
        <pt x="842" y="226" on="1"/>
      </contour>
      <contour>
        <pt x="284" y="368" on="1"/>
        <pt x="700" y="368" on="1"/>
        <pt x="700" y="1447" on="1"/>
        <pt x="284" y="1447" on="1"/>
      </contour>
    </TTGlyph>
    <TTGlyph name="afii57505" xMin="142" yMin="226" xMax="842" yMax="1588">
      <contour>
        <pt x="142" y="226" on="1"/>
        <pt x="142" y="1588" on="1"/>
        <pt x="842" y="1588" on="1"/>
        <pt x="842" y="226" on="1"/>
      </contour>
      <contour>
        <pt x="284" y="368" on="1"/>
        <pt x="700" y="368" on="1"/>
        <pt x="700" y="1447" on="1"/>
        <pt x="284" y="1447" on="1"/>
      </contour>
    </TTGlyph>
    <TTGlyph name="afii57506" xMin="142" yMin="226" xMax="842" yMax="1588">
      <contour>
        <pt x="142" y="226" on="1"/>
        <pt x="142" y="1588" on="1"/>
        <pt x="842" y="1588" on="1"/>
        <pt x="842" y="226" on="1"/>
      </contour>
      <contour>
        <pt x="284" y="368" on="1"/>
        <pt x="700" y="368" on="1"/>
        <pt x="700" y="1447" on="1"/>
        <pt x="284" y="1447" on="1"/>
      </contour>
    </TTGlyph>
    <TTGlyph name="afii57507" xMin="142" yMin="226" xMax="842" yMax="1588">
      <contour>
        <pt x="142" y="226" on="1"/>
        <pt x="142" y="1588" on="1"/>
        <pt x="842" y="1588" on="1"/>
        <pt x="842" y="226" on="1"/>
      </contour>
      <contour>
        <pt x="284" y="368" on="1"/>
        <pt x="700" y="368" on="1"/>
        <pt x="700" y="1447" on="1"/>
        <pt x="284" y="1447" on="1"/>
      </contour>
    </TTGlyph>
    <TTGlyph name="afii57508" xMin="142" yMin="226" xMax="842" yMax="1588">
      <contour>
        <pt x="142" y="226" on="1"/>
        <pt x="142" y="1588" on="1"/>
        <pt x="842" y="1588" on="1"/>
        <pt x="842" y="226" on="1"/>
      </contour>
      <contour>
        <pt x="284" y="368" on="1"/>
        <pt x="700" y="368" on="1"/>
        <pt x="700" y="1447" on="1"/>
        <pt x="284" y="1447" on="1"/>
      </contour>
    </TTGlyph>
    <TTGlyph name="afii57509" xMin="142" yMin="226" xMax="842" yMax="1588">
      <contour>
        <pt x="142" y="226" on="1"/>
        <pt x="142" y="1588" on="1"/>
        <pt x="842" y="1588" on="1"/>
        <pt x="842" y="226" on="1"/>
      </contour>
      <contour>
        <pt x="284" y="368" on="1"/>
        <pt x="700" y="368" on="1"/>
        <pt x="700" y="1447" on="1"/>
        <pt x="284" y="1447" on="1"/>
      </contour>
    </TTGlyph>
    <TTGlyph name="afii57511" xMin="142" yMin="226" xMax="842" yMax="1588">
      <contour>
        <pt x="142" y="226" on="1"/>
        <pt x="142" y="1588" on="1"/>
        <pt x="842" y="1588" on="1"/>
        <pt x="842" y="226" on="1"/>
      </contour>
      <contour>
        <pt x="284" y="368" on="1"/>
        <pt x="700" y="368" on="1"/>
        <pt x="700" y="1447" on="1"/>
        <pt x="284" y="1447" on="1"/>
      </contour>
    </TTGlyph>
    <TTGlyph name="afii57512" xMin="142" yMin="226" xMax="842" yMax="1588">
      <contour>
        <pt x="142" y="226" on="1"/>
        <pt x="142" y="1588" on="1"/>
        <pt x="842" y="1588" on="1"/>
        <pt x="842" y="226" on="1"/>
      </contour>
      <contour>
        <pt x="284" y="368" on="1"/>
        <pt x="700" y="368" on="1"/>
        <pt x="700" y="1447" on="1"/>
        <pt x="284" y="1447" on="1"/>
      </contour>
    </TTGlyph>
    <TTGlyph name="afii57513" xMin="142" yMin="226" xMax="842" yMax="1588">
      <contour>
        <pt x="142" y="226" on="1"/>
        <pt x="142" y="1588" on="1"/>
        <pt x="842" y="1588" on="1"/>
        <pt x="842" y="226" on="1"/>
      </contour>
      <contour>
        <pt x="284" y="368" on="1"/>
        <pt x="700" y="368" on="1"/>
        <pt x="700" y="1447" on="1"/>
        <pt x="284" y="1447" on="1"/>
      </contour>
    </TTGlyph>
    <TTGlyph name="afii57514" xMin="142" yMin="226" xMax="842" yMax="1588">
      <contour>
        <pt x="142" y="226" on="1"/>
        <pt x="142" y="1588" on="1"/>
        <pt x="842" y="1588" on="1"/>
        <pt x="842" y="226" on="1"/>
      </contour>
      <contour>
        <pt x="284" y="368" on="1"/>
        <pt x="700" y="368" on="1"/>
        <pt x="700" y="1447" on="1"/>
        <pt x="284" y="1447" on="1"/>
      </contour>
    </TTGlyph>
    <TTGlyph name="afii57519" xMin="142" yMin="226" xMax="842" yMax="1588">
      <contour>
        <pt x="142" y="226" on="1"/>
        <pt x="142" y="1588" on="1"/>
        <pt x="842" y="1588" on="1"/>
        <pt x="842" y="226" on="1"/>
      </contour>
      <contour>
        <pt x="284" y="368" on="1"/>
        <pt x="700" y="368" on="1"/>
        <pt x="700" y="1447" on="1"/>
        <pt x="284" y="1447" on="1"/>
      </contour>
    </TTGlyph>
    <TTGlyph name="afii57534" xMin="142" yMin="226" xMax="842" yMax="1588">
      <contour>
        <pt x="142" y="226" on="1"/>
        <pt x="142" y="1588" on="1"/>
        <pt x="842" y="1588" on="1"/>
        <pt x="842" y="226" on="1"/>
      </contour>
      <contour>
        <pt x="284" y="368" on="1"/>
        <pt x="700" y="368" on="1"/>
        <pt x="700" y="1447" on="1"/>
        <pt x="284" y="1447" on="1"/>
      </contour>
    </TTGlyph>
    <TTGlyph name="afii63167" xMin="142" yMin="226" xMax="842" yMax="1588">
      <contour>
        <pt x="142" y="226" on="1"/>
        <pt x="142" y="1588" on="1"/>
        <pt x="842" y="1588" on="1"/>
        <pt x="842" y="226" on="1"/>
      </contour>
      <contour>
        <pt x="284" y="368" on="1"/>
        <pt x="700" y="368" on="1"/>
        <pt x="700" y="1447" on="1"/>
        <pt x="284" y="1447" on="1"/>
      </contour>
    </TTGlyph>
    <TTGlyph name="alefmaksurainitial" xMin="142" yMin="226" xMax="842" yMax="1588">
      <contour>
        <pt x="142" y="226" on="1"/>
        <pt x="142" y="1588" on="1"/>
        <pt x="842" y="1588" on="1"/>
        <pt x="842" y="226" on="1"/>
      </contour>
      <contour>
        <pt x="284" y="368" on="1"/>
        <pt x="700" y="368" on="1"/>
        <pt x="700" y="1447" on="1"/>
        <pt x="284" y="1447" on="1"/>
      </contour>
    </TTGlyph>
    <TTGlyph name="alefwaslafinalarabic" xMin="142" yMin="226" xMax="842" yMax="1588">
      <contour>
        <pt x="142" y="226" on="1"/>
        <pt x="142" y="1588" on="1"/>
        <pt x="842" y="1588" on="1"/>
        <pt x="842" y="226" on="1"/>
      </contour>
      <contour>
        <pt x="284" y="368" on="1"/>
        <pt x="700" y="368" on="1"/>
        <pt x="700" y="1447" on="1"/>
        <pt x="284" y="1447" on="1"/>
      </contour>
    </TTGlyph>
    <TTGlyph name="ampersand" xMin="142" yMin="226" xMax="842" yMax="1588">
      <contour>
        <pt x="142" y="226" on="1"/>
        <pt x="142" y="1588" on="1"/>
        <pt x="842" y="1588" on="1"/>
        <pt x="842" y="226" on="1"/>
      </contour>
      <contour>
        <pt x="284" y="368" on="1"/>
        <pt x="700" y="368" on="1"/>
        <pt x="700" y="1447" on="1"/>
        <pt x="284" y="1447" on="1"/>
      </contour>
    </TTGlyph>
    <TTGlyph name="asterisk" xMin="142" yMin="226" xMax="842" yMax="1588">
      <contour>
        <pt x="142" y="226" on="1"/>
        <pt x="142" y="1588" on="1"/>
        <pt x="842" y="1588" on="1"/>
        <pt x="842" y="226" on="1"/>
      </contour>
      <contour>
        <pt x="284" y="368" on="1"/>
        <pt x="700" y="368" on="1"/>
        <pt x="700" y="1447" on="1"/>
        <pt x="284" y="1447" on="1"/>
      </contour>
    </TTGlyph>
    <TTGlyph name="behmeemisolatedarabic" xMin="142" yMin="226" xMax="842" yMax="1588">
      <contour>
        <pt x="142" y="226" on="1"/>
        <pt x="142" y="1588" on="1"/>
        <pt x="842" y="1588" on="1"/>
        <pt x="842" y="226" on="1"/>
      </contour>
      <contour>
        <pt x="284" y="368" on="1"/>
        <pt x="700" y="368" on="1"/>
        <pt x="700" y="1447" on="1"/>
        <pt x="284" y="1447" on="1"/>
      </contour>
    </TTGlyph>
    <TTGlyph name="behnoonfinalarabic" xMin="142" yMin="226" xMax="842" yMax="1588">
      <contour>
        <pt x="142" y="226" on="1"/>
        <pt x="142" y="1588" on="1"/>
        <pt x="842" y="1588" on="1"/>
        <pt x="842" y="226" on="1"/>
      </contour>
      <contour>
        <pt x="284" y="368" on="1"/>
        <pt x="700" y="368" on="1"/>
        <pt x="700" y="1447" on="1"/>
        <pt x="284" y="1447" on="1"/>
      </contour>
    </TTGlyph>
    <TTGlyph name="colon" xMin="142" yMin="226" xMax="842" yMax="1588">
      <contour>
        <pt x="142" y="226" on="1"/>
        <pt x="142" y="1588" on="1"/>
        <pt x="842" y="1588" on="1"/>
        <pt x="842" y="226" on="1"/>
      </contour>
      <contour>
        <pt x="284" y="368" on="1"/>
        <pt x="700" y="368" on="1"/>
        <pt x="700" y="1447" on="1"/>
        <pt x="284" y="1447" on="1"/>
      </contour>
    </TTGlyph>
    <TTGlyph name="dagger" xMin="142" yMin="226" xMax="842" yMax="1588">
      <contour>
        <pt x="142" y="226" on="1"/>
        <pt x="142" y="1588" on="1"/>
        <pt x="842" y="1588" on="1"/>
        <pt x="842" y="226" on="1"/>
      </contour>
      <contour>
        <pt x="284" y="368" on="1"/>
        <pt x="700" y="368" on="1"/>
        <pt x="700" y="1447" on="1"/>
        <pt x="284" y="1447" on="1"/>
      </contour>
    </TTGlyph>
    <TTGlyph name="dalringfinal" xMin="142" yMin="226" xMax="842" yMax="1588">
      <contour>
        <pt x="142" y="226" on="1"/>
        <pt x="142" y="1588" on="1"/>
        <pt x="842" y="1588" on="1"/>
        <pt x="842" y="226" on="1"/>
      </contour>
      <contour>
        <pt x="284" y="368" on="1"/>
        <pt x="700" y="368" on="1"/>
        <pt x="700" y="1447" on="1"/>
        <pt x="284" y="1447" on="1"/>
      </contour>
    </TTGlyph>
    <TTGlyph name="ddalfinalarabic" xMin="142" yMin="226" xMax="842" yMax="1588">
      <contour>
        <pt x="142" y="226" on="1"/>
        <pt x="142" y="1588" on="1"/>
        <pt x="842" y="1588" on="1"/>
        <pt x="842" y="226" on="1"/>
      </contour>
      <contour>
        <pt x="284" y="368" on="1"/>
        <pt x="700" y="368" on="1"/>
        <pt x="700" y="1447" on="1"/>
        <pt x="284" y="1447" on="1"/>
      </contour>
    </TTGlyph>
    <TTGlyph name="divide" xMin="142" yMin="226" xMax="842" yMax="1588">
      <contour>
        <pt x="142" y="226" on="1"/>
        <pt x="142" y="1588" on="1"/>
        <pt x="842" y="1588" on="1"/>
        <pt x="842" y="226" on="1"/>
      </contour>
      <contour>
        <pt x="284" y="368" on="1"/>
        <pt x="700" y="368" on="1"/>
        <pt x="700" y="1447" on="1"/>
        <pt x="284" y="1447" on="1"/>
      </contour>
    </TTGlyph>
    <TTGlyph name="dollar" xMin="142" yMin="226" xMax="842" yMax="1588">
      <contour>
        <pt x="142" y="226" on="1"/>
        <pt x="142" y="1588" on="1"/>
        <pt x="842" y="1588" on="1"/>
        <pt x="842" y="226" on="1"/>
      </contour>
      <contour>
        <pt x="284" y="368" on="1"/>
        <pt x="700" y="368" on="1"/>
        <pt x="700" y="1447" on="1"/>
        <pt x="284" y="1447" on="1"/>
      </contour>
    </TTGlyph>
    <TTGlyph name="dotlessyehfinalarabic" xMin="142" yMin="226" xMax="842" yMax="1588">
      <contour>
        <pt x="142" y="226" on="1"/>
        <pt x="142" y="1588" on="1"/>
        <pt x="842" y="1588" on="1"/>
        <pt x="842" y="226" on="1"/>
      </contour>
      <contour>
        <pt x="284" y="368" on="1"/>
        <pt x="700" y="368" on="1"/>
        <pt x="700" y="1447" on="1"/>
        <pt x="284" y="1447" on="1"/>
      </contour>
    </TTGlyph>
    <TTGlyph name="dotlessyehinitialarabic" xMin="142" yMin="226" xMax="842" yMax="1588">
      <contour>
        <pt x="142" y="226" on="1"/>
        <pt x="142" y="1588" on="1"/>
        <pt x="842" y="1588" on="1"/>
        <pt x="842" y="226" on="1"/>
      </contour>
      <contour>
        <pt x="284" y="368" on="1"/>
        <pt x="700" y="368" on="1"/>
        <pt x="700" y="1447" on="1"/>
        <pt x="284" y="1447" on="1"/>
      </contour>
    </TTGlyph>
    <TTGlyph name="dotlessyehmedialarabic" xMin="142" yMin="226" xMax="842" yMax="1588">
      <contour>
        <pt x="142" y="226" on="1"/>
        <pt x="142" y="1588" on="1"/>
        <pt x="842" y="1588" on="1"/>
        <pt x="842" y="226" on="1"/>
      </contour>
      <contour>
        <pt x="284" y="368" on="1"/>
        <pt x="700" y="368" on="1"/>
        <pt x="700" y="1447" on="1"/>
        <pt x="284" y="1447" on="1"/>
      </contour>
    </TTGlyph>
    <TTGlyph name="elefmaksuramedial" xMin="142" yMin="226" xMax="842" yMax="1588">
      <contour>
        <pt x="142" y="226" on="1"/>
        <pt x="142" y="1588" on="1"/>
        <pt x="842" y="1588" on="1"/>
        <pt x="842" y="226" on="1"/>
      </contour>
      <contour>
        <pt x="284" y="368" on="1"/>
        <pt x="700" y="368" on="1"/>
        <pt x="700" y="1447" on="1"/>
        <pt x="284" y="1447" on="1"/>
      </contour>
    </TTGlyph>
    <TTGlyph name="ellipsis" xMin="142" yMin="226" xMax="842" yMax="1588">
      <contour>
        <pt x="142" y="226" on="1"/>
        <pt x="142" y="1588" on="1"/>
        <pt x="842" y="1588" on="1"/>
        <pt x="842" y="226" on="1"/>
      </contour>
      <contour>
        <pt x="284" y="368" on="1"/>
        <pt x="700" y="368" on="1"/>
        <pt x="700" y="1447" on="1"/>
        <pt x="284" y="1447" on="1"/>
      </contour>
    </TTGlyph>
    <TTGlyph name="emdash" xMin="353" yMin="-462" xMax="2401" yMax="1636">
      <contour>
        <pt x="2364" y="1534" on="1"/>
        <pt x="2364" y="1470" on="0"/>
        <pt x="2217" y="1366" on="1"/>
        <pt x="2216" y="1365" on="0"/>
        <pt x="2059" y="1237" on="1"/>
        <pt x="2049" y="1251" on="0"/>
        <pt x="2049" y="1272" on="1"/>
        <pt x="2049" y="1320" on="0"/>
        <pt x="2115" y="1380" on="1"/>
        <pt x="2116" y="1381" on="0"/>
        <pt x="2208" y="1454" on="1"/>
        <pt x="2259" y="1502" on="0"/>
        <pt x="2355" y="1575" on="1"/>
        <pt x="2364" y="1561" on="0"/>
      </contour>
      <contour>
        <pt x="2326" y="1063" on="1"/>
        <pt x="2326" y="1026" on="0"/>
        <pt x="2300" y="995" on="1"/>
        <pt x="2278" y="971" on="0"/>
        <pt x="2267" y="971" on="1"/>
        <pt x="2252" y="971" on="0"/>
        <pt x="2213" y="1036" on="0"/>
        <pt x="2213" y="1058" on="1"/>
        <pt x="2213" y="1076" on="0"/>
        <pt x="2262" y="1144" on="0"/>
        <pt x="2273" y="1144" on="1"/>
        <pt x="2305" y="1144" on="0"/>
      </contour>
      <contour>
        <pt x="2401" y="878" on="1"/>
        <pt x="2401" y="845" on="0"/>
        <pt x="2376" y="813" on="1"/>
        <pt x="2354" y="786" on="0"/>
        <pt x="2342" y="786" on="1"/>
        <pt x="2335" y="786" on="0"/>
        <pt x="2290" y="817" on="0"/>
        <pt x="2282" y="817" on="1"/>
        <pt x="2274" y="817" on="0"/>
        <pt x="2230" y="766" on="0"/>
        <pt x="2222" y="766" on="1"/>
        <pt x="2189" y="766" on="0"/>
        <pt x="2156" y="842" on="1"/>
        <pt x="2195" y="940" on="0"/>
        <pt x="2222" y="940" on="1"/>
        <pt x="2229" y="940" on="0"/>
        <pt x="2265" y="909" on="0"/>
        <pt x="2273" y="909" on="1"/>
        <pt x="2281" y="909" on="0"/>
        <pt x="2331" y="971" on="0"/>
        <pt x="2338" y="971" on="1"/>
        <pt x="2351" y="971" on="0"/>
        <pt x="2401" y="897" on="0"/>
      </contour>
      <contour>
        <pt x="1981" y="1518" on="1"/>
        <pt x="1981" y="1464" on="0"/>
        <pt x="1854" y="1357" on="1"/>
        <pt x="1685" y="1214" on="0"/>
        <pt x="1670" y="1196" on="1"/>
        <pt x="1643" y="1196" on="1"/>
        <pt x="1635" y="1209" on="0"/>
        <pt x="1635" y="1226" on="1"/>
        <pt x="1635" y="1276" on="0"/>
        <pt x="1698" y="1332" on="1"/>
        <pt x="1736" y="1362" on="0"/>
        <pt x="1775" y="1392" on="1"/>
        <pt x="1816" y="1435" on="0"/>
        <pt x="1907" y="1509" on="1"/>
        <pt x="1928" y="1526" on="0"/>
        <pt x="1973" y="1553" on="1"/>
        <pt x="1973" y="1550" on="0"/>
        <pt x="1981" y="1533" on="0"/>
      </contour>
      <contour>
        <pt x="1679" y="561" on="1"/>
        <pt x="1679" y="505" on="0"/>
        <pt x="1658" y="449" on="1"/>
        <pt x="1640" y="453" on="0"/>
        <pt x="1626" y="575" on="1"/>
        <pt x="1622" y="614" on="0"/>
        <pt x="1601" y="676" on="1"/>
        <pt x="1594" y="699" on="0"/>
        <pt x="1569" y="743" on="1"/>
        <pt x="1553" y="773" on="0"/>
        <pt x="1553" y="801" on="1"/>
        <pt x="1553" y="833" on="0"/>
        <pt x="1575" y="868" on="1"/>
        <pt x="1620" y="838" on="0"/>
        <pt x="1650" y="740" on="1"/>
        <pt x="1679" y="650" on="0"/>
      </contour>
      <contour>
        <pt x="1158" y="1457" on="1"/>
        <pt x="1158" y="1411" on="0"/>
        <pt x="1026" y="1294" on="1"/>
        <pt x="948" y="1230" on="0"/>
        <pt x="870" y="1165" on="1"/>
        <pt x="870" y="1167" on="0"/>
        <pt x="858" y="1180" on="1"/>
        <pt x="850" y="1191" on="0"/>
        <pt x="850" y="1206" on="1"/>
        <pt x="850" y="1223" on="0"/>
        <pt x="874" y="1278" on="0"/>
        <pt x="883" y="1284" on="1"/>
        <pt x="933" y="1316" on="0"/>
        <pt x="989" y="1362" on="1"/>
        <pt x="1041" y="1407" on="0"/>
        <pt x="1150" y="1492" on="1"/>
        <pt x="1150" y="1488" on="0"/>
        <pt x="1158" y="1471" on="0"/>
      </contour>
      <contour>
        <pt x="1402" y="668" on="1"/>
        <pt x="1402" y="633" on="0"/>
        <pt x="1375" y="605" on="1"/>
        <pt x="1354" y="582" on="0"/>
        <pt x="1342" y="582" on="1"/>
        <pt x="1325" y="582" on="0"/>
        <pt x="1305" y="608" on="1"/>
        <pt x="1283" y="636" on="0"/>
        <pt x="1283" y="668" on="1"/>
        <pt x="1283" y="691" on="0"/>
        <pt x="1324" y="755" on="0"/>
        <pt x="1339" y="755" on="1"/>
        <pt x="1360" y="755" on="0"/>
        <pt x="1402" y="693" on="0"/>
      </contour>
      <contour>
        <pt x="2401" y="336" on="1"/>
        <pt x="2401" y="187" on="0"/>
        <pt x="2363" y="125" on="1"/>
        <pt x="2333" y="76" on="0"/>
        <pt x="2260" y="61" on="1"/>
        <pt x="2186" y="48" on="0"/>
        <pt x="2111" y="35" on="1"/>
        <pt x="2087" y="-10" on="0"/>
        <pt x="2073" y="-19" on="1"/>
        <pt x="2068" y="-22" on="0"/>
        <pt x="2043" y="-22" on="1"/>
        <pt x="2035" y="-22" on="0"/>
        <pt x="1922" y="-12" on="0"/>
        <pt x="1914" y="-12" on="1"/>
        <pt x="1897" y="-12" on="0"/>
        <pt x="1865" y="15" on="1"/>
        <pt x="1828" y="46" on="0"/>
        <pt x="1819" y="80" on="1"/>
        <pt x="1703" y="-12" on="0"/>
        <pt x="1563" y="-12" on="1"/>
        <pt x="1500" y="-12" on="0"/>
        <pt x="1442" y="21" on="1"/>
        <pt x="1426" y="30" on="0"/>
        <pt x="1387" y="78" on="1"/>
        <pt x="1350" y="120" on="0"/>
        <pt x="1346" y="120" on="1"/>
        <pt x="1329" y="120" on="0"/>
        <pt x="1256" y="-22" on="0"/>
        <pt x="1220" y="-22" on="1"/>
        <pt x="1213" y="-22" on="0"/>
        <pt x="1090" y="49" on="0"/>
        <pt x="1082" y="49" on="1"/>
        <pt x="1076" y="49" on="0"/>
        <pt x="1041" y="14" on="1"/>
        <pt x="1005" y="-23" on="0"/>
        <pt x="985" y="-30" on="1"/>
        <pt x="945" y="-43" on="0"/>
        <pt x="891" y="-43" on="1"/>
        <pt x="710" y="-43" on="0"/>
        <pt x="684" y="237" on="1"/>
        <pt x="680" y="251" on="0"/>
        <pt x="670" y="274" on="1"/>
        <pt x="546" y="131" on="0"/>
        <pt x="504" y="131" on="1"/>
        <pt x="486" y="131" on="0"/>
        <pt x="426" y="152" on="1"/>
        <pt x="365" y="173" on="0"/>
        <pt x="353" y="184" on="1"/>
        <pt x="373" y="325" on="0"/>
        <pt x="479" y="449" on="1"/>
        <pt x="556" y="529" on="0"/>
        <pt x="634" y="609" on="1"/>
        <pt x="633" y="667" on="0"/>
        <pt x="637" y="782" on="1"/>
        <pt x="641" y="839" on="0"/>
        <pt x="663" y="868" on="1"/>
        <pt x="674" y="868" on="0"/>
        <pt x="683" y="844" on="1"/>
        <pt x="685" y="796" on="0"/>
        <pt x="694" y="700" on="1"/>
        <pt x="710" y="555" on="0"/>
        <pt x="726" y="410" on="1"/>
        <pt x="744" y="263" on="0"/>
        <pt x="776" y="201" on="1"/>
        <pt x="819" y="120" on="0"/>
        <pt x="912" y="120" on="1"/>
        <pt x="996" y="120" on="0"/>
        <pt x="1033" y="153" on="1"/>
        <pt x="1050" y="168" on="0"/>
        <pt x="1077" y="261" on="1"/>
        <pt x="1087" y="293" on="0"/>
        <pt x="1118" y="293" on="1"/>
        <pt x="1123" y="265" on="0"/>
        <pt x="1127" y="170" on="1"/>
        <pt x="1159" y="141" on="0"/>
        <pt x="1211" y="141" on="1"/>
        <pt x="1278" y="141" on="0"/>
        <pt x="1344" y="284" on="0"/>
        <pt x="1371" y="284" on="1"/>
        <pt x="1377" y="284" on="0"/>
        <pt x="1426" y="231" on="1"/>
        <pt x="1478" y="174" on="0"/>
        <pt x="1501" y="164" on="1"/>
        <pt x="1528" y="152" on="0"/>
        <pt x="1718" y="152" on="0"/>
        <pt x="1704" y="150" on="1"/>
        <pt x="1759" y="156" on="0"/>
        <pt x="1800" y="194" on="1"/>
        <pt x="1807" y="202" on="0"/>
        <pt x="1859" y="302" on="1"/>
        <pt x="1902" y="387" on="0"/>
        <pt x="1933" y="387" on="1"/>
        <pt x="1944" y="387" on="0"/>
        <pt x="2084" y="202" on="0"/>
        <pt x="2147" y="202" on="1"/>
        <pt x="2199" y="202" on="0"/>
        <pt x="2251" y="217" on="1"/>
        <pt x="2338" y="241" on="0"/>
        <pt x="2338" y="295" on="1"/>
        <pt x="2338" y="339" on="0"/>
        <pt x="2305" y="390" on="1"/>
        <pt x="2265" y="449" on="0"/>
        <pt x="2265" y="451" on="1"/>
        <pt x="2257" y="483" on="0"/>
        <pt x="2257" y="505" on="1"/>
        <pt x="2257" y="515" on="0"/>
        <pt x="2270" y="588" on="0"/>
        <pt x="2270" y="610" on="1"/>
        <pt x="2273" y="610" on="0"/>
        <pt x="2283" y="623" on="0"/>
        <pt x="2292" y="623" on="1"/>
        <pt x="2310" y="623" on="0"/>
        <pt x="2352" y="530" on="1"/>
        <pt x="2392" y="442" on="0"/>
        <pt x="2399" y="404" on="1"/>
        <pt x="2401" y="389" on="0"/>
      </contour>
      <contour>
        <pt x="705" y="1611" on="1"/>
        <pt x="697" y="1582" on="0"/>
        <pt x="683" y="1545" on="1"/>
        <pt x="628" y="1485" on="0"/>
        <pt x="543" y="1416" on="1"/>
        <pt x="472" y="1357" on="0"/>
        <pt x="401" y="1298" on="1"/>
        <pt x="379" y="1298" on="1"/>
        <pt x="371" y="1300" on="0"/>
        <pt x="371" y="1324" on="1"/>
        <pt x="371" y="1368" on="0"/>
        <pt x="387" y="1385" on="1"/>
        <pt x="419" y="1421" on="0"/>
        <pt x="471" y="1461" on="1"/>
        <pt x="513" y="1493" on="0"/>
        <pt x="556" y="1525" on="1"/>
        <pt x="603" y="1569" on="0"/>
        <pt x="690" y="1636" on="1"/>
      </contour>
      <contour>
        <pt x="718" y="1135" on="1"/>
        <pt x="718" y="1101" on="0"/>
        <pt x="691" y="1069" on="1"/>
        <pt x="668" y="1042" on="0"/>
        <pt x="657" y="1042" on="1"/>
        <pt x="651" y="1042" on="0"/>
        <pt x="606" y="1083" on="0"/>
        <pt x="598" y="1083" on="1"/>
        <pt x="591" y="1083" on="0"/>
        <pt x="543" y="1012" on="0"/>
        <pt x="535" y="1012" on="1"/>
        <pt x="514" y="1012" on="0"/>
        <pt x="472" y="1063" on="0"/>
        <pt x="472" y="1083" on="1"/>
        <pt x="472" y="1112" on="0"/>
        <pt x="499" y="1151" on="1"/>
        <pt x="524" y="1185" on="0"/>
        <pt x="532" y="1185" on="1"/>
        <pt x="535" y="1185" on="0"/>
        <pt x="583" y="1135" on="1"/>
        <pt x="649" y="1217" on="0"/>
        <pt x="655" y="1217" on="1"/>
        <pt x="674" y="1217" on="0"/>
        <pt x="697" y="1179" on="1"/>
        <pt x="718" y="1147" on="0"/>
      </contour>
      <contour>
        <pt x="1609" y="-246" on="1"/>
        <pt x="1547" y="-314" on="0"/>
        <pt x="1460" y="-374" on="1"/>
        <pt x="1388" y="-418" on="0"/>
        <pt x="1317" y="-462" on="1"/>
        <pt x="1309" y="-451" on="0"/>
        <pt x="1302" y="-451" on="1"/>
        <pt x="1302" y="-417" on="1"/>
        <pt x="1302" y="-385" on="0"/>
        <pt x="1329" y="-364" on="1"/>
        <pt x="1566" y="-186" on="0"/>
        <pt x="1581" y="-186" on="1"/>
        <pt x="1589" y="-186" on="0"/>
        <pt x="1603" y="-197" on="0"/>
        <pt x="1609" y="-196" on="1"/>
      </contour>
      <contour>
        <pt x="1189" y="-319" on="1"/>
        <pt x="1189" y="-338" on="0"/>
        <pt x="1141" y="-412" on="0"/>
        <pt x="1129" y="-412" on="1"/>
        <pt x="1121" y="-412" on="0"/>
        <pt x="1080" y="-380" on="0"/>
        <pt x="1072" y="-380" on="1"/>
        <pt x="1064" y="-380" on="0"/>
        <pt x="1014" y="-442" on="0"/>
        <pt x="1007" y="-442" on="1"/>
        <pt x="987" y="-442" on="0"/>
        <pt x="964" y="-398" on="1"/>
        <pt x="944" y="-359" on="0"/>
        <pt x="944" y="-344" on="1"/>
        <pt x="944" y="-327" on="0"/>
        <pt x="997" y="-258" on="0"/>
        <pt x="1010" y="-258" on="1"/>
        <pt x="1016" y="-258" on="0"/>
        <pt x="1056" y="-309" on="0"/>
        <pt x="1063" y="-309" on="1"/>
        <pt x="1071" y="-309" on="0"/>
        <pt x="1124" y="-237" on="0"/>
        <pt x="1132" y="-237" on="1"/>
        <pt x="1147" y="-237" on="0"/>
        <pt x="1189" y="-302" on="0"/>
      </contour>
      <contour>
        <pt x="1942" y="163" on="1"/>
        <pt x="1920" y="255" on="0"/>
        <pt x="1900" y="253" on="1"/>
        <pt x="1886" y="230" on="0"/>
        <pt x="1886" y="213" on="1"/>
        <pt x="1886" y="196" on="0"/>
        <pt x="1912" y="162" on="0"/>
        <pt x="1922" y="163" on="1"/>
      </contour>
      <contour>
        <pt x="660" y="407" on="1"/>
        <pt x="660" y="423" on="0"/>
        <pt x="655" y="446" on="1"/>
        <pt x="646" y="479" on="0"/>
        <pt x="632" y="479" on="1"/>
        <pt x="615" y="479" on="0"/>
        <pt x="468" y="340" on="0"/>
        <pt x="454" y="309" on="1"/>
        <pt x="477" y="284" on="0"/>
        <pt x="516" y="284" on="1"/>
        <pt x="573" y="284" on="0"/>
        <pt x="596" y="297" on="1"/>
        <pt x="660" y="335" on="0"/>
      </contour>
    </TTGlyph>
    <TTGlyph name="endash" xMin="353" yMin="-462" xMax="1377" yMax="1636">
      <contour>
        <pt x="1358" y="1534" on="1"/>
        <pt x="1358" y="1470" on="0"/>
        <pt x="1285" y="1366" on="1"/>
        <pt x="1284" y="1365" on="0"/>
        <pt x="1206" y="1237" on="1"/>
        <pt x="1201" y="1251" on="0"/>
        <pt x="1201" y="1272" on="1"/>
        <pt x="1201" y="1320" on="0"/>
        <pt x="1234" y="1380" on="1"/>
        <pt x="1235" y="1381" on="0"/>
        <pt x="1281" y="1454" on="1"/>
        <pt x="1306" y="1502" on="0"/>
        <pt x="1354" y="1575" on="1"/>
        <pt x="1358" y="1561" on="0"/>
      </contour>
      <contour>
        <pt x="1340" y="1063" on="1"/>
        <pt x="1340" y="1026" on="0"/>
        <pt x="1326" y="995" on="1"/>
        <pt x="1316" y="971" on="0"/>
        <pt x="1310" y="971" on="1"/>
        <pt x="1303" y="971" on="0"/>
        <pt x="1283" y="1036" on="0"/>
        <pt x="1283" y="1058" on="1"/>
        <pt x="1283" y="1076" on="0"/>
        <pt x="1307" y="1144" on="0"/>
        <pt x="1313" y="1144" on="1"/>
        <pt x="1329" y="1144" on="0"/>
      </contour>
      <contour>
        <pt x="1377" y="878" on="1"/>
        <pt x="1377" y="845" on="0"/>
        <pt x="1364" y="813" on="1"/>
        <pt x="1353" y="786" on="0"/>
        <pt x="1348" y="786" on="1"/>
        <pt x="1344" y="786" on="0"/>
        <pt x="1321" y="817" on="0"/>
        <pt x="1317" y="817" on="1"/>
        <pt x="1313" y="817" on="0"/>
        <pt x="1292" y="766" on="0"/>
        <pt x="1288" y="766" on="1"/>
        <pt x="1271" y="766" on="0"/>
        <pt x="1255" y="842" on="1"/>
        <pt x="1274" y="940" on="0"/>
        <pt x="1288" y="940" on="1"/>
        <pt x="1291" y="940" on="0"/>
        <pt x="1309" y="909" on="0"/>
        <pt x="1313" y="909" on="1"/>
        <pt x="1317" y="909" on="0"/>
        <pt x="1342" y="971" on="0"/>
        <pt x="1346" y="971" on="1"/>
        <pt x="1352" y="971" on="0"/>
        <pt x="1377" y="897" on="0"/>
      </contour>
      <contour>
        <pt x="1167" y="1518" on="1"/>
        <pt x="1167" y="1464" on="0"/>
        <pt x="1104" y="1357" on="1"/>
        <pt x="1019" y="1214" on="0"/>
        <pt x="1012" y="1196" on="1"/>
        <pt x="998" y="1196" on="1"/>
        <pt x="994" y="1209" on="0"/>
        <pt x="994" y="1226" on="1"/>
        <pt x="994" y="1276" on="0"/>
        <pt x="1025" y="1332" on="1"/>
        <pt x="1045" y="1362" on="0"/>
        <pt x="1064" y="1392" on="1"/>
        <pt x="1085" y="1435" on="0"/>
        <pt x="1130" y="1509" on="1"/>
        <pt x="1140" y="1526" on="0"/>
        <pt x="1163" y="1553" on="1"/>
        <pt x="1163" y="1550" on="0"/>
        <pt x="1167" y="1533" on="0"/>
      </contour>
      <contour>
        <pt x="1016" y="561" on="1"/>
        <pt x="1016" y="505" on="0"/>
        <pt x="1006" y="449" on="1"/>
        <pt x="996" y="453" on="0"/>
        <pt x="989" y="575" on="1"/>
        <pt x="988" y="614" on="0"/>
        <pt x="977" y="676" on="1"/>
        <pt x="973" y="699" on="0"/>
        <pt x="961" y="743" on="1"/>
        <pt x="953" y="773" on="0"/>
        <pt x="953" y="801" on="1"/>
        <pt x="953" y="833" on="0"/>
        <pt x="964" y="868" on="1"/>
        <pt x="986" y="838" on="0"/>
        <pt x="1002" y="740" on="1"/>
        <pt x="1016" y="650" on="0"/>
      </contour>
      <contour>
        <pt x="755" y="1457" on="1"/>
        <pt x="755" y="1411" on="0"/>
        <pt x="690" y="1294" on="1"/>
        <pt x="651" y="1230" on="0"/>
        <pt x="612" y="1165" on="1"/>
        <pt x="611" y="1167" on="0"/>
        <pt x="606" y="1180" on="1"/>
        <pt x="601" y="1191" on="0"/>
        <pt x="601" y="1206" on="1"/>
        <pt x="601" y="1223" on="0"/>
        <pt x="614" y="1278" on="0"/>
        <pt x="618" y="1284" on="1"/>
        <pt x="643" y="1316" on="0"/>
        <pt x="671" y="1362" on="1"/>
        <pt x="697" y="1407" on="0"/>
        <pt x="751" y="1492" on="1"/>
        <pt x="751" y="1488" on="0"/>
        <pt x="755" y="1471" on="0"/>
      </contour>
      <contour>
        <pt x="878" y="668" on="1"/>
        <pt x="878" y="633" on="0"/>
        <pt x="864" y="605" on="1"/>
        <pt x="853" y="582" on="0"/>
        <pt x="848" y="582" on="1"/>
        <pt x="839" y="582" on="0"/>
        <pt x="829" y="608" on="1"/>
        <pt x="818" y="636" on="0"/>
        <pt x="818" y="668" on="1"/>
        <pt x="818" y="691" on="0"/>
        <pt x="838" y="755" on="0"/>
        <pt x="846" y="755" on="1"/>
        <pt x="857" y="755" on="0"/>
        <pt x="878" y="693" on="0"/>
      </contour>
      <contour>
        <pt x="1377" y="336" on="1"/>
        <pt x="1377" y="187" on="0"/>
        <pt x="1358" y="125" on="1"/>
        <pt x="1343" y="76" on="0"/>
        <pt x="1307" y="61" on="1"/>
        <pt x="1269" y="48" on="0"/>
        <pt x="1232" y="35" on="1"/>
        <pt x="1220" y="-10" on="0"/>
        <pt x="1213" y="-19" on="1"/>
        <pt x="1211" y="-22" on="0"/>
        <pt x="1198" y="-22" on="1"/>
        <pt x="1194" y="-22" on="0"/>
        <pt x="1138" y="-12" on="0"/>
        <pt x="1134" y="-12" on="1"/>
        <pt x="1125" y="-12" on="0"/>
        <pt x="1109" y="15" on="1"/>
        <pt x="1090" y="46" on="0"/>
        <pt x="1086" y="80" on="1"/>
        <pt x="1028" y="-12" on="0"/>
        <pt x="958" y="-12" on="1"/>
        <pt x="927" y="-12" on="0"/>
        <pt x="897" y="21" on="1"/>
        <pt x="889" y="30" on="0"/>
        <pt x="870" y="78" on="1"/>
        <pt x="852" y="120" on="0"/>
        <pt x="850" y="120" on="1"/>
        <pt x="841" y="120" on="0"/>
        <pt x="804" y="-22" on="0"/>
        <pt x="787" y="-22" on="1"/>
        <pt x="783" y="-22" on="0"/>
        <pt x="722" y="49" on="0"/>
        <pt x="718" y="49" on="1"/>
        <pt x="714" y="49" on="0"/>
        <pt x="697" y="14" on="1"/>
        <pt x="679" y="-23" on="0"/>
        <pt x="669" y="-30" on="1"/>
        <pt x="649" y="-43" on="0"/>
        <pt x="622" y="-43" on="1"/>
        <pt x="531" y="-43" on="0"/>
        <pt x="518" y="237" on="1"/>
        <pt x="517" y="251" on="0"/>
        <pt x="512" y="274" on="1"/>
        <pt x="450" y="131" on="0"/>
        <pt x="428" y="131" on="1"/>
        <pt x="419" y="131" on="0"/>
        <pt x="390" y="152" on="1"/>
        <pt x="359" y="173" on="0"/>
        <pt x="353" y="184" on="1"/>
        <pt x="363" y="325" on="0"/>
        <pt x="416" y="449" on="1"/>
        <pt x="455" y="529" on="0"/>
        <pt x="494" y="609" on="1"/>
        <pt x="493" y="667" on="0"/>
        <pt x="495" y="782" on="1"/>
        <pt x="497" y="839" on="0"/>
        <pt x="508" y="868" on="1"/>
        <pt x="513" y="868" on="0"/>
        <pt x="518" y="844" on="1"/>
        <pt x="519" y="796" on="0"/>
        <pt x="523" y="700" on="1"/>
        <pt x="532" y="555" on="0"/>
        <pt x="540" y="410" on="1"/>
        <pt x="548" y="263" on="0"/>
        <pt x="565" y="201" on="1"/>
        <pt x="586" y="120" on="0"/>
        <pt x="633" y="120" on="1"/>
        <pt x="675" y="120" on="0"/>
        <pt x="693" y="153" on="1"/>
        <pt x="701" y="168" on="0"/>
        <pt x="715" y="261" on="1"/>
        <pt x="720" y="293" on="0"/>
        <pt x="736" y="293" on="1"/>
        <pt x="738" y="265" on="0"/>
        <pt x="740" y="170" on="1"/>
        <pt x="756" y="141" on="0"/>
        <pt x="782" y="141" on="1"/>
        <pt x="816" y="141" on="0"/>
        <pt x="849" y="284" on="0"/>
        <pt x="862" y="284" on="1"/>
        <pt x="865" y="284" on="0"/>
        <pt x="889" y="231" on="1"/>
        <pt x="915" y="174" on="0"/>
        <pt x="927" y="164" on="1"/>
        <pt x="941" y="152" on="0"/>
        <pt x="1035" y="152" on="0"/>
        <pt x="1028" y="150" on="1"/>
        <pt x="1056" y="156" on="0"/>
        <pt x="1077" y="194" on="1"/>
        <pt x="1080" y="202" on="0"/>
        <pt x="1106" y="302" on="1"/>
        <pt x="1128" y="387" on="0"/>
        <pt x="1143" y="387" on="1"/>
        <pt x="1149" y="387" on="0"/>
        <pt x="1218" y="202" on="0"/>
        <pt x="1250" y="202" on="1"/>
        <pt x="1276" y="202" on="0"/>
        <pt x="1302" y="217" on="1"/>
        <pt x="1346" y="241" on="0"/>
        <pt x="1346" y="295" on="1"/>
        <pt x="1346" y="339" on="0"/>
        <pt x="1329" y="390" on="1"/>
        <pt x="1309" y="449" on="0"/>
        <pt x="1309" y="451" on="1"/>
        <pt x="1305" y="483" on="0"/>
        <pt x="1305" y="505" on="1"/>
        <pt x="1305" y="515" on="0"/>
        <pt x="1312" y="588" on="0"/>
        <pt x="1312" y="610" on="1"/>
        <pt x="1313" y="610" on="0"/>
        <pt x="1318" y="623" on="0"/>
        <pt x="1322" y="623" on="1"/>
        <pt x="1331" y="623" on="0"/>
        <pt x="1352" y="530" on="1"/>
        <pt x="1373" y="442" on="0"/>
        <pt x="1376" y="404" on="1"/>
        <pt x="1377" y="389" on="0"/>
      </contour>
      <contour>
        <pt x="529" y="1611" on="1"/>
        <pt x="525" y="1582" on="0"/>
        <pt x="518" y="1545" on="1"/>
        <pt x="490" y="1485" on="0"/>
        <pt x="448" y="1416" on="1"/>
        <pt x="413" y="1357" on="0"/>
        <pt x="377" y="1298" on="1"/>
        <pt x="366" y="1298" on="1"/>
        <pt x="362" y="1300" on="0"/>
        <pt x="362" y="1324" on="1"/>
        <pt x="362" y="1368" on="0"/>
        <pt x="370" y="1385" on="1"/>
        <pt x="386" y="1421" on="0"/>
        <pt x="412" y="1461" on="1"/>
        <pt x="433" y="1493" on="0"/>
        <pt x="454" y="1525" on="1"/>
        <pt x="478" y="1569" on="0"/>
        <pt x="521" y="1636" on="1"/>
      </contour>
      <contour>
        <pt x="535" y="1135" on="1"/>
        <pt x="535" y="1101" on="0"/>
        <pt x="522" y="1069" on="1"/>
        <pt x="511" y="1042" on="0"/>
        <pt x="505" y="1042" on="1"/>
        <pt x="502" y="1042" on="0"/>
        <pt x="479" y="1083" on="0"/>
        <pt x="475" y="1083" on="1"/>
        <pt x="472" y="1083" on="0"/>
        <pt x="448" y="1012" on="0"/>
        <pt x="444" y="1012" on="1"/>
        <pt x="433" y="1012" on="0"/>
        <pt x="413" y="1063" on="0"/>
        <pt x="413" y="1083" on="1"/>
        <pt x="413" y="1112" on="0"/>
        <pt x="426" y="1151" on="1"/>
        <pt x="438" y="1185" on="0"/>
        <pt x="443" y="1185" on="1"/>
        <pt x="444" y="1185" on="0"/>
        <pt x="468" y="1135" on="1"/>
        <pt x="501" y="1217" on="0"/>
        <pt x="504" y="1217" on="1"/>
        <pt x="513" y="1217" on="0"/>
        <pt x="525" y="1179" on="1"/>
        <pt x="535" y="1147" on="0"/>
      </contour>
      <contour>
        <pt x="981" y="-246" on="1"/>
        <pt x="950" y="-314" on="0"/>
        <pt x="906" y="-374" on="1"/>
        <pt x="871" y="-418" on="0"/>
        <pt x="835" y="-462" on="1"/>
        <pt x="831" y="-451" on="0"/>
        <pt x="828" y="-451" on="1"/>
        <pt x="828" y="-417" on="1"/>
        <pt x="827" y="-385" on="0"/>
        <pt x="841" y="-364" on="1"/>
        <pt x="959" y="-186" on="0"/>
        <pt x="967" y="-186" on="1"/>
        <pt x="971" y="-186" on="0"/>
        <pt x="978" y="-197" on="0"/>
        <pt x="981" y="-196" on="1"/>
      </contour>
      <contour>
        <pt x="771" y="-319" on="1"/>
        <pt x="771" y="-338" on="0"/>
        <pt x="747" y="-412" on="0"/>
        <pt x="741" y="-412" on="1"/>
        <pt x="737" y="-412" on="0"/>
        <pt x="717" y="-380" on="0"/>
        <pt x="713" y="-380" on="1"/>
        <pt x="709" y="-380" on="0"/>
        <pt x="683" y="-442" on="0"/>
        <pt x="680" y="-442" on="1"/>
        <pt x="670" y="-442" on="0"/>
        <pt x="658" y="-398" on="1"/>
        <pt x="649" y="-359" on="0"/>
        <pt x="649" y="-344" on="1"/>
        <pt x="649" y="-327" on="0"/>
        <pt x="675" y="-258" on="0"/>
        <pt x="681" y="-258" on="1"/>
        <pt x="685" y="-258" on="0"/>
        <pt x="704" y="-309" on="0"/>
        <pt x="708" y="-309" on="1"/>
        <pt x="712" y="-309" on="0"/>
        <pt x="739" y="-237" on="0"/>
        <pt x="743" y="-237" on="1"/>
        <pt x="750" y="-237" on="0"/>
        <pt x="771" y="-302" on="0"/>
      </contour>
      <contour>
        <pt x="1147" y="163" on="1"/>
        <pt x="1136" y="255" on="0"/>
        <pt x="1127" y="253" on="1"/>
        <pt x="1120" y="230" on="0"/>
        <pt x="1120" y="213" on="1"/>
        <pt x="1120" y="196" on="0"/>
        <pt x="1132" y="162" on="0"/>
        <pt x="1137" y="163" on="1"/>
      </contour>
      <contour>
        <pt x="507" y="407" on="1"/>
        <pt x="507" y="423" on="0"/>
        <pt x="504" y="446" on="1"/>
        <pt x="500" y="479" on="0"/>
        <pt x="493" y="479" on="1"/>
        <pt x="484" y="479" on="0"/>
        <pt x="410" y="340" on="0"/>
        <pt x="403" y="309" on="1"/>
        <pt x="415" y="284" on="0"/>
        <pt x="435" y="284" on="1"/>
        <pt x="463" y="284" on="0"/>
        <pt x="475" y="297" on="1"/>
        <pt x="507" y="335" on="0"/>
      </contour>
    </TTGlyph>
    <TTGlyph name="equal" xMin="142" yMin="226" xMax="842" yMax="1588">
      <contour>
        <pt x="142" y="226" on="1"/>
        <pt x="142" y="1588" on="1"/>
        <pt x="842" y="1588" on="1"/>
        <pt x="842" y="226" on="1"/>
      </contour>
      <contour>
        <pt x="284" y="368" on="1"/>
        <pt x="700" y="368" on="1"/>
        <pt x="700" y="1447" on="1"/>
        <pt x="284" y="1447" on="1"/>
      </contour>
    </TTGlyph>
    <TTGlyph name="exclam" xMin="142" yMin="226" xMax="842" yMax="1588">
      <contour>
        <pt x="142" y="226" on="1"/>
        <pt x="142" y="1588" on="1"/>
        <pt x="842" y="1588" on="1"/>
        <pt x="842" y="226" on="1"/>
      </contour>
      <contour>
        <pt x="284" y="368" on="1"/>
        <pt x="700" y="368" on="1"/>
        <pt x="700" y="1447" on="1"/>
        <pt x="284" y="1447" on="1"/>
      </contour>
    </TTGlyph>
    <TTGlyph name="figuredash" xMin="353" yMin="-462" xMax="3690" yMax="1636">
      <contour>
        <pt x="3629" y="1534" on="1"/>
        <pt x="3629" y="1470" on="0"/>
        <pt x="3391" y="1366" on="1"/>
        <pt x="3388" y="1365" on="0"/>
        <pt x="3132" y="1237" on="1"/>
        <pt x="3117" y="1251" on="0"/>
        <pt x="3117" y="1272" on="1"/>
        <pt x="3117" y="1320" on="0"/>
        <pt x="3224" y="1380" on="1"/>
        <pt x="3226" y="1381" on="0"/>
        <pt x="3376" y="1454" on="1"/>
        <pt x="3459" y="1502" on="0"/>
        <pt x="3615" y="1575" on="1"/>
        <pt x="3629" y="1561" on="0"/>
      </contour>
      <contour>
        <pt x="3568" y="1063" on="1"/>
        <pt x="3568" y="1026" on="0"/>
        <pt x="3525" y="995" on="1"/>
        <pt x="3490" y="971" on="0"/>
        <pt x="3471" y="971" on="1"/>
        <pt x="3448" y="971" on="0"/>
        <pt x="3383" y="1036" on="0"/>
        <pt x="3383" y="1058" on="1"/>
        <pt x="3383" y="1076" on="0"/>
        <pt x="3463" y="1144" on="0"/>
        <pt x="3481" y="1144" on="1"/>
        <pt x="3534" y="1144" on="0"/>
      </contour>
      <contour>
        <pt x="3690" y="878" on="1"/>
        <pt x="3690" y="845" on="0"/>
        <pt x="3649" y="813" on="1"/>
        <pt x="3613" y="786" on="0"/>
        <pt x="3594" y="786" on="1"/>
        <pt x="3582" y="786" on="0"/>
        <pt x="3509" y="817" on="0"/>
        <pt x="3496" y="817" on="1"/>
        <pt x="3483" y="817" on="0"/>
        <pt x="3412" y="766" on="0"/>
        <pt x="3399" y="766" on="1"/>
        <pt x="3345" y="766" on="0"/>
        <pt x="3291" y="842" on="1"/>
        <pt x="3355" y="940" on="0"/>
        <pt x="3399" y="940" on="1"/>
        <pt x="3410" y="940" on="0"/>
        <pt x="3468" y="909" on="0"/>
        <pt x="3481" y="909" on="1"/>
        <pt x="3494" y="909" on="0"/>
        <pt x="3576" y="971" on="0"/>
        <pt x="3588" y="971" on="1"/>
        <pt x="3608" y="971" on="0"/>
        <pt x="3690" y="897" on="0"/>
      </contour>
      <contour>
        <pt x="3005" y="1518" on="1"/>
        <pt x="3005" y="1464" on="0"/>
        <pt x="2799" y="1357" on="1"/>
        <pt x="2524" y="1214" on="0"/>
        <pt x="2499" y="1196" on="1"/>
        <pt x="2455" y="1196" on="1"/>
        <pt x="2442" y="1209" on="0"/>
        <pt x="2442" y="1226" on="1"/>
        <pt x="2442" y="1276" on="0"/>
        <pt x="2544" y="1332" on="1"/>
        <pt x="2607" y="1362" on="0"/>
        <pt x="2670" y="1392" on="1"/>
        <pt x="2737" y="1435" on="0"/>
        <pt x="2885" y="1509" on="1"/>
        <pt x="2919" y="1526" on="0"/>
        <pt x="2992" y="1553" on="1"/>
        <pt x="2992" y="1550" on="0"/>
        <pt x="3005" y="1533" on="0"/>
      </contour>
      <contour>
        <pt x="2513" y="561" on="1"/>
        <pt x="2513" y="505" on="0"/>
        <pt x="2480" y="449" on="1"/>
        <pt x="2450" y="453" on="0"/>
        <pt x="2427" y="575" on="1"/>
        <pt x="2421" y="614" on="0"/>
        <pt x="2387" y="676" on="1"/>
        <pt x="2375" y="699" on="0"/>
        <pt x="2335" y="743" on="1"/>
        <pt x="2308" y="773" on="0"/>
        <pt x="2308" y="801" on="1"/>
        <pt x="2308" y="833" on="0"/>
        <pt x="2344" y="868" on="1"/>
        <pt x="2417" y="838" on="0"/>
        <pt x="2467" y="740" on="1"/>
        <pt x="2513" y="650" on="0"/>
      </contour>
      <contour>
        <pt x="1664" y="1457" on="1"/>
        <pt x="1664" y="1411" on="0"/>
        <pt x="1450" y="1294" on="1"/>
        <pt x="1323" y="1230" on="0"/>
        <pt x="1196" y="1165" on="1"/>
        <pt x="1195" y="1167" on="0"/>
        <pt x="1176" y="1180" on="1"/>
        <pt x="1162" y="1191" on="0"/>
        <pt x="1162" y="1206" on="1"/>
        <pt x="1162" y="1223" on="0"/>
        <pt x="1202" y="1278" on="0"/>
        <pt x="1216" y="1284" on="1"/>
        <pt x="1298" y="1316" on="0"/>
        <pt x="1390" y="1362" on="1"/>
        <pt x="1474" y="1407" on="0"/>
        <pt x="1651" y="1492" on="1"/>
        <pt x="1651" y="1488" on="0"/>
        <pt x="1664" y="1471" on="0"/>
      </contour>
      <contour>
        <pt x="2063" y="668" on="1"/>
        <pt x="2063" y="633" on="0"/>
        <pt x="2019" y="605" on="1"/>
        <pt x="1984" y="582" on="0"/>
        <pt x="1965" y="582" on="1"/>
        <pt x="1936" y="582" on="0"/>
        <pt x="1904" y="608" on="1"/>
        <pt x="1869" y="636" on="0"/>
        <pt x="1869" y="668" on="1"/>
        <pt x="1869" y="691" on="0"/>
        <pt x="1935" y="755" on="0"/>
        <pt x="1960" y="755" on="1"/>
        <pt x="1994" y="755" on="0"/>
        <pt x="2063" y="693" on="0"/>
      </contour>
      <contour>
        <pt x="3690" y="336" on="1"/>
        <pt x="3690" y="187" on="0"/>
        <pt x="3628" y="125" on="1"/>
        <pt x="3579" y="76" on="0"/>
        <pt x="3461" y="61" on="1"/>
        <pt x="3339" y="48" on="0"/>
        <pt x="3217" y="35" on="1"/>
        <pt x="3178" y="-10" on="0"/>
        <pt x="3156" y="-19" on="1"/>
        <pt x="3148" y="-22" on="0"/>
        <pt x="3107" y="-22" on="1"/>
        <pt x="3094" y="-22" on="0"/>
        <pt x="2910" y="-12" on="0"/>
        <pt x="2897" y="-12" on="1"/>
        <pt x="2868" y="-12" on="0"/>
        <pt x="2816" y="15" on="1"/>
        <pt x="2756" y="46" on="0"/>
        <pt x="2742" y="80" on="1"/>
        <pt x="2553" y="-12" on="0"/>
        <pt x="2324" y="-12" on="1"/>
        <pt x="2222" y="-12" on="0"/>
        <pt x="2127" y="21" on="1"/>
        <pt x="2101" y="30" on="0"/>
        <pt x="2037" y="78" on="1"/>
        <pt x="1978" y="120" on="0"/>
        <pt x="1971" y="120" on="1"/>
        <pt x="1943" y="120" on="0"/>
        <pt x="1824" y="-22" on="0"/>
        <pt x="1766" y="-22" on="1"/>
        <pt x="1755" y="-22" on="0"/>
        <pt x="1554" y="49" on="0"/>
        <pt x="1541" y="49" on="1"/>
        <pt x="1531" y="49" on="0"/>
        <pt x="1474" y="14" on="1"/>
        <pt x="1415" y="-23" on="0"/>
        <pt x="1383" y="-30" on="1"/>
        <pt x="1318" y="-43" on="0"/>
        <pt x="1229" y="-43" on="1"/>
        <pt x="934" y="-43" on="0"/>
        <pt x="892" y="237" on="1"/>
        <pt x="886" y="251" on="0"/>
        <pt x="870" y="274" on="1"/>
        <pt x="668" y="131" on="0"/>
        <pt x="599" y="131" on="1"/>
        <pt x="569" y="131" on="0"/>
        <pt x="472" y="152" on="1"/>
        <pt x="372" y="173" on="0"/>
        <pt x="353" y="184" on="1"/>
        <pt x="385" y="325" on="0"/>
        <pt x="558" y="449" on="1"/>
        <pt x="684" y="529" on="0"/>
        <pt x="811" y="609" on="1"/>
        <pt x="810" y="667" on="0"/>
        <pt x="816" y="782" on="1"/>
        <pt x="822" y="839" on="0"/>
        <pt x="858" y="868" on="1"/>
        <pt x="876" y="868" on="0"/>
        <pt x="891" y="844" on="1"/>
        <pt x="894" y="796" on="0"/>
        <pt x="908" y="700" on="1"/>
        <pt x="935" y="555" on="0"/>
        <pt x="961" y="410" on="1"/>
        <pt x="990" y="263" on="0"/>
        <pt x="1043" y="201" on="1"/>
        <pt x="1113" y="120" on="0"/>
        <pt x="1264" y="120" on="1"/>
        <pt x="1401" y="120" on="0"/>
        <pt x="1461" y="153" on="1"/>
        <pt x="1488" y="168" on="0"/>
        <pt x="1533" y="261" on="1"/>
        <pt x="1549" y="293" on="0"/>
        <pt x="1600" y="293" on="1"/>
        <pt x="1608" y="265" on="0"/>
        <pt x="1614" y="170" on="1"/>
        <pt x="1667" y="141" on="0"/>
        <pt x="1751" y="141" on="1"/>
        <pt x="1861" y="141" on="0"/>
        <pt x="1968" y="284" on="0"/>
        <pt x="2012" y="284" on="1"/>
        <pt x="2021" y="284" on="0"/>
        <pt x="2101" y="231" on="1"/>
        <pt x="2186" y="174" on="0"/>
        <pt x="2223" y="164" on="1"/>
        <pt x="2268" y="152" on="0"/>
        <pt x="2577" y="152" on="0"/>
        <pt x="2554" y="150" on="1"/>
        <pt x="2644" y="156" on="0"/>
        <pt x="2711" y="194" on="1"/>
        <pt x="2722" y="202" on="0"/>
        <pt x="2807" y="302" on="1"/>
        <pt x="2877" y="387" on="0"/>
        <pt x="2928" y="387" on="1"/>
        <pt x="2946" y="387" on="0"/>
        <pt x="3173" y="202" on="0"/>
        <pt x="3276" y="202" on="1"/>
        <pt x="3361" y="202" on="0"/>
        <pt x="3446" y="217" on="1"/>
        <pt x="3588" y="241" on="0"/>
        <pt x="3588" y="295" on="1"/>
        <pt x="3588" y="339" on="0"/>
        <pt x="3533" y="390" on="1"/>
        <pt x="3469" y="449" on="0"/>
        <pt x="3468" y="451" on="1"/>
        <pt x="3455" y="483" on="0"/>
        <pt x="3455" y="505" on="1"/>
        <pt x="3455" y="515" on="0"/>
        <pt x="3477" y="588" on="0"/>
        <pt x="3477" y="610" on="1"/>
        <pt x="3481" y="610" on="0"/>
        <pt x="3497" y="623" on="0"/>
        <pt x="3512" y="623" on="1"/>
        <pt x="3541" y="623" on="0"/>
        <pt x="3610" y="530" on="1"/>
        <pt x="3676" y="442" on="0"/>
        <pt x="3686" y="404" on="1"/>
        <pt x="3690" y="389" on="0"/>
      </contour>
      <contour>
        <pt x="926" y="1611" on="1"/>
        <pt x="914" y="1582" on="0"/>
        <pt x="890" y="1545" on="1"/>
        <pt x="801" y="1485" on="0"/>
        <pt x="663" y="1416" on="1"/>
        <pt x="547" y="1357" on="0"/>
        <pt x="431" y="1298" on="1"/>
        <pt x="396" y="1298" on="1"/>
        <pt x="383" y="1300" on="0"/>
        <pt x="383" y="1324" on="1"/>
        <pt x="383" y="1368" on="0"/>
        <pt x="409" y="1385" on="1"/>
        <pt x="460" y="1421" on="0"/>
        <pt x="545" y="1461" on="1"/>
        <pt x="614" y="1493" on="0"/>
        <pt x="683" y="1525" on="1"/>
        <pt x="760" y="1569" on="0"/>
        <pt x="902" y="1636" on="1"/>
      </contour>
      <contour>
        <pt x="947" y="1135" on="1"/>
        <pt x="947" y="1101" on="0"/>
        <pt x="903" y="1069" on="1"/>
        <pt x="867" y="1042" on="0"/>
        <pt x="849" y="1042" on="1"/>
        <pt x="838" y="1042" on="0"/>
        <pt x="765" y="1083" on="0"/>
        <pt x="752" y="1083" on="1"/>
        <pt x="740" y="1083" on="0"/>
        <pt x="663" y="1012" on="0"/>
        <pt x="650" y="1012" on="1"/>
        <pt x="615" y="1012" on="0"/>
        <pt x="547" y="1063" on="0"/>
        <pt x="547" y="1083" on="1"/>
        <pt x="547" y="1112" on="0"/>
        <pt x="591" y="1151" on="1"/>
        <pt x="631" y="1185" on="0"/>
        <pt x="645" y="1185" on="1"/>
        <pt x="650" y="1185" on="0"/>
        <pt x="727" y="1135" on="1"/>
        <pt x="836" y="1217" on="0"/>
        <pt x="845" y="1217" on="1"/>
        <pt x="876" y="1217" on="0"/>
        <pt x="914" y="1179" on="1"/>
        <pt x="947" y="1147" on="0"/>
      </contour>
      <contour>
        <pt x="2399" y="-246" on="1"/>
        <pt x="2299" y="-314" on="0"/>
        <pt x="2156" y="-374" on="1"/>
        <pt x="2040" y="-418" on="0"/>
        <pt x="1924" y="-462" on="1"/>
        <pt x="1910" y="-451" on="0"/>
        <pt x="1900" y="-451" on="1"/>
        <pt x="1900" y="-417" on="1"/>
        <pt x="1899" y="-385" on="0"/>
        <pt x="1943" y="-364" on="1"/>
        <pt x="2329" y="-186" on="0"/>
        <pt x="2354" y="-186" on="1"/>
        <pt x="2367" y="-186" on="0"/>
        <pt x="2390" y="-197" on="0"/>
        <pt x="2399" y="-196" on="1"/>
      </contour>
      <contour>
        <pt x="1715" y="-319" on="1"/>
        <pt x="1715" y="-338" on="0"/>
        <pt x="1637" y="-412" on="0"/>
        <pt x="1617" y="-412" on="1"/>
        <pt x="1605" y="-412" on="0"/>
        <pt x="1538" y="-380" on="0"/>
        <pt x="1525" y="-380" on="1"/>
        <pt x="1512" y="-380" on="0"/>
        <pt x="1430" y="-442" on="0"/>
        <pt x="1418" y="-442" on="1"/>
        <pt x="1386" y="-442" on="0"/>
        <pt x="1348" y="-398" on="1"/>
        <pt x="1316" y="-359" on="0"/>
        <pt x="1316" y="-344" on="1"/>
        <pt x="1316" y="-327" on="0"/>
        <pt x="1402" y="-258" on="0"/>
        <pt x="1423" y="-258" on="1"/>
        <pt x="1434" y="-258" on="0"/>
        <pt x="1498" y="-309" on="0"/>
        <pt x="1510" y="-309" on="1"/>
        <pt x="1523" y="-309" on="0"/>
        <pt x="1610" y="-237" on="0"/>
        <pt x="1623" y="-237" on="1"/>
        <pt x="1647" y="-237" on="0"/>
        <pt x="1715" y="-302" on="0"/>
      </contour>
      <contour>
        <pt x="2942" y="163" on="1"/>
        <pt x="2906" y="255" on="0"/>
        <pt x="2874" y="253" on="1"/>
        <pt x="2851" y="230" on="0"/>
        <pt x="2851" y="213" on="1"/>
        <pt x="2851" y="196" on="0"/>
        <pt x="2893" y="162" on="0"/>
        <pt x="2909" y="163" on="1"/>
      </contour>
      <contour>
        <pt x="854" y="407" on="1"/>
        <pt x="854" y="423" on="0"/>
        <pt x="845" y="446" on="1"/>
        <pt x="831" y="479" on="0"/>
        <pt x="808" y="479" on="1"/>
        <pt x="780" y="479" on="0"/>
        <pt x="540" y="340" on="0"/>
        <pt x="517" y="309" on="1"/>
        <pt x="555" y="284" on="0"/>
        <pt x="619" y="284" on="1"/>
        <pt x="712" y="284" on="0"/>
        <pt x="749" y="297" on="1"/>
        <pt x="854" y="335" on="0"/>
      </contour>
    </TTGlyph>
    <TTGlyph name="gaffinalarabic" xMin="142" yMin="226" xMax="842" yMax="1588">
      <contour>
        <pt x="142" y="226" on="1"/>
        <pt x="142" y="1588" on="1"/>
        <pt x="842" y="1588" on="1"/>
        <pt x="842" y="226" on="1"/>
      </contour>
      <contour>
        <pt x="284" y="368" on="1"/>
        <pt x="700" y="368" on="1"/>
        <pt x="700" y="1447" on="1"/>
        <pt x="284" y="1447" on="1"/>
      </contour>
    </TTGlyph>
    <TTGlyph name="gafinitialarabic" xMin="142" yMin="226" xMax="842" yMax="1588">
      <contour>
        <pt x="142" y="226" on="1"/>
        <pt x="142" y="1588" on="1"/>
        <pt x="842" y="1588" on="1"/>
        <pt x="842" y="226" on="1"/>
      </contour>
      <contour>
        <pt x="284" y="368" on="1"/>
        <pt x="700" y="368" on="1"/>
        <pt x="700" y="1447" on="1"/>
        <pt x="284" y="1447" on="1"/>
      </contour>
    </TTGlyph>
    <TTGlyph name="gafmedialarabic" xMin="142" yMin="226" xMax="842" yMax="1588">
      <contour>
        <pt x="142" y="226" on="1"/>
        <pt x="142" y="1588" on="1"/>
        <pt x="842" y="1588" on="1"/>
        <pt x="842" y="226" on="1"/>
      </contour>
      <contour>
        <pt x="284" y="368" on="1"/>
        <pt x="700" y="368" on="1"/>
        <pt x="700" y="1447" on="1"/>
        <pt x="284" y="1447" on="1"/>
      </contour>
    </TTGlyph>
    <TTGlyph name="glyph41" xMin="142" yMin="226" xMax="842" yMax="1588">
      <contour>
        <pt x="142" y="226" on="1"/>
        <pt x="142" y="1588" on="1"/>
        <pt x="842" y="1588" on="1"/>
        <pt x="842" y="226" on="1"/>
      </contour>
      <contour>
        <pt x="284" y="368" on="1"/>
        <pt x="700" y="368" on="1"/>
        <pt x="700" y="1447" on="1"/>
        <pt x="284" y="1447" on="1"/>
      </contour>
    </TTGlyph>
    <TTGlyph name="glyph42" xMin="142" yMin="226" xMax="842" yMax="1588">
      <contour>
        <pt x="142" y="226" on="1"/>
        <pt x="142" y="1588" on="1"/>
        <pt x="842" y="1588" on="1"/>
        <pt x="842" y="226" on="1"/>
      </contour>
      <contour>
        <pt x="284" y="368" on="1"/>
        <pt x="700" y="368" on="1"/>
        <pt x="700" y="1447" on="1"/>
        <pt x="284" y="1447" on="1"/>
      </contour>
    </TTGlyph>
    <TTGlyph name="glyph43" xMin="142" yMin="226" xMax="842" yMax="1588">
      <contour>
        <pt x="142" y="226" on="1"/>
        <pt x="142" y="1588" on="1"/>
        <pt x="842" y="1588" on="1"/>
        <pt x="842" y="226" on="1"/>
      </contour>
      <contour>
        <pt x="284" y="368" on="1"/>
        <pt x="700" y="368" on="1"/>
        <pt x="700" y="1447" on="1"/>
        <pt x="284" y="1447" on="1"/>
      </contour>
    </TTGlyph>
    <TTGlyph name="glyph44" xMin="142" yMin="226" xMax="842" yMax="1588">
      <contour>
        <pt x="142" y="226" on="1"/>
        <pt x="142" y="1588" on="1"/>
        <pt x="842" y="1588" on="1"/>
        <pt x="842" y="226" on="1"/>
      </contour>
      <contour>
        <pt x="284" y="368" on="1"/>
        <pt x="700" y="368" on="1"/>
        <pt x="700" y="1447" on="1"/>
        <pt x="284" y="1447" on="1"/>
      </contour>
    </TTGlyph>
    <TTGlyph name="glyph45" xMin="142" yMin="226" xMax="842" yMax="1588">
      <contour>
        <pt x="142" y="226" on="1"/>
        <pt x="142" y="1588" on="1"/>
        <pt x="842" y="1588" on="1"/>
        <pt x="842" y="226" on="1"/>
      </contour>
      <contour>
        <pt x="284" y="368" on="1"/>
        <pt x="700" y="368" on="1"/>
        <pt x="700" y="1447" on="1"/>
        <pt x="284" y="1447" on="1"/>
      </contour>
    </TTGlyph>
    <TTGlyph name="glyph46" xMin="142" yMin="226" xMax="842" yMax="1588">
      <contour>
        <pt x="142" y="226" on="1"/>
        <pt x="142" y="1588" on="1"/>
        <pt x="842" y="1588" on="1"/>
        <pt x="842" y="226" on="1"/>
      </contour>
      <contour>
        <pt x="284" y="368" on="1"/>
        <pt x="700" y="368" on="1"/>
        <pt x="700" y="1447" on="1"/>
        <pt x="284" y="1447" on="1"/>
      </contour>
    </TTGlyph>
    <TTGlyph name="glyph47" xMin="142" yMin="226" xMax="842" yMax="1588">
      <contour>
        <pt x="142" y="226" on="1"/>
        <pt x="142" y="1588" on="1"/>
        <pt x="842" y="1588" on="1"/>
        <pt x="842" y="226" on="1"/>
      </contour>
      <contour>
        <pt x="284" y="368" on="1"/>
        <pt x="700" y="368" on="1"/>
        <pt x="700" y="1447" on="1"/>
        <pt x="284" y="1447" on="1"/>
      </contour>
    </TTGlyph>
    <TTGlyph name="glyph48" xMin="142" yMin="226" xMax="842" yMax="1588">
      <contour>
        <pt x="142" y="226" on="1"/>
        <pt x="142" y="1588" on="1"/>
        <pt x="842" y="1588" on="1"/>
        <pt x="842" y="226" on="1"/>
      </contour>
      <contour>
        <pt x="284" y="368" on="1"/>
        <pt x="700" y="368" on="1"/>
        <pt x="700" y="1447" on="1"/>
        <pt x="284" y="1447" on="1"/>
      </contour>
    </TTGlyph>
    <TTGlyph name="glyph50" xMin="142" yMin="226" xMax="842" yMax="1588">
      <contour>
        <pt x="142" y="226" on="1"/>
        <pt x="142" y="1588" on="1"/>
        <pt x="842" y="1588" on="1"/>
        <pt x="842" y="226" on="1"/>
      </contour>
      <contour>
        <pt x="284" y="368" on="1"/>
        <pt x="700" y="368" on="1"/>
        <pt x="700" y="1447" on="1"/>
        <pt x="284" y="1447" on="1"/>
      </contour>
    </TTGlyph>
    <TTGlyph name="glyph51" xMin="142" yMin="226" xMax="842" yMax="1588">
      <contour>
        <pt x="142" y="226" on="1"/>
        <pt x="142" y="1588" on="1"/>
        <pt x="842" y="1588" on="1"/>
        <pt x="842" y="226" on="1"/>
      </contour>
      <contour>
        <pt x="284" y="368" on="1"/>
        <pt x="700" y="368" on="1"/>
        <pt x="700" y="1447" on="1"/>
        <pt x="284" y="1447" on="1"/>
      </contour>
    </TTGlyph>
    <TTGlyph name="greater" xMin="142" yMin="226" xMax="842" yMax="1588">
      <contour>
        <pt x="142" y="226" on="1"/>
        <pt x="142" y="1588" on="1"/>
        <pt x="842" y="1588" on="1"/>
        <pt x="842" y="226" on="1"/>
      </contour>
      <contour>
        <pt x="284" y="368" on="1"/>
        <pt x="700" y="368" on="1"/>
        <pt x="700" y="1447" on="1"/>
        <pt x="284" y="1447" on="1"/>
      </contour>
    </TTGlyph>
    <TTGlyph name="hahhamzabovefinal" xMin="142" yMin="226" xMax="842" yMax="1588">
      <contour>
        <pt x="142" y="226" on="1"/>
        <pt x="142" y="1588" on="1"/>
        <pt x="842" y="1588" on="1"/>
        <pt x="842" y="226" on="1"/>
      </contour>
      <contour>
        <pt x="284" y="368" on="1"/>
        <pt x="700" y="368" on="1"/>
        <pt x="700" y="1447" on="1"/>
        <pt x="284" y="1447" on="1"/>
      </contour>
    </TTGlyph>
    <TTGlyph name="hahhamzaboveinitial" xMin="142" yMin="226" xMax="842" yMax="1588">
      <contour>
        <pt x="142" y="226" on="1"/>
        <pt x="142" y="1588" on="1"/>
        <pt x="842" y="1588" on="1"/>
        <pt x="842" y="226" on="1"/>
      </contour>
      <contour>
        <pt x="284" y="368" on="1"/>
        <pt x="700" y="368" on="1"/>
        <pt x="700" y="1447" on="1"/>
        <pt x="284" y="1447" on="1"/>
      </contour>
    </TTGlyph>
    <TTGlyph name="hahhamzabovemedial" xMin="142" yMin="226" xMax="842" yMax="1588">
      <contour>
        <pt x="142" y="226" on="1"/>
        <pt x="142" y="1588" on="1"/>
        <pt x="842" y="1588" on="1"/>
        <pt x="842" y="226" on="1"/>
      </contour>
      <contour>
        <pt x="284" y="368" on="1"/>
        <pt x="700" y="368" on="1"/>
        <pt x="700" y="1447" on="1"/>
        <pt x="284" y="1447" on="1"/>
      </contour>
    </TTGlyph>
    <TTGlyph name="hahthreedotsabovefinal" xMin="142" yMin="226" xMax="842" yMax="1588">
      <contour>
        <pt x="142" y="226" on="1"/>
        <pt x="142" y="1588" on="1"/>
        <pt x="842" y="1588" on="1"/>
        <pt x="842" y="226" on="1"/>
      </contour>
      <contour>
        <pt x="284" y="368" on="1"/>
        <pt x="700" y="368" on="1"/>
        <pt x="700" y="1447" on="1"/>
        <pt x="284" y="1447" on="1"/>
      </contour>
    </TTGlyph>
    <TTGlyph name="hahthreedotsaboveinitial" xMin="142" yMin="226" xMax="842" yMax="1588">
      <contour>
        <pt x="142" y="226" on="1"/>
        <pt x="142" y="1588" on="1"/>
        <pt x="842" y="1588" on="1"/>
        <pt x="842" y="226" on="1"/>
      </contour>
      <contour>
        <pt x="284" y="368" on="1"/>
        <pt x="700" y="368" on="1"/>
        <pt x="700" y="1447" on="1"/>
        <pt x="284" y="1447" on="1"/>
      </contour>
    </TTGlyph>
    <TTGlyph name="hahthreedotsabovemedial" xMin="142" yMin="226" xMax="842" yMax="1588">
      <contour>
        <pt x="142" y="226" on="1"/>
        <pt x="142" y="1588" on="1"/>
        <pt x="842" y="1588" on="1"/>
        <pt x="842" y="226" on="1"/>
      </contour>
      <contour>
        <pt x="284" y="368" on="1"/>
        <pt x="700" y="368" on="1"/>
        <pt x="700" y="1447" on="1"/>
        <pt x="284" y="1447" on="1"/>
      </contour>
    </TTGlyph>
    <TTGlyph name="hehdoachashmeefinalarabic" xMin="142" yMin="226" xMax="842" yMax="1588">
      <contour>
        <pt x="142" y="226" on="1"/>
        <pt x="142" y="1588" on="1"/>
        <pt x="842" y="1588" on="1"/>
        <pt x="842" y="226" on="1"/>
      </contour>
      <contour>
        <pt x="284" y="368" on="1"/>
        <pt x="700" y="368" on="1"/>
        <pt x="700" y="1447" on="1"/>
        <pt x="284" y="1447" on="1"/>
      </contour>
    </TTGlyph>
    <TTGlyph name="hehdoachashmeeinitialarabic" xMin="142" yMin="226" xMax="842" yMax="1588">
      <contour>
        <pt x="142" y="226" on="1"/>
        <pt x="142" y="1588" on="1"/>
        <pt x="842" y="1588" on="1"/>
        <pt x="842" y="226" on="1"/>
      </contour>
      <contour>
        <pt x="284" y="368" on="1"/>
        <pt x="700" y="368" on="1"/>
        <pt x="700" y="1447" on="1"/>
        <pt x="284" y="1447" on="1"/>
      </contour>
    </TTGlyph>
    <TTGlyph name="hehdoachashmeemedialarabic" xMin="142" yMin="226" xMax="842" yMax="1588">
      <contour>
        <pt x="142" y="226" on="1"/>
        <pt x="142" y="1588" on="1"/>
        <pt x="842" y="1588" on="1"/>
        <pt x="842" y="226" on="1"/>
      </contour>
      <contour>
        <pt x="284" y="368" on="1"/>
        <pt x="700" y="368" on="1"/>
        <pt x="700" y="1447" on="1"/>
        <pt x="284" y="1447" on="1"/>
      </contour>
    </TTGlyph>
    <TTGlyph name="hehfinalaltonearabic" xMin="142" yMin="226" xMax="842" yMax="1588">
      <contour>
        <pt x="142" y="226" on="1"/>
        <pt x="142" y="1588" on="1"/>
        <pt x="842" y="1588" on="1"/>
        <pt x="842" y="226" on="1"/>
      </contour>
      <contour>
        <pt x="284" y="368" on="1"/>
        <pt x="700" y="368" on="1"/>
        <pt x="700" y="1447" on="1"/>
        <pt x="284" y="1447" on="1"/>
      </contour>
    </TTGlyph>
    <TTGlyph name="hehhamzaabovefinalarabic" xMin="142" yMin="226" xMax="842" yMax="1588">
      <contour>
        <pt x="142" y="226" on="1"/>
        <pt x="142" y="1588" on="1"/>
        <pt x="842" y="1588" on="1"/>
        <pt x="842" y="226" on="1"/>
      </contour>
      <contour>
        <pt x="284" y="368" on="1"/>
        <pt x="700" y="368" on="1"/>
        <pt x="700" y="1447" on="1"/>
        <pt x="284" y="1447" on="1"/>
      </contour>
    </TTGlyph>
    <TTGlyph name="hehinitialaltonearabic" xMin="142" yMin="226" xMax="842" yMax="1588">
      <contour>
        <pt x="142" y="226" on="1"/>
        <pt x="142" y="1588" on="1"/>
        <pt x="842" y="1588" on="1"/>
        <pt x="842" y="226" on="1"/>
      </contour>
      <contour>
        <pt x="284" y="368" on="1"/>
        <pt x="700" y="368" on="1"/>
        <pt x="700" y="1447" on="1"/>
        <pt x="284" y="1447" on="1"/>
      </contour>
    </TTGlyph>
    <TTGlyph name="hehmedialaltonearabic" xMin="142" yMin="226" xMax="842" yMax="1588">
      <contour>
        <pt x="142" y="226" on="1"/>
        <pt x="142" y="1588" on="1"/>
        <pt x="842" y="1588" on="1"/>
        <pt x="842" y="226" on="1"/>
      </contour>
      <contour>
        <pt x="284" y="368" on="1"/>
        <pt x="700" y="368" on="1"/>
        <pt x="700" y="1447" on="1"/>
        <pt x="284" y="1447" on="1"/>
      </contour>
    </TTGlyph>
    <TTGlyph name="hyphen" xMin="353" yMin="-462" xMax="3690" yMax="1636">
      <contour>
        <pt x="3629" y="1534" on="1"/>
        <pt x="3629" y="1470" on="0"/>
        <pt x="3391" y="1366" on="1"/>
        <pt x="3388" y="1365" on="0"/>
        <pt x="3132" y="1237" on="1"/>
        <pt x="3117" y="1251" on="0"/>
        <pt x="3117" y="1272" on="1"/>
        <pt x="3117" y="1320" on="0"/>
        <pt x="3224" y="1380" on="1"/>
        <pt x="3226" y="1381" on="0"/>
        <pt x="3376" y="1454" on="1"/>
        <pt x="3459" y="1502" on="0"/>
        <pt x="3615" y="1575" on="1"/>
        <pt x="3629" y="1561" on="0"/>
      </contour>
      <contour>
        <pt x="3568" y="1063" on="1"/>
        <pt x="3568" y="1026" on="0"/>
        <pt x="3525" y="995" on="1"/>
        <pt x="3490" y="971" on="0"/>
        <pt x="3471" y="971" on="1"/>
        <pt x="3448" y="971" on="0"/>
        <pt x="3383" y="1036" on="0"/>
        <pt x="3383" y="1058" on="1"/>
        <pt x="3383" y="1076" on="0"/>
        <pt x="3463" y="1144" on="0"/>
        <pt x="3481" y="1144" on="1"/>
        <pt x="3534" y="1144" on="0"/>
      </contour>
      <contour>
        <pt x="3690" y="878" on="1"/>
        <pt x="3690" y="845" on="0"/>
        <pt x="3649" y="813" on="1"/>
        <pt x="3613" y="786" on="0"/>
        <pt x="3594" y="786" on="1"/>
        <pt x="3582" y="786" on="0"/>
        <pt x="3509" y="817" on="0"/>
        <pt x="3496" y="817" on="1"/>
        <pt x="3483" y="817" on="0"/>
        <pt x="3412" y="766" on="0"/>
        <pt x="3399" y="766" on="1"/>
        <pt x="3345" y="766" on="0"/>
        <pt x="3291" y="842" on="1"/>
        <pt x="3355" y="940" on="0"/>
        <pt x="3399" y="940" on="1"/>
        <pt x="3410" y="940" on="0"/>
        <pt x="3468" y="909" on="0"/>
        <pt x="3481" y="909" on="1"/>
        <pt x="3494" y="909" on="0"/>
        <pt x="3576" y="971" on="0"/>
        <pt x="3588" y="971" on="1"/>
        <pt x="3608" y="971" on="0"/>
        <pt x="3690" y="897" on="0"/>
      </contour>
      <contour>
        <pt x="3005" y="1518" on="1"/>
        <pt x="3005" y="1464" on="0"/>
        <pt x="2799" y="1357" on="1"/>
        <pt x="2524" y="1214" on="0"/>
        <pt x="2499" y="1196" on="1"/>
        <pt x="2455" y="1196" on="1"/>
        <pt x="2442" y="1209" on="0"/>
        <pt x="2442" y="1226" on="1"/>
        <pt x="2442" y="1276" on="0"/>
        <pt x="2544" y="1332" on="1"/>
        <pt x="2607" y="1362" on="0"/>
        <pt x="2670" y="1392" on="1"/>
        <pt x="2737" y="1435" on="0"/>
        <pt x="2885" y="1509" on="1"/>
        <pt x="2919" y="1526" on="0"/>
        <pt x="2992" y="1553" on="1"/>
        <pt x="2992" y="1550" on="0"/>
        <pt x="3005" y="1533" on="0"/>
      </contour>
      <contour>
        <pt x="2513" y="561" on="1"/>
        <pt x="2513" y="505" on="0"/>
        <pt x="2480" y="449" on="1"/>
        <pt x="2450" y="453" on="0"/>
        <pt x="2427" y="575" on="1"/>
        <pt x="2421" y="614" on="0"/>
        <pt x="2387" y="676" on="1"/>
        <pt x="2375" y="699" on="0"/>
        <pt x="2335" y="743" on="1"/>
        <pt x="2308" y="773" on="0"/>
        <pt x="2308" y="801" on="1"/>
        <pt x="2308" y="833" on="0"/>
        <pt x="2344" y="868" on="1"/>
        <pt x="2417" y="838" on="0"/>
        <pt x="2467" y="740" on="1"/>
        <pt x="2513" y="650" on="0"/>
      </contour>
      <contour>
        <pt x="1664" y="1457" on="1"/>
        <pt x="1664" y="1411" on="0"/>
        <pt x="1450" y="1294" on="1"/>
        <pt x="1323" y="1230" on="0"/>
        <pt x="1196" y="1165" on="1"/>
        <pt x="1195" y="1167" on="0"/>
        <pt x="1176" y="1180" on="1"/>
        <pt x="1162" y="1191" on="0"/>
        <pt x="1162" y="1206" on="1"/>
        <pt x="1162" y="1223" on="0"/>
        <pt x="1202" y="1278" on="0"/>
        <pt x="1216" y="1284" on="1"/>
        <pt x="1298" y="1316" on="0"/>
        <pt x="1390" y="1362" on="1"/>
        <pt x="1474" y="1407" on="0"/>
        <pt x="1651" y="1492" on="1"/>
        <pt x="1651" y="1488" on="0"/>
        <pt x="1664" y="1471" on="0"/>
      </contour>
      <contour>
        <pt x="2063" y="668" on="1"/>
        <pt x="2063" y="633" on="0"/>
        <pt x="2019" y="605" on="1"/>
        <pt x="1984" y="582" on="0"/>
        <pt x="1965" y="582" on="1"/>
        <pt x="1936" y="582" on="0"/>
        <pt x="1904" y="608" on="1"/>
        <pt x="1869" y="636" on="0"/>
        <pt x="1869" y="668" on="1"/>
        <pt x="1869" y="691" on="0"/>
        <pt x="1935" y="755" on="0"/>
        <pt x="1960" y="755" on="1"/>
        <pt x="1994" y="755" on="0"/>
        <pt x="2063" y="693" on="0"/>
      </contour>
      <contour>
        <pt x="3690" y="336" on="1"/>
        <pt x="3690" y="187" on="0"/>
        <pt x="3628" y="125" on="1"/>
        <pt x="3579" y="76" on="0"/>
        <pt x="3461" y="61" on="1"/>
        <pt x="3339" y="48" on="0"/>
        <pt x="3217" y="35" on="1"/>
        <pt x="3178" y="-10" on="0"/>
        <pt x="3156" y="-19" on="1"/>
        <pt x="3148" y="-22" on="0"/>
        <pt x="3107" y="-22" on="1"/>
        <pt x="3094" y="-22" on="0"/>
        <pt x="2910" y="-12" on="0"/>
        <pt x="2897" y="-12" on="1"/>
        <pt x="2868" y="-12" on="0"/>
        <pt x="2816" y="15" on="1"/>
        <pt x="2756" y="46" on="0"/>
        <pt x="2742" y="80" on="1"/>
        <pt x="2553" y="-12" on="0"/>
        <pt x="2324" y="-12" on="1"/>
        <pt x="2222" y="-12" on="0"/>
        <pt x="2127" y="21" on="1"/>
        <pt x="2101" y="30" on="0"/>
        <pt x="2037" y="78" on="1"/>
        <pt x="1978" y="120" on="0"/>
        <pt x="1971" y="120" on="1"/>
        <pt x="1943" y="120" on="0"/>
        <pt x="1824" y="-22" on="0"/>
        <pt x="1766" y="-22" on="1"/>
        <pt x="1755" y="-22" on="0"/>
        <pt x="1554" y="49" on="0"/>
        <pt x="1541" y="49" on="1"/>
        <pt x="1531" y="49" on="0"/>
        <pt x="1474" y="14" on="1"/>
        <pt x="1415" y="-23" on="0"/>
        <pt x="1383" y="-30" on="1"/>
        <pt x="1318" y="-43" on="0"/>
        <pt x="1229" y="-43" on="1"/>
        <pt x="934" y="-43" on="0"/>
        <pt x="892" y="237" on="1"/>
        <pt x="886" y="251" on="0"/>
        <pt x="870" y="274" on="1"/>
        <pt x="668" y="131" on="0"/>
        <pt x="599" y="131" on="1"/>
        <pt x="569" y="131" on="0"/>
        <pt x="472" y="152" on="1"/>
        <pt x="372" y="173" on="0"/>
        <pt x="353" y="184" on="1"/>
        <pt x="385" y="325" on="0"/>
        <pt x="558" y="449" on="1"/>
        <pt x="684" y="529" on="0"/>
        <pt x="811" y="609" on="1"/>
        <pt x="810" y="667" on="0"/>
        <pt x="816" y="782" on="1"/>
        <pt x="822" y="839" on="0"/>
        <pt x="858" y="868" on="1"/>
        <pt x="876" y="868" on="0"/>
        <pt x="891" y="844" on="1"/>
        <pt x="894" y="796" on="0"/>
        <pt x="908" y="700" on="1"/>
        <pt x="935" y="555" on="0"/>
        <pt x="961" y="410" on="1"/>
        <pt x="990" y="263" on="0"/>
        <pt x="1043" y="201" on="1"/>
        <pt x="1113" y="120" on="0"/>
        <pt x="1264" y="120" on="1"/>
        <pt x="1401" y="120" on="0"/>
        <pt x="1461" y="153" on="1"/>
        <pt x="1488" y="168" on="0"/>
        <pt x="1533" y="261" on="1"/>
        <pt x="1549" y="293" on="0"/>
        <pt x="1600" y="293" on="1"/>
        <pt x="1608" y="265" on="0"/>
        <pt x="1614" y="170" on="1"/>
        <pt x="1667" y="141" on="0"/>
        <pt x="1751" y="141" on="1"/>
        <pt x="1861" y="141" on="0"/>
        <pt x="1968" y="284" on="0"/>
        <pt x="2012" y="284" on="1"/>
        <pt x="2021" y="284" on="0"/>
        <pt x="2101" y="231" on="1"/>
        <pt x="2186" y="174" on="0"/>
        <pt x="2223" y="164" on="1"/>
        <pt x="2268" y="152" on="0"/>
        <pt x="2577" y="152" on="0"/>
        <pt x="2554" y="150" on="1"/>
        <pt x="2644" y="156" on="0"/>
        <pt x="2711" y="194" on="1"/>
        <pt x="2722" y="202" on="0"/>
        <pt x="2807" y="302" on="1"/>
        <pt x="2877" y="387" on="0"/>
        <pt x="2928" y="387" on="1"/>
        <pt x="2946" y="387" on="0"/>
        <pt x="3173" y="202" on="0"/>
        <pt x="3276" y="202" on="1"/>
        <pt x="3361" y="202" on="0"/>
        <pt x="3446" y="217" on="1"/>
        <pt x="3588" y="241" on="0"/>
        <pt x="3588" y="295" on="1"/>
        <pt x="3588" y="339" on="0"/>
        <pt x="3533" y="390" on="1"/>
        <pt x="3469" y="449" on="0"/>
        <pt x="3468" y="451" on="1"/>
        <pt x="3455" y="483" on="0"/>
        <pt x="3455" y="505" on="1"/>
        <pt x="3455" y="515" on="0"/>
        <pt x="3477" y="588" on="0"/>
        <pt x="3477" y="610" on="1"/>
        <pt x="3481" y="610" on="0"/>
        <pt x="3497" y="623" on="0"/>
        <pt x="3512" y="623" on="1"/>
        <pt x="3541" y="623" on="0"/>
        <pt x="3610" y="530" on="1"/>
        <pt x="3676" y="442" on="0"/>
        <pt x="3686" y="404" on="1"/>
        <pt x="3690" y="389" on="0"/>
      </contour>
      <contour>
        <pt x="926" y="1611" on="1"/>
        <pt x="914" y="1582" on="0"/>
        <pt x="890" y="1545" on="1"/>
        <pt x="801" y="1485" on="0"/>
        <pt x="663" y="1416" on="1"/>
        <pt x="547" y="1357" on="0"/>
        <pt x="431" y="1298" on="1"/>
        <pt x="396" y="1298" on="1"/>
        <pt x="383" y="1300" on="0"/>
        <pt x="383" y="1324" on="1"/>
        <pt x="383" y="1368" on="0"/>
        <pt x="409" y="1385" on="1"/>
        <pt x="460" y="1421" on="0"/>
        <pt x="545" y="1461" on="1"/>
        <pt x="614" y="1493" on="0"/>
        <pt x="683" y="1525" on="1"/>
        <pt x="760" y="1569" on="0"/>
        <pt x="902" y="1636" on="1"/>
      </contour>
      <contour>
        <pt x="947" y="1135" on="1"/>
        <pt x="947" y="1101" on="0"/>
        <pt x="903" y="1069" on="1"/>
        <pt x="867" y="1042" on="0"/>
        <pt x="849" y="1042" on="1"/>
        <pt x="838" y="1042" on="0"/>
        <pt x="765" y="1083" on="0"/>
        <pt x="752" y="1083" on="1"/>
        <pt x="740" y="1083" on="0"/>
        <pt x="663" y="1012" on="0"/>
        <pt x="650" y="1012" on="1"/>
        <pt x="615" y="1012" on="0"/>
        <pt x="547" y="1063" on="0"/>
        <pt x="547" y="1083" on="1"/>
        <pt x="547" y="1112" on="0"/>
        <pt x="591" y="1151" on="1"/>
        <pt x="631" y="1185" on="0"/>
        <pt x="645" y="1185" on="1"/>
        <pt x="650" y="1185" on="0"/>
        <pt x="727" y="1135" on="1"/>
        <pt x="836" y="1217" on="0"/>
        <pt x="845" y="1217" on="1"/>
        <pt x="876" y="1217" on="0"/>
        <pt x="914" y="1179" on="1"/>
        <pt x="947" y="1147" on="0"/>
      </contour>
      <contour>
        <pt x="2399" y="-246" on="1"/>
        <pt x="2299" y="-314" on="0"/>
        <pt x="2156" y="-374" on="1"/>
        <pt x="2040" y="-418" on="0"/>
        <pt x="1924" y="-462" on="1"/>
        <pt x="1910" y="-451" on="0"/>
        <pt x="1900" y="-451" on="1"/>
        <pt x="1900" y="-417" on="1"/>
        <pt x="1899" y="-385" on="0"/>
        <pt x="1943" y="-364" on="1"/>
        <pt x="2329" y="-186" on="0"/>
        <pt x="2354" y="-186" on="1"/>
        <pt x="2367" y="-186" on="0"/>
        <pt x="2390" y="-197" on="0"/>
        <pt x="2399" y="-196" on="1"/>
      </contour>
      <contour>
        <pt x="1715" y="-319" on="1"/>
        <pt x="1715" y="-338" on="0"/>
        <pt x="1637" y="-412" on="0"/>
        <pt x="1617" y="-412" on="1"/>
        <pt x="1605" y="-412" on="0"/>
        <pt x="1538" y="-380" on="0"/>
        <pt x="1525" y="-380" on="1"/>
        <pt x="1512" y="-380" on="0"/>
        <pt x="1430" y="-442" on="0"/>
        <pt x="1418" y="-442" on="1"/>
        <pt x="1386" y="-442" on="0"/>
        <pt x="1348" y="-398" on="1"/>
        <pt x="1316" y="-359" on="0"/>
        <pt x="1316" y="-344" on="1"/>
        <pt x="1316" y="-327" on="0"/>
        <pt x="1402" y="-258" on="0"/>
        <pt x="1423" y="-258" on="1"/>
        <pt x="1434" y="-258" on="0"/>
        <pt x="1498" y="-309" on="0"/>
        <pt x="1510" y="-309" on="1"/>
        <pt x="1523" y="-309" on="0"/>
        <pt x="1610" y="-237" on="0"/>
        <pt x="1623" y="-237" on="1"/>
        <pt x="1647" y="-237" on="0"/>
        <pt x="1715" y="-302" on="0"/>
      </contour>
      <contour>
        <pt x="2942" y="163" on="1"/>
        <pt x="2906" y="255" on="0"/>
        <pt x="2874" y="253" on="1"/>
        <pt x="2851" y="230" on="0"/>
        <pt x="2851" y="213" on="1"/>
        <pt x="2851" y="196" on="0"/>
        <pt x="2893" y="162" on="0"/>
        <pt x="2909" y="163" on="1"/>
      </contour>
      <contour>
        <pt x="854" y="407" on="1"/>
        <pt x="854" y="423" on="0"/>
        <pt x="845" y="446" on="1"/>
        <pt x="831" y="479" on="0"/>
        <pt x="808" y="479" on="1"/>
        <pt x="780" y="479" on="0"/>
        <pt x="540" y="340" on="0"/>
        <pt x="517" y="309" on="1"/>
        <pt x="555" y="284" on="0"/>
        <pt x="619" y="284" on="1"/>
        <pt x="712" y="284" on="0"/>
        <pt x="749" y="297" on="1"/>
        <pt x="854" y="335" on="0"/>
      </contour>
    </TTGlyph>
    <TTGlyph name="irghizufinal" xMin="142" yMin="226" xMax="842" yMax="1588">
      <contour>
        <pt x="142" y="226" on="1"/>
        <pt x="142" y="1588" on="1"/>
        <pt x="842" y="1588" on="1"/>
        <pt x="842" y="226" on="1"/>
      </contour>
      <contour>
        <pt x="284" y="368" on="1"/>
        <pt x="700" y="368" on="1"/>
        <pt x="700" y="1447" on="1"/>
        <pt x="284" y="1447" on="1"/>
      </contour>
    </TTGlyph>
    <TTGlyph name="jehfinalarabic" xMin="142" yMin="226" xMax="842" yMax="1588">
      <contour>
        <pt x="142" y="226" on="1"/>
        <pt x="142" y="1588" on="1"/>
        <pt x="842" y="1588" on="1"/>
        <pt x="842" y="226" on="1"/>
      </contour>
      <contour>
        <pt x="284" y="368" on="1"/>
        <pt x="700" y="368" on="1"/>
        <pt x="700" y="1447" on="1"/>
        <pt x="284" y="1447" on="1"/>
      </contour>
    </TTGlyph>
    <TTGlyph name="kafringfinal" xMin="142" yMin="226" xMax="842" yMax="1588">
      <contour>
        <pt x="142" y="226" on="1"/>
        <pt x="142" y="1588" on="1"/>
        <pt x="842" y="1588" on="1"/>
        <pt x="842" y="226" on="1"/>
      </contour>
      <contour>
        <pt x="284" y="368" on="1"/>
        <pt x="700" y="368" on="1"/>
        <pt x="700" y="1447" on="1"/>
        <pt x="284" y="1447" on="1"/>
      </contour>
    </TTGlyph>
    <TTGlyph name="kafringinitial" xMin="142" yMin="226" xMax="842" yMax="1588">
      <contour>
        <pt x="142" y="226" on="1"/>
        <pt x="142" y="1588" on="1"/>
        <pt x="842" y="1588" on="1"/>
        <pt x="842" y="226" on="1"/>
      </contour>
      <contour>
        <pt x="284" y="368" on="1"/>
        <pt x="700" y="368" on="1"/>
        <pt x="700" y="1447" on="1"/>
        <pt x="284" y="1447" on="1"/>
      </contour>
    </TTGlyph>
    <TTGlyph name="kafringmedial" xMin="142" yMin="226" xMax="842" yMax="1588">
      <contour>
        <pt x="142" y="226" on="1"/>
        <pt x="142" y="1588" on="1"/>
        <pt x="842" y="1588" on="1"/>
        <pt x="842" y="226" on="1"/>
      </contour>
      <contour>
        <pt x="284" y="368" on="1"/>
        <pt x="700" y="368" on="1"/>
        <pt x="700" y="1447" on="1"/>
        <pt x="284" y="1447" on="1"/>
      </contour>
    </TTGlyph>
    <TTGlyph name="kashidaautoarabic" xMin="142" yMin="226" xMax="842" yMax="1588">
      <contour>
        <pt x="142" y="226" on="1"/>
        <pt x="142" y="1588" on="1"/>
        <pt x="842" y="1588" on="1"/>
        <pt x="842" y="226" on="1"/>
      </contour>
      <contour>
        <pt x="284" y="368" on="1"/>
        <pt x="700" y="368" on="1"/>
        <pt x="700" y="1447" on="1"/>
        <pt x="284" y="1447" on="1"/>
      </contour>
    </TTGlyph>
    <TTGlyph name="kashidaautonosidebearingarabic" xMin="142" yMin="226" xMax="842" yMax="1588">
      <contour>
        <pt x="142" y="226" on="1"/>
        <pt x="142" y="1588" on="1"/>
        <pt x="842" y="1588" on="1"/>
        <pt x="842" y="226" on="1"/>
      </contour>
      <contour>
        <pt x="284" y="368" on="1"/>
        <pt x="700" y="368" on="1"/>
        <pt x="700" y="1447" on="1"/>
        <pt x="284" y="1447" on="1"/>
      </contour>
    </TTGlyph>
    <TTGlyph name="kehehfinalarabic" xMin="142" yMin="226" xMax="842" yMax="1588">
      <contour>
        <pt x="142" y="226" on="1"/>
        <pt x="142" y="1588" on="1"/>
        <pt x="842" y="1588" on="1"/>
        <pt x="842" y="226" on="1"/>
      </contour>
      <contour>
        <pt x="284" y="368" on="1"/>
        <pt x="700" y="368" on="1"/>
        <pt x="700" y="1447" on="1"/>
        <pt x="284" y="1447" on="1"/>
      </contour>
    </TTGlyph>
    <TTGlyph name="kehehinitialarabic" xMin="142" yMin="226" xMax="842" yMax="1588">
      <contour>
        <pt x="142" y="226" on="1"/>
        <pt x="142" y="1588" on="1"/>
        <pt x="842" y="1588" on="1"/>
        <pt x="842" y="226" on="1"/>
      </contour>
      <contour>
        <pt x="284" y="368" on="1"/>
        <pt x="700" y="368" on="1"/>
        <pt x="700" y="1447" on="1"/>
        <pt x="284" y="1447" on="1"/>
      </contour>
    </TTGlyph>
    <TTGlyph name="kehehmedialarabic" xMin="142" yMin="226" xMax="842" yMax="1588">
      <contour>
        <pt x="142" y="226" on="1"/>
        <pt x="142" y="1588" on="1"/>
        <pt x="842" y="1588" on="1"/>
        <pt x="842" y="226" on="1"/>
      </contour>
      <contour>
        <pt x="284" y="368" on="1"/>
        <pt x="700" y="368" on="1"/>
        <pt x="700" y="1447" on="1"/>
        <pt x="284" y="1447" on="1"/>
      </contour>
    </TTGlyph>
    <TTGlyph name="kirghizyifinal" xMin="142" yMin="226" xMax="842" yMax="1588">
      <contour>
        <pt x="142" y="226" on="1"/>
        <pt x="142" y="1588" on="1"/>
        <pt x="842" y="1588" on="1"/>
        <pt x="842" y="226" on="1"/>
      </contour>
      <contour>
        <pt x="284" y="368" on="1"/>
        <pt x="700" y="368" on="1"/>
        <pt x="700" y="1447" on="1"/>
        <pt x="284" y="1447" on="1"/>
      </contour>
    </TTGlyph>
    <TTGlyph name="lammeemjeeminitialarabic" xMin="142" yMin="226" xMax="842" yMax="1588">
      <contour>
        <pt x="142" y="226" on="1"/>
        <pt x="142" y="1588" on="1"/>
        <pt x="842" y="1588" on="1"/>
        <pt x="842" y="226" on="1"/>
      </contour>
      <contour>
        <pt x="284" y="368" on="1"/>
        <pt x="700" y="368" on="1"/>
        <pt x="700" y="1447" on="1"/>
        <pt x="284" y="1447" on="1"/>
      </contour>
    </TTGlyph>
    <TTGlyph name="lammeemkhahinitialarabic" xMin="142" yMin="226" xMax="842" yMax="1588">
      <contour>
        <pt x="142" y="226" on="1"/>
        <pt x="142" y="1588" on="1"/>
        <pt x="842" y="1588" on="1"/>
        <pt x="842" y="226" on="1"/>
      </contour>
      <contour>
        <pt x="284" y="368" on="1"/>
        <pt x="700" y="368" on="1"/>
        <pt x="700" y="1447" on="1"/>
        <pt x="284" y="1447" on="1"/>
      </contour>
    </TTGlyph>
    <TTGlyph name="lamthreedotsabovefinal" xMin="142" yMin="226" xMax="842" yMax="1588">
      <contour>
        <pt x="142" y="226" on="1"/>
        <pt x="142" y="1588" on="1"/>
        <pt x="842" y="1588" on="1"/>
        <pt x="842" y="226" on="1"/>
      </contour>
      <contour>
        <pt x="284" y="368" on="1"/>
        <pt x="700" y="368" on="1"/>
        <pt x="700" y="1447" on="1"/>
        <pt x="284" y="1447" on="1"/>
      </contour>
    </TTGlyph>
    <TTGlyph name="lamthreedotsaboveinitial" xMin="142" yMin="226" xMax="842" yMax="1588">
      <contour>
        <pt x="142" y="226" on="1"/>
        <pt x="142" y="1588" on="1"/>
        <pt x="842" y="1588" on="1"/>
        <pt x="842" y="226" on="1"/>
      </contour>
      <contour>
        <pt x="284" y="368" on="1"/>
        <pt x="700" y="368" on="1"/>
        <pt x="700" y="1447" on="1"/>
        <pt x="284" y="1447" on="1"/>
      </contour>
    </TTGlyph>
    <TTGlyph name="lamthreedotsabovemedial" xMin="142" yMin="226" xMax="842" yMax="1588">
      <contour>
        <pt x="142" y="226" on="1"/>
        <pt x="142" y="1588" on="1"/>
        <pt x="842" y="1588" on="1"/>
        <pt x="842" y="226" on="1"/>
      </contour>
      <contour>
        <pt x="284" y="368" on="1"/>
        <pt x="700" y="368" on="1"/>
        <pt x="700" y="1447" on="1"/>
        <pt x="284" y="1447" on="1"/>
      </contour>
    </TTGlyph>
    <TTGlyph name="less" xMin="142" yMin="226" xMax="842" yMax="1588">
      <contour>
        <pt x="142" y="226" on="1"/>
        <pt x="142" y="1588" on="1"/>
        <pt x="842" y="1588" on="1"/>
        <pt x="842" y="226" on="1"/>
      </contour>
      <contour>
        <pt x="284" y="368" on="1"/>
        <pt x="700" y="368" on="1"/>
        <pt x="700" y="1447" on="1"/>
        <pt x="284" y="1447" on="1"/>
      </contour>
    </TTGlyph>
    <TTGlyph name="meemmeemisolatedarabic" xMin="142" yMin="226" xMax="842" yMax="1588">
      <contour>
        <pt x="142" y="226" on="1"/>
        <pt x="142" y="1588" on="1"/>
        <pt x="842" y="1588" on="1"/>
        <pt x="842" y="226" on="1"/>
      </contour>
      <contour>
        <pt x="284" y="368" on="1"/>
        <pt x="700" y="368" on="1"/>
        <pt x="700" y="1447" on="1"/>
        <pt x="284" y="1447" on="1"/>
      </contour>
    </TTGlyph>
    <TTGlyph name="multiply" xMin="142" yMin="226" xMax="842" yMax="1588">
      <contour>
        <pt x="142" y="226" on="1"/>
        <pt x="142" y="1588" on="1"/>
        <pt x="842" y="1588" on="1"/>
        <pt x="842" y="226" on="1"/>
      </contour>
      <contour>
        <pt x="284" y="368" on="1"/>
        <pt x="700" y="368" on="1"/>
        <pt x="700" y="1447" on="1"/>
        <pt x="284" y="1447" on="1"/>
      </contour>
    </TTGlyph>
    <TTGlyph name="noonghunnafinalarabic" xMin="142" yMin="226" xMax="842" yMax="1588">
      <contour>
        <pt x="142" y="226" on="1"/>
        <pt x="142" y="1588" on="1"/>
        <pt x="842" y="1588" on="1"/>
        <pt x="842" y="226" on="1"/>
      </contour>
      <contour>
        <pt x="284" y="368" on="1"/>
        <pt x="700" y="368" on="1"/>
        <pt x="700" y="1447" on="1"/>
        <pt x="284" y="1447" on="1"/>
      </contour>
    </TTGlyph>
    <TTGlyph name="noonjeemisolatedarabic" xMin="142" yMin="226" xMax="842" yMax="1588">
      <contour>
        <pt x="142" y="226" on="1"/>
        <pt x="142" y="1588" on="1"/>
        <pt x="842" y="1588" on="1"/>
        <pt x="842" y="226" on="1"/>
      </contour>
      <contour>
        <pt x="284" y="368" on="1"/>
        <pt x="700" y="368" on="1"/>
        <pt x="700" y="1447" on="1"/>
        <pt x="284" y="1447" on="1"/>
      </contour>
    </TTGlyph>
    <TTGlyph name="noonmeemisolatedarabic" xMin="142" yMin="226" xMax="842" yMax="1588">
      <contour>
        <pt x="142" y="226" on="1"/>
        <pt x="142" y="1588" on="1"/>
        <pt x="842" y="1588" on="1"/>
        <pt x="842" y="226" on="1"/>
      </contour>
      <contour>
        <pt x="284" y="368" on="1"/>
        <pt x="700" y="368" on="1"/>
        <pt x="700" y="1447" on="1"/>
        <pt x="284" y="1447" on="1"/>
      </contour>
    </TTGlyph>
    <TTGlyph name="noonringfinal" xMin="142" yMin="226" xMax="842" yMax="1588">
      <contour>
        <pt x="142" y="226" on="1"/>
        <pt x="142" y="1588" on="1"/>
        <pt x="842" y="1588" on="1"/>
        <pt x="842" y="226" on="1"/>
      </contour>
      <contour>
        <pt x="284" y="368" on="1"/>
        <pt x="700" y="368" on="1"/>
        <pt x="700" y="1447" on="1"/>
        <pt x="284" y="1447" on="1"/>
      </contour>
    </TTGlyph>
    <TTGlyph name="noonringinitial" xMin="142" yMin="226" xMax="842" yMax="1588">
      <contour>
        <pt x="142" y="226" on="1"/>
        <pt x="142" y="1588" on="1"/>
        <pt x="842" y="1588" on="1"/>
        <pt x="842" y="226" on="1"/>
      </contour>
      <contour>
        <pt x="284" y="368" on="1"/>
        <pt x="700" y="368" on="1"/>
        <pt x="700" y="1447" on="1"/>
        <pt x="284" y="1447" on="1"/>
      </contour>
    </TTGlyph>
    <TTGlyph name="noonringmedial" xMin="142" yMin="226" xMax="842" yMax="1588">
      <contour>
        <pt x="142" y="226" on="1"/>
        <pt x="142" y="1588" on="1"/>
        <pt x="842" y="1588" on="1"/>
        <pt x="842" y="226" on="1"/>
      </contour>
      <contour>
        <pt x="284" y="368" on="1"/>
        <pt x="700" y="368" on="1"/>
        <pt x="700" y="1447" on="1"/>
        <pt x="284" y="1447" on="1"/>
      </contour>
    </TTGlyph>
    <TTGlyph name="numbersign" xMin="142" yMin="226" xMax="842" yMax="1588">
      <contour>
        <pt x="142" y="226" on="1"/>
        <pt x="142" y="1588" on="1"/>
        <pt x="842" y="1588" on="1"/>
        <pt x="842" y="226" on="1"/>
      </contour>
      <contour>
        <pt x="284" y="368" on="1"/>
        <pt x="700" y="368" on="1"/>
        <pt x="700" y="1447" on="1"/>
        <pt x="284" y="1447" on="1"/>
      </contour>
    </TTGlyph>
    <TTGlyph name="parenleft" xMin="142" yMin="226" xMax="842" yMax="1588">
      <contour>
        <pt x="142" y="226" on="1"/>
        <pt x="142" y="1588" on="1"/>
        <pt x="842" y="1588" on="1"/>
        <pt x="842" y="226" on="1"/>
      </contour>
      <contour>
        <pt x="284" y="368" on="1"/>
        <pt x="700" y="368" on="1"/>
        <pt x="700" y="1447" on="1"/>
        <pt x="284" y="1447" on="1"/>
      </contour>
    </TTGlyph>
    <TTGlyph name="parenright" xMin="142" yMin="226" xMax="842" yMax="1588">
      <contour>
        <pt x="142" y="226" on="1"/>
        <pt x="142" y="1588" on="1"/>
        <pt x="842" y="1588" on="1"/>
        <pt x="842" y="226" on="1"/>
      </contour>
      <contour>
        <pt x="284" y="368" on="1"/>
        <pt x="700" y="368" on="1"/>
        <pt x="700" y="1447" on="1"/>
        <pt x="284" y="1447" on="1"/>
      </contour>
    </TTGlyph>
    <TTGlyph name="pashtoefinal" xMin="142" yMin="226" xMax="842" yMax="1588">
      <contour>
        <pt x="142" y="226" on="1"/>
        <pt x="142" y="1588" on="1"/>
        <pt x="842" y="1588" on="1"/>
        <pt x="842" y="226" on="1"/>
      </contour>
      <contour>
        <pt x="284" y="368" on="1"/>
        <pt x="700" y="368" on="1"/>
        <pt x="700" y="1447" on="1"/>
        <pt x="284" y="1447" on="1"/>
      </contour>
    </TTGlyph>
    <TTGlyph name="pashtoeinitial" xMin="142" yMin="226" xMax="842" yMax="1588">
      <contour>
        <pt x="142" y="226" on="1"/>
        <pt x="142" y="1588" on="1"/>
        <pt x="842" y="1588" on="1"/>
        <pt x="842" y="226" on="1"/>
      </contour>
      <contour>
        <pt x="284" y="368" on="1"/>
        <pt x="700" y="368" on="1"/>
        <pt x="700" y="1447" on="1"/>
        <pt x="284" y="1447" on="1"/>
      </contour>
    </TTGlyph>
    <TTGlyph name="pashtoemedial" xMin="142" yMin="226" xMax="842" yMax="1588">
      <contour>
        <pt x="142" y="226" on="1"/>
        <pt x="142" y="1588" on="1"/>
        <pt x="842" y="1588" on="1"/>
        <pt x="842" y="226" on="1"/>
      </contour>
      <contour>
        <pt x="284" y="368" on="1"/>
        <pt x="700" y="368" on="1"/>
        <pt x="700" y="1447" on="1"/>
        <pt x="284" y="1447" on="1"/>
      </contour>
    </TTGlyph>
    <TTGlyph name="pehfinalarabic" xMin="142" yMin="226" xMax="842" yMax="1588">
      <contour>
        <pt x="142" y="226" on="1"/>
        <pt x="142" y="1588" on="1"/>
        <pt x="842" y="1588" on="1"/>
        <pt x="842" y="226" on="1"/>
      </contour>
      <contour>
        <pt x="284" y="368" on="1"/>
        <pt x="700" y="368" on="1"/>
        <pt x="700" y="1447" on="1"/>
        <pt x="284" y="1447" on="1"/>
      </contour>
    </TTGlyph>
    <TTGlyph name="pehinitialarabic" xMin="142" yMin="226" xMax="842" yMax="1588">
      <contour>
        <pt x="142" y="226" on="1"/>
        <pt x="142" y="1588" on="1"/>
        <pt x="842" y="1588" on="1"/>
        <pt x="842" y="226" on="1"/>
      </contour>
      <contour>
        <pt x="284" y="368" on="1"/>
        <pt x="700" y="368" on="1"/>
        <pt x="700" y="1447" on="1"/>
        <pt x="284" y="1447" on="1"/>
      </contour>
    </TTGlyph>
    <TTGlyph name="pehmedialarabic" xMin="142" yMin="226" xMax="842" yMax="1588">
      <contour>
        <pt x="142" y="226" on="1"/>
        <pt x="142" y="1588" on="1"/>
        <pt x="842" y="1588" on="1"/>
        <pt x="842" y="226" on="1"/>
      </contour>
      <contour>
        <pt x="284" y="368" on="1"/>
        <pt x="700" y="368" on="1"/>
        <pt x="700" y="1447" on="1"/>
        <pt x="284" y="1447" on="1"/>
      </contour>
    </TTGlyph>
    <TTGlyph name="percent" xMin="142" yMin="226" xMax="842" yMax="1588">
      <contour>
        <pt x="142" y="226" on="1"/>
        <pt x="142" y="1588" on="1"/>
        <pt x="842" y="1588" on="1"/>
        <pt x="842" y="226" on="1"/>
      </contour>
      <contour>
        <pt x="284" y="368" on="1"/>
        <pt x="700" y="368" on="1"/>
        <pt x="700" y="1447" on="1"/>
        <pt x="284" y="1447" on="1"/>
      </contour>
    </TTGlyph>
    <TTGlyph name="period" xMin="142" yMin="226" xMax="842" yMax="1588">
      <contour>
        <pt x="142" y="226" on="1"/>
        <pt x="142" y="1588" on="1"/>
        <pt x="842" y="1588" on="1"/>
        <pt x="842" y="226" on="1"/>
      </contour>
      <contour>
        <pt x="284" y="368" on="1"/>
        <pt x="700" y="368" on="1"/>
        <pt x="700" y="1447" on="1"/>
        <pt x="284" y="1447" on="1"/>
      </contour>
    </TTGlyph>
    <TTGlyph name="plus" xMin="142" yMin="226" xMax="842" yMax="1588">
      <contour>
        <pt x="142" y="226" on="1"/>
        <pt x="142" y="1588" on="1"/>
        <pt x="842" y="1588" on="1"/>
        <pt x="842" y="226" on="1"/>
      </contour>
      <contour>
        <pt x="284" y="368" on="1"/>
        <pt x="700" y="368" on="1"/>
        <pt x="700" y="1447" on="1"/>
        <pt x="284" y="1447" on="1"/>
      </contour>
    </TTGlyph>
    <TTGlyph name="quotedbl" xMin="142" yMin="226" xMax="842" yMax="1588">
      <contour>
        <pt x="142" y="226" on="1"/>
        <pt x="142" y="1588" on="1"/>
        <pt x="842" y="1588" on="1"/>
        <pt x="842" y="226" on="1"/>
      </contour>
      <contour>
        <pt x="284" y="368" on="1"/>
        <pt x="700" y="368" on="1"/>
        <pt x="700" y="1447" on="1"/>
        <pt x="284" y="1447" on="1"/>
      </contour>
    </TTGlyph>
    <TTGlyph name="quotesingle" xMin="142" yMin="226" xMax="842" yMax="1588">
      <contour>
        <pt x="142" y="226" on="1"/>
        <pt x="142" y="1588" on="1"/>
        <pt x="842" y="1588" on="1"/>
        <pt x="842" y="226" on="1"/>
      </contour>
      <contour>
        <pt x="284" y="368" on="1"/>
        <pt x="700" y="368" on="1"/>
        <pt x="700" y="1447" on="1"/>
        <pt x="284" y="1447" on="1"/>
      </contour>
    </TTGlyph>
    <TTGlyph name="rehdotbelowdotabovefinal" xMin="142" yMin="226" xMax="842" yMax="1588">
      <contour>
        <pt x="142" y="226" on="1"/>
        <pt x="142" y="1588" on="1"/>
        <pt x="842" y="1588" on="1"/>
        <pt x="842" y="226" on="1"/>
      </contour>
      <contour>
        <pt x="284" y="368" on="1"/>
        <pt x="700" y="368" on="1"/>
        <pt x="700" y="1447" on="1"/>
        <pt x="284" y="1447" on="1"/>
      </contour>
    </TTGlyph>
    <TTGlyph name="rehringfinal" xMin="142" yMin="226" xMax="842" yMax="1588">
      <contour>
        <pt x="142" y="226" on="1"/>
        <pt x="142" y="1588" on="1"/>
        <pt x="842" y="1588" on="1"/>
        <pt x="842" y="226" on="1"/>
      </contour>
      <contour>
        <pt x="284" y="368" on="1"/>
        <pt x="700" y="368" on="1"/>
        <pt x="700" y="1447" on="1"/>
        <pt x="284" y="1447" on="1"/>
      </contour>
    </TTGlyph>
    <TTGlyph name="rrehfinalarabic" xMin="142" yMin="226" xMax="842" yMax="1588">
      <contour>
        <pt x="142" y="226" on="1"/>
        <pt x="142" y="1588" on="1"/>
        <pt x="842" y="1588" on="1"/>
        <pt x="842" y="226" on="1"/>
      </contour>
      <contour>
        <pt x="284" y="368" on="1"/>
        <pt x="700" y="368" on="1"/>
        <pt x="700" y="1447" on="1"/>
        <pt x="284" y="1447" on="1"/>
      </contour>
    </TTGlyph>
    <TTGlyph name="seendotbelowdotabovefinal" xMin="142" yMin="226" xMax="842" yMax="1588">
      <contour>
        <pt x="142" y="226" on="1"/>
        <pt x="142" y="1588" on="1"/>
        <pt x="842" y="1588" on="1"/>
        <pt x="842" y="226" on="1"/>
      </contour>
      <contour>
        <pt x="284" y="368" on="1"/>
        <pt x="700" y="368" on="1"/>
        <pt x="700" y="1447" on="1"/>
        <pt x="284" y="1447" on="1"/>
      </contour>
    </TTGlyph>
    <TTGlyph name="seendotbelowdotaboveinitial" xMin="142" yMin="226" xMax="842" yMax="1588">
      <contour>
        <pt x="142" y="226" on="1"/>
        <pt x="142" y="1588" on="1"/>
        <pt x="842" y="1588" on="1"/>
        <pt x="842" y="226" on="1"/>
      </contour>
      <contour>
        <pt x="284" y="368" on="1"/>
        <pt x="700" y="368" on="1"/>
        <pt x="700" y="1447" on="1"/>
        <pt x="284" y="1447" on="1"/>
      </contour>
    </TTGlyph>
    <TTGlyph name="seendotbelowdotabovemedial" xMin="142" yMin="226" xMax="842" yMax="1588">
      <contour>
        <pt x="142" y="226" on="1"/>
        <pt x="142" y="1588" on="1"/>
        <pt x="842" y="1588" on="1"/>
        <pt x="842" y="226" on="1"/>
      </contour>
      <contour>
        <pt x="284" y="368" on="1"/>
        <pt x="700" y="368" on="1"/>
        <pt x="700" y="1447" on="1"/>
        <pt x="284" y="1447" on="1"/>
      </contour>
    </TTGlyph>
    <TTGlyph name="shaddadammaarabic" xMin="142" yMin="226" xMax="842" yMax="1588">
      <contour>
        <pt x="142" y="226" on="1"/>
        <pt x="142" y="1588" on="1"/>
        <pt x="842" y="1588" on="1"/>
        <pt x="842" y="226" on="1"/>
      </contour>
      <contour>
        <pt x="284" y="368" on="1"/>
        <pt x="700" y="368" on="1"/>
        <pt x="700" y="1447" on="1"/>
        <pt x="284" y="1447" on="1"/>
      </contour>
    </TTGlyph>
    <TTGlyph name="shaddadammatanarabic" xMin="142" yMin="226" xMax="842" yMax="1588">
      <contour>
        <pt x="142" y="226" on="1"/>
        <pt x="142" y="1588" on="1"/>
        <pt x="842" y="1588" on="1"/>
        <pt x="842" y="226" on="1"/>
      </contour>
      <contour>
        <pt x="284" y="368" on="1"/>
        <pt x="700" y="368" on="1"/>
        <pt x="700" y="1447" on="1"/>
        <pt x="284" y="1447" on="1"/>
      </contour>
    </TTGlyph>
    <TTGlyph name="shaddafathaarabic" xMin="142" yMin="226" xMax="842" yMax="1588">
      <contour>
        <pt x="142" y="226" on="1"/>
        <pt x="142" y="1588" on="1"/>
        <pt x="842" y="1588" on="1"/>
        <pt x="842" y="226" on="1"/>
      </contour>
      <contour>
        <pt x="284" y="368" on="1"/>
        <pt x="700" y="368" on="1"/>
        <pt x="700" y="1447" on="1"/>
        <pt x="284" y="1447" on="1"/>
      </contour>
    </TTGlyph>
    <TTGlyph name="shaddakasraarabic" xMin="142" yMin="226" xMax="842" yMax="1588">
      <contour>
        <pt x="142" y="226" on="1"/>
        <pt x="142" y="1588" on="1"/>
        <pt x="842" y="1588" on="1"/>
        <pt x="842" y="226" on="1"/>
      </contour>
      <contour>
        <pt x="284" y="368" on="1"/>
        <pt x="700" y="368" on="1"/>
        <pt x="700" y="1447" on="1"/>
        <pt x="284" y="1447" on="1"/>
      </contour>
    </TTGlyph>
    <TTGlyph name="shaddakasratanarabic" xMin="142" yMin="226" xMax="842" yMax="1588">
      <contour>
        <pt x="142" y="226" on="1"/>
        <pt x="142" y="1588" on="1"/>
        <pt x="842" y="1588" on="1"/>
        <pt x="842" y="226" on="1"/>
      </contour>
      <contour>
        <pt x="284" y="368" on="1"/>
        <pt x="700" y="368" on="1"/>
        <pt x="700" y="1447" on="1"/>
        <pt x="284" y="1447" on="1"/>
      </contour>
    </TTGlyph>
    <TTGlyph name="slash" xMin="142" yMin="226" xMax="842" yMax="1588">
      <contour>
        <pt x="142" y="226" on="1"/>
        <pt x="142" y="1588" on="1"/>
        <pt x="842" y="1588" on="1"/>
        <pt x="842" y="226" on="1"/>
      </contour>
      <contour>
        <pt x="284" y="368" on="1"/>
        <pt x="700" y="368" on="1"/>
        <pt x="700" y="1447" on="1"/>
        <pt x="284" y="1447" on="1"/>
      </contour>
    </TTGlyph>
    <TTGlyph name="space" xMin="142" yMin="226" xMax="842" yMax="1588">
      <contour>
        <pt x="142" y="226" on="1"/>
        <pt x="142" y="1588" on="1"/>
        <pt x="842" y="1588" on="1"/>
        <pt x="842" y="226" on="1"/>
      </contour>
      <contour>
        <pt x="284" y="368" on="1"/>
        <pt x="700" y="368" on="1"/>
        <pt x="700" y="1447" on="1"/>
        <pt x="284" y="1447" on="1"/>
      </contour>
    </TTGlyph>
    <TTGlyph name="tchehfinalarabic" xMin="142" yMin="226" xMax="842" yMax="1588">
      <contour>
        <pt x="142" y="226" on="1"/>
        <pt x="142" y="1588" on="1"/>
        <pt x="842" y="1588" on="1"/>
        <pt x="842" y="226" on="1"/>
      </contour>
      <contour>
        <pt x="284" y="368" on="1"/>
        <pt x="700" y="368" on="1"/>
        <pt x="700" y="1447" on="1"/>
        <pt x="284" y="1447" on="1"/>
      </contour>
    </TTGlyph>
    <TTGlyph name="tchehinitialarabic" xMin="142" yMin="226" xMax="842" yMax="1588">
      <contour>
        <pt x="142" y="226" on="1"/>
        <pt x="142" y="1588" on="1"/>
        <pt x="842" y="1588" on="1"/>
        <pt x="842" y="226" on="1"/>
      </contour>
      <contour>
        <pt x="284" y="368" on="1"/>
        <pt x="700" y="368" on="1"/>
        <pt x="700" y="1447" on="1"/>
        <pt x="284" y="1447" on="1"/>
      </contour>
    </TTGlyph>
    <TTGlyph name="tchehmedialarabic" xMin="142" yMin="226" xMax="842" yMax="1588">
      <contour>
        <pt x="142" y="226" on="1"/>
        <pt x="142" y="1588" on="1"/>
        <pt x="842" y="1588" on="1"/>
        <pt x="842" y="226" on="1"/>
      </contour>
      <contour>
        <pt x="284" y="368" on="1"/>
        <pt x="700" y="368" on="1"/>
        <pt x="700" y="1447" on="1"/>
        <pt x="284" y="1447" on="1"/>
      </contour>
    </TTGlyph>
    <TTGlyph name="tehhahisolatedarabic" xMin="142" yMin="226" xMax="842" yMax="1588">
      <contour>
        <pt x="142" y="226" on="1"/>
        <pt x="142" y="1588" on="1"/>
        <pt x="842" y="1588" on="1"/>
        <pt x="842" y="226" on="1"/>
      </contour>
      <contour>
        <pt x="284" y="368" on="1"/>
        <pt x="700" y="368" on="1"/>
        <pt x="700" y="1447" on="1"/>
        <pt x="284" y="1447" on="1"/>
      </contour>
    </TTGlyph>
    <TTGlyph name="tehjeemisolatedarabic" xMin="142" yMin="226" xMax="842" yMax="1588">
      <contour>
        <pt x="142" y="226" on="1"/>
        <pt x="142" y="1588" on="1"/>
        <pt x="842" y="1588" on="1"/>
        <pt x="842" y="226" on="1"/>
      </contour>
      <contour>
        <pt x="284" y="368" on="1"/>
        <pt x="700" y="368" on="1"/>
        <pt x="700" y="1447" on="1"/>
        <pt x="284" y="1447" on="1"/>
      </contour>
    </TTGlyph>
    <TTGlyph name="tehmeemisolatedarabic" xMin="142" yMin="226" xMax="842" yMax="1588">
      <contour>
        <pt x="142" y="226" on="1"/>
        <pt x="142" y="1588" on="1"/>
        <pt x="842" y="1588" on="1"/>
        <pt x="842" y="226" on="1"/>
      </contour>
      <contour>
        <pt x="284" y="368" on="1"/>
        <pt x="700" y="368" on="1"/>
        <pt x="700" y="1447" on="1"/>
        <pt x="284" y="1447" on="1"/>
      </contour>
    </TTGlyph>
    <TTGlyph name="tehnoonfinalarabic" xMin="142" yMin="226" xMax="842" yMax="1588">
      <contour>
        <pt x="142" y="226" on="1"/>
        <pt x="142" y="1588" on="1"/>
        <pt x="842" y="1588" on="1"/>
        <pt x="842" y="226" on="1"/>
      </contour>
      <contour>
        <pt x="284" y="368" on="1"/>
        <pt x="700" y="368" on="1"/>
        <pt x="700" y="1447" on="1"/>
        <pt x="284" y="1447" on="1"/>
      </contour>
    </TTGlyph>
    <TTGlyph name="tehringfinal" xMin="142" yMin="226" xMax="842" yMax="1588">
      <contour>
        <pt x="142" y="226" on="1"/>
        <pt x="142" y="1588" on="1"/>
        <pt x="842" y="1588" on="1"/>
        <pt x="842" y="226" on="1"/>
      </contour>
      <contour>
        <pt x="284" y="368" on="1"/>
        <pt x="700" y="368" on="1"/>
        <pt x="700" y="1447" on="1"/>
        <pt x="284" y="1447" on="1"/>
      </contour>
    </TTGlyph>
    <TTGlyph name="tehringinitial" xMin="142" yMin="226" xMax="842" yMax="1588">
      <contour>
        <pt x="142" y="226" on="1"/>
        <pt x="142" y="1588" on="1"/>
        <pt x="842" y="1588" on="1"/>
        <pt x="842" y="226" on="1"/>
      </contour>
      <contour>
        <pt x="284" y="368" on="1"/>
        <pt x="700" y="368" on="1"/>
        <pt x="700" y="1447" on="1"/>
        <pt x="284" y="1447" on="1"/>
      </contour>
    </TTGlyph>
    <TTGlyph name="tehringmedial" xMin="142" yMin="226" xMax="842" yMax="1588">
      <contour>
        <pt x="142" y="226" on="1"/>
        <pt x="142" y="1588" on="1"/>
        <pt x="842" y="1588" on="1"/>
        <pt x="842" y="226" on="1"/>
      </contour>
      <contour>
        <pt x="284" y="368" on="1"/>
        <pt x="700" y="368" on="1"/>
        <pt x="700" y="1447" on="1"/>
        <pt x="284" y="1447" on="1"/>
      </contour>
    </TTGlyph>
    <TTGlyph name="ttehfinalarabic" xMin="142" yMin="226" xMax="842" yMax="1588">
      <contour>
        <pt x="142" y="226" on="1"/>
        <pt x="142" y="1588" on="1"/>
        <pt x="842" y="1588" on="1"/>
        <pt x="842" y="226" on="1"/>
      </contour>
      <contour>
        <pt x="284" y="368" on="1"/>
        <pt x="700" y="368" on="1"/>
        <pt x="700" y="1447" on="1"/>
        <pt x="284" y="1447" on="1"/>
      </contour>
    </TTGlyph>
    <TTGlyph name="ttehinitialarabic" xMin="142" yMin="226" xMax="842" yMax="1588">
      <contour>
        <pt x="142" y="226" on="1"/>
        <pt x="142" y="1588" on="1"/>
        <pt x="842" y="1588" on="1"/>
        <pt x="842" y="226" on="1"/>
      </contour>
      <contour>
        <pt x="284" y="368" on="1"/>
        <pt x="700" y="368" on="1"/>
        <pt x="700" y="1447" on="1"/>
        <pt x="284" y="1447" on="1"/>
      </contour>
    </TTGlyph>
    <TTGlyph name="ttehmedialarabic" xMin="142" yMin="226" xMax="842" yMax="1588">
      <contour>
        <pt x="142" y="226" on="1"/>
        <pt x="142" y="1588" on="1"/>
        <pt x="842" y="1588" on="1"/>
        <pt x="842" y="226" on="1"/>
      </contour>
      <contour>
        <pt x="284" y="368" on="1"/>
        <pt x="700" y="368" on="1"/>
        <pt x="700" y="1447" on="1"/>
        <pt x="284" y="1447" on="1"/>
      </contour>
    </TTGlyph>
    <TTGlyph name="uni000D" xMin="142" yMin="226" xMax="842" yMax="1588">
      <contour>
        <pt x="142" y="226" on="1"/>
        <pt x="142" y="1588" on="1"/>
        <pt x="842" y="1588" on="1"/>
        <pt x="842" y="226" on="1"/>
      </contour>
      <contour>
        <pt x="284" y="368" on="1"/>
        <pt x="700" y="368" on="1"/>
        <pt x="700" y="1447" on="1"/>
        <pt x="284" y="1447" on="1"/>
      </contour>
    </TTGlyph>
    <TTGlyph name="uni00A0" xMin="142" yMin="226" xMax="842" yMax="1588">
      <contour>
        <pt x="142" y="226" on="1"/>
        <pt x="142" y="1588" on="1"/>
        <pt x="842" y="1588" on="1"/>
        <pt x="842" y="226" on="1"/>
      </contour>
      <contour>
        <pt x="284" y="368" on="1"/>
        <pt x="700" y="368" on="1"/>
        <pt x="700" y="1447" on="1"/>
        <pt x="284" y="1447" on="1"/>
      </contour>
    </TTGlyph>
    <TTGlyph name="uni00AD" xMin="142" yMin="226" xMax="842" yMax="1588">
      <contour>
        <pt x="142" y="226" on="1"/>
        <pt x="142" y="1588" on="1"/>
        <pt x="842" y="1588" on="1"/>
        <pt x="842" y="226" on="1"/>
      </contour>
      <contour>
        <pt x="284" y="368" on="1"/>
        <pt x="700" y="368" on="1"/>
        <pt x="700" y="1447" on="1"/>
        <pt x="284" y="1447" on="1"/>
      </contour>
    </TTGlyph>
    <TTGlyph name="uni0653" xMin="142" yMin="226" xMax="842" yMax="1588">
      <contour>
        <pt x="142" y="226" on="1"/>
        <pt x="142" y="1588" on="1"/>
        <pt x="842" y="1588" on="1"/>
        <pt x="842" y="226" on="1"/>
      </contour>
      <contour>
        <pt x="284" y="368" on="1"/>
        <pt x="700" y="368" on="1"/>
        <pt x="700" y="1447" on="1"/>
        <pt x="284" y="1447" on="1"/>
      </contour>
    </TTGlyph>
    <TTGlyph name="uni0654" xMin="142" yMin="226" xMax="842" yMax="1588">
      <contour>
        <pt x="142" y="226" on="1"/>
        <pt x="142" y="1588" on="1"/>
        <pt x="842" y="1588" on="1"/>
        <pt x="842" y="226" on="1"/>
      </contour>
      <contour>
        <pt x="284" y="368" on="1"/>
        <pt x="700" y="368" on="1"/>
        <pt x="700" y="1447" on="1"/>
        <pt x="284" y="1447" on="1"/>
      </contour>
    </TTGlyph>
    <TTGlyph name="uni0655" xMin="142" yMin="226" xMax="842" yMax="1588">
      <contour>
        <pt x="142" y="226" on="1"/>
        <pt x="142" y="1588" on="1"/>
        <pt x="842" y="1588" on="1"/>
        <pt x="842" y="226" on="1"/>
      </contour>
      <contour>
        <pt x="284" y="368" on="1"/>
        <pt x="700" y="368" on="1"/>
        <pt x="700" y="1447" on="1"/>
        <pt x="284" y="1447" on="1"/>
      </contour>
    </TTGlyph>
    <TTGlyph name="uni066B" xMin="142" yMin="226" xMax="842" yMax="1588">
      <contour>
        <pt x="142" y="226" on="1"/>
        <pt x="142" y="1588" on="1"/>
        <pt x="842" y="1588" on="1"/>
        <pt x="842" y="226" on="1"/>
      </contour>
      <contour>
        <pt x="284" y="368" on="1"/>
        <pt x="700" y="368" on="1"/>
        <pt x="700" y="1447" on="1"/>
        <pt x="284" y="1447" on="1"/>
      </contour>
    </TTGlyph>
    <TTGlyph name="uni066C" xMin="142" yMin="226" xMax="842" yMax="1588">
      <contour>
        <pt x="142" y="226" on="1"/>
        <pt x="142" y="1588" on="1"/>
        <pt x="842" y="1588" on="1"/>
        <pt x="842" y="226" on="1"/>
      </contour>
      <contour>
        <pt x="284" y="368" on="1"/>
        <pt x="700" y="368" on="1"/>
        <pt x="700" y="1447" on="1"/>
        <pt x="284" y="1447" on="1"/>
      </contour>
    </TTGlyph>
    <TTGlyph name="uni0671" xMin="142" yMin="226" xMax="842" yMax="1588">
      <contour>
        <pt x="142" y="226" on="1"/>
        <pt x="142" y="1588" on="1"/>
        <pt x="842" y="1588" on="1"/>
        <pt x="842" y="226" on="1"/>
      </contour>
      <contour>
        <pt x="284" y="368" on="1"/>
        <pt x="700" y="368" on="1"/>
        <pt x="700" y="1447" on="1"/>
        <pt x="284" y="1447" on="1"/>
      </contour>
    </TTGlyph>
    <TTGlyph name="uni067C" xMin="142" yMin="226" xMax="842" yMax="1588">
      <contour>
        <pt x="142" y="226" on="1"/>
        <pt x="142" y="1588" on="1"/>
        <pt x="842" y="1588" on="1"/>
        <pt x="842" y="226" on="1"/>
      </contour>
      <contour>
        <pt x="284" y="368" on="1"/>
        <pt x="700" y="368" on="1"/>
        <pt x="700" y="1447" on="1"/>
        <pt x="284" y="1447" on="1"/>
      </contour>
    </TTGlyph>
    <TTGlyph name="uni0681" xMin="142" yMin="226" xMax="842" yMax="1588">
      <contour>
        <pt x="142" y="226" on="1"/>
        <pt x="142" y="1588" on="1"/>
        <pt x="842" y="1588" on="1"/>
        <pt x="842" y="226" on="1"/>
      </contour>
      <contour>
        <pt x="284" y="368" on="1"/>
        <pt x="700" y="368" on="1"/>
        <pt x="700" y="1447" on="1"/>
        <pt x="284" y="1447" on="1"/>
      </contour>
    </TTGlyph>
    <TTGlyph name="uni0685" xMin="142" yMin="226" xMax="842" yMax="1588">
      <contour>
        <pt x="142" y="226" on="1"/>
        <pt x="142" y="1588" on="1"/>
        <pt x="842" y="1588" on="1"/>
        <pt x="842" y="226" on="1"/>
      </contour>
      <contour>
        <pt x="284" y="368" on="1"/>
        <pt x="700" y="368" on="1"/>
        <pt x="700" y="1447" on="1"/>
        <pt x="284" y="1447" on="1"/>
      </contour>
    </TTGlyph>
    <TTGlyph name="uni0689" xMin="142" yMin="226" xMax="842" yMax="1588">
      <contour>
        <pt x="142" y="226" on="1"/>
        <pt x="142" y="1588" on="1"/>
        <pt x="842" y="1588" on="1"/>
        <pt x="842" y="226" on="1"/>
      </contour>
      <contour>
        <pt x="284" y="368" on="1"/>
        <pt x="700" y="368" on="1"/>
        <pt x="700" y="1447" on="1"/>
        <pt x="284" y="1447" on="1"/>
      </contour>
    </TTGlyph>
    <TTGlyph name="uni0693" xMin="142" yMin="226" xMax="842" yMax="1588">
      <contour>
        <pt x="142" y="226" on="1"/>
        <pt x="142" y="1588" on="1"/>
        <pt x="842" y="1588" on="1"/>
        <pt x="842" y="226" on="1"/>
      </contour>
      <contour>
        <pt x="284" y="368" on="1"/>
        <pt x="700" y="368" on="1"/>
        <pt x="700" y="1447" on="1"/>
        <pt x="284" y="1447" on="1"/>
      </contour>
    </TTGlyph>
    <TTGlyph name="uni0696" xMin="142" yMin="226" xMax="842" yMax="1588">
      <contour>
        <pt x="142" y="226" on="1"/>
        <pt x="142" y="1588" on="1"/>
        <pt x="842" y="1588" on="1"/>
        <pt x="842" y="226" on="1"/>
      </contour>
      <contour>
        <pt x="284" y="368" on="1"/>
        <pt x="700" y="368" on="1"/>
        <pt x="700" y="1447" on="1"/>
        <pt x="284" y="1447" on="1"/>
      </contour>
    </TTGlyph>
    <TTGlyph name="uni069A" xMin="142" yMin="226" xMax="842" yMax="1588">
      <contour>
        <pt x="142" y="226" on="1"/>
        <pt x="142" y="1588" on="1"/>
        <pt x="842" y="1588" on="1"/>
        <pt x="842" y="226" on="1"/>
      </contour>
      <contour>
        <pt x="284" y="368" on="1"/>
        <pt x="700" y="368" on="1"/>
        <pt x="700" y="1447" on="1"/>
        <pt x="284" y="1447" on="1"/>
      </contour>
    </TTGlyph>
    <TTGlyph name="uni06A9" xMin="142" yMin="226" xMax="842" yMax="1588">
      <contour>
        <pt x="142" y="226" on="1"/>
        <pt x="142" y="1588" on="1"/>
        <pt x="842" y="1588" on="1"/>
        <pt x="842" y="226" on="1"/>
      </contour>
      <contour>
        <pt x="284" y="368" on="1"/>
        <pt x="700" y="368" on="1"/>
        <pt x="700" y="1447" on="1"/>
        <pt x="284" y="1447" on="1"/>
      </contour>
    </TTGlyph>
    <TTGlyph name="uni06AB" xMin="142" yMin="226" xMax="842" yMax="1588">
      <contour>
        <pt x="142" y="226" on="1"/>
        <pt x="142" y="1588" on="1"/>
        <pt x="842" y="1588" on="1"/>
        <pt x="842" y="226" on="1"/>
      </contour>
      <contour>
        <pt x="284" y="368" on="1"/>
        <pt x="700" y="368" on="1"/>
        <pt x="700" y="1447" on="1"/>
        <pt x="284" y="1447" on="1"/>
      </contour>
    </TTGlyph>
    <TTGlyph name="uni06B7" xMin="142" yMin="226" xMax="842" yMax="1588">
      <contour>
        <pt x="142" y="226" on="1"/>
        <pt x="142" y="1588" on="1"/>
        <pt x="842" y="1588" on="1"/>
        <pt x="842" y="226" on="1"/>
      </contour>
      <contour>
        <pt x="284" y="368" on="1"/>
        <pt x="700" y="368" on="1"/>
        <pt x="700" y="1447" on="1"/>
        <pt x="284" y="1447" on="1"/>
      </contour>
    </TTGlyph>
    <TTGlyph name="uni06BC" xMin="142" yMin="226" xMax="842" yMax="1588">
      <contour>
        <pt x="142" y="226" on="1"/>
        <pt x="142" y="1588" on="1"/>
        <pt x="842" y="1588" on="1"/>
        <pt x="842" y="226" on="1"/>
      </contour>
      <contour>
        <pt x="284" y="368" on="1"/>
        <pt x="700" y="368" on="1"/>
        <pt x="700" y="1447" on="1"/>
        <pt x="284" y="1447" on="1"/>
      </contour>
    </TTGlyph>
    <TTGlyph name="uni06BE" xMin="142" yMin="226" xMax="842" yMax="1588">
      <contour>
        <pt x="142" y="226" on="1"/>
        <pt x="142" y="1588" on="1"/>
        <pt x="842" y="1588" on="1"/>
        <pt x="842" y="226" on="1"/>
      </contour>
      <contour>
        <pt x="284" y="368" on="1"/>
        <pt x="700" y="368" on="1"/>
        <pt x="700" y="1447" on="1"/>
        <pt x="284" y="1447" on="1"/>
      </contour>
    </TTGlyph>
    <TTGlyph name="uni06C2" xMin="142" yMin="226" xMax="842" yMax="1588">
      <contour>
        <pt x="142" y="226" on="1"/>
        <pt x="142" y="1588" on="1"/>
        <pt x="842" y="1588" on="1"/>
        <pt x="842" y="226" on="1"/>
      </contour>
      <contour>
        <pt x="284" y="368" on="1"/>
        <pt x="700" y="368" on="1"/>
        <pt x="700" y="1447" on="1"/>
        <pt x="284" y="1447" on="1"/>
      </contour>
    </TTGlyph>
    <TTGlyph name="uni06C7" xMin="142" yMin="226" xMax="842" yMax="1588">
      <contour>
        <pt x="142" y="226" on="1"/>
        <pt x="142" y="1588" on="1"/>
        <pt x="842" y="1588" on="1"/>
        <pt x="842" y="226" on="1"/>
      </contour>
      <contour>
        <pt x="284" y="368" on="1"/>
        <pt x="700" y="368" on="1"/>
        <pt x="700" y="1447" on="1"/>
        <pt x="284" y="1447" on="1"/>
      </contour>
    </TTGlyph>
    <TTGlyph name="uni06C9" xMin="142" yMin="226" xMax="842" yMax="1588">
      <contour>
        <pt x="142" y="226" on="1"/>
        <pt x="142" y="1588" on="1"/>
        <pt x="842" y="1588" on="1"/>
        <pt x="842" y="226" on="1"/>
      </contour>
      <contour>
        <pt x="284" y="368" on="1"/>
        <pt x="700" y="368" on="1"/>
        <pt x="700" y="1447" on="1"/>
        <pt x="284" y="1447" on="1"/>
      </contour>
    </TTGlyph>
    <TTGlyph name="uni06CC" xMin="142" yMin="226" xMax="842" yMax="1588">
      <contour>
        <pt x="142" y="226" on="1"/>
        <pt x="142" y="1588" on="1"/>
        <pt x="842" y="1588" on="1"/>
        <pt x="842" y="226" on="1"/>
      </contour>
      <contour>
        <pt x="284" y="368" on="1"/>
        <pt x="700" y="368" on="1"/>
        <pt x="700" y="1447" on="1"/>
        <pt x="284" y="1447" on="1"/>
      </contour>
    </TTGlyph>
    <TTGlyph name="uni06CD" xMin="142" yMin="226" xMax="842" yMax="1588">
      <contour>
        <pt x="142" y="226" on="1"/>
        <pt x="142" y="1588" on="1"/>
        <pt x="842" y="1588" on="1"/>
        <pt x="842" y="226" on="1"/>
      </contour>
      <contour>
        <pt x="284" y="368" on="1"/>
        <pt x="700" y="368" on="1"/>
        <pt x="700" y="1447" on="1"/>
        <pt x="284" y="1447" on="1"/>
      </contour>
    </TTGlyph>
    <TTGlyph name="uni06D0" xMin="142" yMin="226" xMax="842" yMax="1588">
      <contour>
        <pt x="142" y="226" on="1"/>
        <pt x="142" y="1588" on="1"/>
        <pt x="842" y="1588" on="1"/>
        <pt x="842" y="226" on="1"/>
      </contour>
      <contour>
        <pt x="284" y="368" on="1"/>
        <pt x="700" y="368" on="1"/>
        <pt x="700" y="1447" on="1"/>
        <pt x="284" y="1447" on="1"/>
      </contour>
    </TTGlyph>
    <TTGlyph name="uni06D1" xMin="142" yMin="226" xMax="842" yMax="1588">
      <contour>
        <pt x="142" y="226" on="1"/>
        <pt x="142" y="1588" on="1"/>
        <pt x="842" y="1588" on="1"/>
        <pt x="842" y="226" on="1"/>
      </contour>
      <contour>
        <pt x="284" y="368" on="1"/>
        <pt x="700" y="368" on="1"/>
        <pt x="700" y="1447" on="1"/>
        <pt x="284" y="1447" on="1"/>
      </contour>
    </TTGlyph>
    <TTGlyph name="uni06D3" xMin="142" yMin="226" xMax="842" yMax="1588">
      <contour>
        <pt x="142" y="226" on="1"/>
        <pt x="142" y="1588" on="1"/>
        <pt x="842" y="1588" on="1"/>
        <pt x="842" y="226" on="1"/>
      </contour>
      <contour>
        <pt x="284" y="368" on="1"/>
        <pt x="700" y="368" on="1"/>
        <pt x="700" y="1447" on="1"/>
        <pt x="284" y="1447" on="1"/>
      </contour>
    </TTGlyph>
    <TTGlyph name="uni06D4" xMin="142" yMin="226" xMax="842" yMax="1588">
      <contour>
        <pt x="142" y="226" on="1"/>
        <pt x="142" y="1588" on="1"/>
        <pt x="842" y="1588" on="1"/>
        <pt x="842" y="226" on="1"/>
      </contour>
      <contour>
        <pt x="284" y="368" on="1"/>
        <pt x="700" y="368" on="1"/>
        <pt x="700" y="1447" on="1"/>
        <pt x="284" y="1447" on="1"/>
      </contour>
    </TTGlyph>
    <TTGlyph name="uni06F0" xMin="142" yMin="226" xMax="842" yMax="1588">
      <contour>
        <pt x="142" y="226" on="1"/>
        <pt x="142" y="1588" on="1"/>
        <pt x="842" y="1588" on="1"/>
        <pt x="842" y="226" on="1"/>
      </contour>
      <contour>
        <pt x="284" y="368" on="1"/>
        <pt x="700" y="368" on="1"/>
        <pt x="700" y="1447" on="1"/>
        <pt x="284" y="1447" on="1"/>
      </contour>
    </TTGlyph>
    <TTGlyph name="uni06F1" xMin="142" yMin="226" xMax="842" yMax="1588">
      <contour>
        <pt x="142" y="226" on="1"/>
        <pt x="142" y="1588" on="1"/>
        <pt x="842" y="1588" on="1"/>
        <pt x="842" y="226" on="1"/>
      </contour>
      <contour>
        <pt x="284" y="368" on="1"/>
        <pt x="700" y="368" on="1"/>
        <pt x="700" y="1447" on="1"/>
        <pt x="284" y="1447" on="1"/>
      </contour>
    </TTGlyph>
    <TTGlyph name="uni06F2" xMin="142" yMin="226" xMax="842" yMax="1588">
      <contour>
        <pt x="142" y="226" on="1"/>
        <pt x="142" y="1588" on="1"/>
        <pt x="842" y="1588" on="1"/>
        <pt x="842" y="226" on="1"/>
      </contour>
      <contour>
        <pt x="284" y="368" on="1"/>
        <pt x="700" y="368" on="1"/>
        <pt x="700" y="1447" on="1"/>
        <pt x="284" y="1447" on="1"/>
      </contour>
    </TTGlyph>
    <TTGlyph name="uni06F3" xMin="142" yMin="226" xMax="842" yMax="1588">
      <contour>
        <pt x="142" y="226" on="1"/>
        <pt x="142" y="1588" on="1"/>
        <pt x="842" y="1588" on="1"/>
        <pt x="842" y="226" on="1"/>
      </contour>
      <contour>
        <pt x="284" y="368" on="1"/>
        <pt x="700" y="368" on="1"/>
        <pt x="700" y="1447" on="1"/>
        <pt x="284" y="1447" on="1"/>
      </contour>
    </TTGlyph>
    <TTGlyph name="uni06F4" xMin="142" yMin="226" xMax="842" yMax="1588">
      <contour>
        <pt x="142" y="226" on="1"/>
        <pt x="142" y="1588" on="1"/>
        <pt x="842" y="1588" on="1"/>
        <pt x="842" y="226" on="1"/>
      </contour>
      <contour>
        <pt x="284" y="368" on="1"/>
        <pt x="700" y="368" on="1"/>
        <pt x="700" y="1447" on="1"/>
        <pt x="284" y="1447" on="1"/>
      </contour>
    </TTGlyph>
    <TTGlyph name="uni06F5" xMin="142" yMin="226" xMax="842" yMax="1588">
      <contour>
        <pt x="142" y="226" on="1"/>
        <pt x="142" y="1588" on="1"/>
        <pt x="842" y="1588" on="1"/>
        <pt x="842" y="226" on="1"/>
      </contour>
      <contour>
        <pt x="284" y="368" on="1"/>
        <pt x="700" y="368" on="1"/>
        <pt x="700" y="1447" on="1"/>
        <pt x="284" y="1447" on="1"/>
      </contour>
    </TTGlyph>
    <TTGlyph name="uni06F6" xMin="142" yMin="226" xMax="842" yMax="1588">
      <contour>
        <pt x="142" y="226" on="1"/>
        <pt x="142" y="1588" on="1"/>
        <pt x="842" y="1588" on="1"/>
        <pt x="842" y="226" on="1"/>
      </contour>
      <contour>
        <pt x="284" y="368" on="1"/>
        <pt x="700" y="368" on="1"/>
        <pt x="700" y="1447" on="1"/>
        <pt x="284" y="1447" on="1"/>
      </contour>
    </TTGlyph>
    <TTGlyph name="uni06F7" xMin="142" yMin="226" xMax="842" yMax="1588">
      <contour>
        <pt x="142" y="226" on="1"/>
        <pt x="142" y="1588" on="1"/>
        <pt x="842" y="1588" on="1"/>
        <pt x="842" y="226" on="1"/>
      </contour>
      <contour>
        <pt x="284" y="368" on="1"/>
        <pt x="700" y="368" on="1"/>
        <pt x="700" y="1447" on="1"/>
        <pt x="284" y="1447" on="1"/>
      </contour>
    </TTGlyph>
    <TTGlyph name="uni06F8" xMin="142" yMin="226" xMax="842" yMax="1588">
      <contour>
        <pt x="142" y="226" on="1"/>
        <pt x="142" y="1588" on="1"/>
        <pt x="842" y="1588" on="1"/>
        <pt x="842" y="226" on="1"/>
      </contour>
      <contour>
        <pt x="284" y="368" on="1"/>
        <pt x="700" y="368" on="1"/>
        <pt x="700" y="1447" on="1"/>
        <pt x="284" y="1447" on="1"/>
      </contour>
    </TTGlyph>
    <TTGlyph name="uni06F9" xMin="142" yMin="226" xMax="842" yMax="1588">
      <contour>
        <pt x="142" y="226" on="1"/>
        <pt x="142" y="1588" on="1"/>
        <pt x="842" y="1588" on="1"/>
        <pt x="842" y="226" on="1"/>
      </contour>
      <contour>
        <pt x="284" y="368" on="1"/>
        <pt x="700" y="368" on="1"/>
        <pt x="700" y="1447" on="1"/>
        <pt x="284" y="1447" on="1"/>
      </contour>
    </TTGlyph>
    <TTGlyph name="uni2010" xMin="353" yMin="-462" xMax="3690" yMax="1636">
      <contour>
        <pt x="3629" y="1534" on="1"/>
        <pt x="3629" y="1470" on="0"/>
        <pt x="3391" y="1366" on="1"/>
        <pt x="3388" y="1365" on="0"/>
        <pt x="3132" y="1237" on="1"/>
        <pt x="3117" y="1251" on="0"/>
        <pt x="3117" y="1272" on="1"/>
        <pt x="3117" y="1320" on="0"/>
        <pt x="3224" y="1380" on="1"/>
        <pt x="3226" y="1381" on="0"/>
        <pt x="3376" y="1454" on="1"/>
        <pt x="3459" y="1502" on="0"/>
        <pt x="3615" y="1575" on="1"/>
        <pt x="3629" y="1561" on="0"/>
      </contour>
      <contour>
        <pt x="3568" y="1063" on="1"/>
        <pt x="3568" y="1026" on="0"/>
        <pt x="3525" y="995" on="1"/>
        <pt x="3490" y="971" on="0"/>
        <pt x="3471" y="971" on="1"/>
        <pt x="3448" y="971" on="0"/>
        <pt x="3383" y="1036" on="0"/>
        <pt x="3383" y="1058" on="1"/>
        <pt x="3383" y="1076" on="0"/>
        <pt x="3463" y="1144" on="0"/>
        <pt x="3481" y="1144" on="1"/>
        <pt x="3534" y="1144" on="0"/>
      </contour>
      <contour>
        <pt x="3690" y="878" on="1"/>
        <pt x="3690" y="845" on="0"/>
        <pt x="3649" y="813" on="1"/>
        <pt x="3613" y="786" on="0"/>
        <pt x="3594" y="786" on="1"/>
        <pt x="3582" y="786" on="0"/>
        <pt x="3509" y="817" on="0"/>
        <pt x="3496" y="817" on="1"/>
        <pt x="3483" y="817" on="0"/>
        <pt x="3412" y="766" on="0"/>
        <pt x="3399" y="766" on="1"/>
        <pt x="3345" y="766" on="0"/>
        <pt x="3291" y="842" on="1"/>
        <pt x="3355" y="940" on="0"/>
        <pt x="3399" y="940" on="1"/>
        <pt x="3410" y="940" on="0"/>
        <pt x="3468" y="909" on="0"/>
        <pt x="3481" y="909" on="1"/>
        <pt x="3494" y="909" on="0"/>
        <pt x="3576" y="971" on="0"/>
        <pt x="3588" y="971" on="1"/>
        <pt x="3608" y="971" on="0"/>
        <pt x="3690" y="897" on="0"/>
      </contour>
      <contour>
        <pt x="3005" y="1518" on="1"/>
        <pt x="3005" y="1464" on="0"/>
        <pt x="2799" y="1357" on="1"/>
        <pt x="2524" y="1214" on="0"/>
        <pt x="2499" y="1196" on="1"/>
        <pt x="2455" y="1196" on="1"/>
        <pt x="2442" y="1209" on="0"/>
        <pt x="2442" y="1226" on="1"/>
        <pt x="2442" y="1276" on="0"/>
        <pt x="2544" y="1332" on="1"/>
        <pt x="2607" y="1362" on="0"/>
        <pt x="2670" y="1392" on="1"/>
        <pt x="2737" y="1435" on="0"/>
        <pt x="2885" y="1509" on="1"/>
        <pt x="2919" y="1526" on="0"/>
        <pt x="2992" y="1553" on="1"/>
        <pt x="2992" y="1550" on="0"/>
        <pt x="3005" y="1533" on="0"/>
      </contour>
      <contour>
        <pt x="2513" y="561" on="1"/>
        <pt x="2513" y="505" on="0"/>
        <pt x="2480" y="449" on="1"/>
        <pt x="2450" y="453" on="0"/>
        <pt x="2427" y="575" on="1"/>
        <pt x="2421" y="614" on="0"/>
        <pt x="2387" y="676" on="1"/>
        <pt x="2375" y="699" on="0"/>
        <pt x="2335" y="743" on="1"/>
        <pt x="2308" y="773" on="0"/>
        <pt x="2308" y="801" on="1"/>
        <pt x="2308" y="833" on="0"/>
        <pt x="2344" y="868" on="1"/>
        <pt x="2417" y="838" on="0"/>
        <pt x="2467" y="740" on="1"/>
        <pt x="2513" y="650" on="0"/>
      </contour>
      <contour>
        <pt x="1664" y="1457" on="1"/>
        <pt x="1664" y="1411" on="0"/>
        <pt x="1450" y="1294" on="1"/>
        <pt x="1323" y="1230" on="0"/>
        <pt x="1196" y="1165" on="1"/>
        <pt x="1195" y="1167" on="0"/>
        <pt x="1176" y="1180" on="1"/>
        <pt x="1162" y="1191" on="0"/>
        <pt x="1162" y="1206" on="1"/>
        <pt x="1162" y="1223" on="0"/>
        <pt x="1202" y="1278" on="0"/>
        <pt x="1216" y="1284" on="1"/>
        <pt x="1298" y="1316" on="0"/>
        <pt x="1390" y="1362" on="1"/>
        <pt x="1474" y="1407" on="0"/>
        <pt x="1651" y="1492" on="1"/>
        <pt x="1651" y="1488" on="0"/>
        <pt x="1664" y="1471" on="0"/>
      </contour>
      <contour>
        <pt x="2063" y="668" on="1"/>
        <pt x="2063" y="633" on="0"/>
        <pt x="2019" y="605" on="1"/>
        <pt x="1984" y="582" on="0"/>
        <pt x="1965" y="582" on="1"/>
        <pt x="1936" y="582" on="0"/>
        <pt x="1904" y="608" on="1"/>
        <pt x="1869" y="636" on="0"/>
        <pt x="1869" y="668" on="1"/>
        <pt x="1869" y="691" on="0"/>
        <pt x="1935" y="755" on="0"/>
        <pt x="1960" y="755" on="1"/>
        <pt x="1994" y="755" on="0"/>
        <pt x="2063" y="693" on="0"/>
      </contour>
      <contour>
        <pt x="3690" y="336" on="1"/>
        <pt x="3690" y="187" on="0"/>
        <pt x="3628" y="125" on="1"/>
        <pt x="3579" y="76" on="0"/>
        <pt x="3461" y="61" on="1"/>
        <pt x="3339" y="48" on="0"/>
        <pt x="3217" y="35" on="1"/>
        <pt x="3178" y="-10" on="0"/>
        <pt x="3156" y="-19" on="1"/>
        <pt x="3148" y="-22" on="0"/>
        <pt x="3107" y="-22" on="1"/>
        <pt x="3094" y="-22" on="0"/>
        <pt x="2910" y="-12" on="0"/>
        <pt x="2897" y="-12" on="1"/>
        <pt x="2868" y="-12" on="0"/>
        <pt x="2816" y="15" on="1"/>
        <pt x="2756" y="46" on="0"/>
        <pt x="2742" y="80" on="1"/>
        <pt x="2553" y="-12" on="0"/>
        <pt x="2324" y="-12" on="1"/>
        <pt x="2222" y="-12" on="0"/>
        <pt x="2127" y="21" on="1"/>
        <pt x="2101" y="30" on="0"/>
        <pt x="2037" y="78" on="1"/>
        <pt x="1978" y="120" on="0"/>
        <pt x="1971" y="120" on="1"/>
        <pt x="1943" y="120" on="0"/>
        <pt x="1824" y="-22" on="0"/>
        <pt x="1766" y="-22" on="1"/>
        <pt x="1755" y="-22" on="0"/>
        <pt x="1554" y="49" on="0"/>
        <pt x="1541" y="49" on="1"/>
        <pt x="1531" y="49" on="0"/>
        <pt x="1474" y="14" on="1"/>
        <pt x="1415" y="-23" on="0"/>
        <pt x="1383" y="-30" on="1"/>
        <pt x="1318" y="-43" on="0"/>
        <pt x="1229" y="-43" on="1"/>
        <pt x="934" y="-43" on="0"/>
        <pt x="892" y="237" on="1"/>
        <pt x="886" y="251" on="0"/>
        <pt x="870" y="274" on="1"/>
        <pt x="668" y="131" on="0"/>
        <pt x="599" y="131" on="1"/>
        <pt x="569" y="131" on="0"/>
        <pt x="472" y="152" on="1"/>
        <pt x="372" y="173" on="0"/>
        <pt x="353" y="184" on="1"/>
        <pt x="385" y="325" on="0"/>
        <pt x="558" y="449" on="1"/>
        <pt x="684" y="529" on="0"/>
        <pt x="811" y="609" on="1"/>
        <pt x="810" y="667" on="0"/>
        <pt x="816" y="782" on="1"/>
        <pt x="822" y="839" on="0"/>
        <pt x="858" y="868" on="1"/>
        <pt x="876" y="868" on="0"/>
        <pt x="891" y="844" on="1"/>
        <pt x="894" y="796" on="0"/>
        <pt x="908" y="700" on="1"/>
        <pt x="935" y="555" on="0"/>
        <pt x="961" y="410" on="1"/>
        <pt x="990" y="263" on="0"/>
        <pt x="1043" y="201" on="1"/>
        <pt x="1113" y="120" on="0"/>
        <pt x="1264" y="120" on="1"/>
        <pt x="1401" y="120" on="0"/>
        <pt x="1461" y="153" on="1"/>
        <pt x="1488" y="168" on="0"/>
        <pt x="1533" y="261" on="1"/>
        <pt x="1549" y="293" on="0"/>
        <pt x="1600" y="293" on="1"/>
        <pt x="1608" y="265" on="0"/>
        <pt x="1614" y="170" on="1"/>
        <pt x="1667" y="141" on="0"/>
        <pt x="1751" y="141" on="1"/>
        <pt x="1861" y="141" on="0"/>
        <pt x="1968" y="284" on="0"/>
        <pt x="2012" y="284" on="1"/>
        <pt x="2021" y="284" on="0"/>
        <pt x="2101" y="231" on="1"/>
        <pt x="2186" y="174" on="0"/>
        <pt x="2223" y="164" on="1"/>
        <pt x="2268" y="152" on="0"/>
        <pt x="2577" y="152" on="0"/>
        <pt x="2554" y="150" on="1"/>
        <pt x="2644" y="156" on="0"/>
        <pt x="2711" y="194" on="1"/>
        <pt x="2722" y="202" on="0"/>
        <pt x="2807" y="302" on="1"/>
        <pt x="2877" y="387" on="0"/>
        <pt x="2928" y="387" on="1"/>
        <pt x="2946" y="387" on="0"/>
        <pt x="3173" y="202" on="0"/>
        <pt x="3276" y="202" on="1"/>
        <pt x="3361" y="202" on="0"/>
        <pt x="3446" y="217" on="1"/>
        <pt x="3588" y="241" on="0"/>
        <pt x="3588" y="295" on="1"/>
        <pt x="3588" y="339" on="0"/>
        <pt x="3533" y="390" on="1"/>
        <pt x="3469" y="449" on="0"/>
        <pt x="3468" y="451" on="1"/>
        <pt x="3455" y="483" on="0"/>
        <pt x="3455" y="505" on="1"/>
        <pt x="3455" y="515" on="0"/>
        <pt x="3477" y="588" on="0"/>
        <pt x="3477" y="610" on="1"/>
        <pt x="3481" y="610" on="0"/>
        <pt x="3497" y="623" on="0"/>
        <pt x="3512" y="623" on="1"/>
        <pt x="3541" y="623" on="0"/>
        <pt x="3610" y="530" on="1"/>
        <pt x="3676" y="442" on="0"/>
        <pt x="3686" y="404" on="1"/>
        <pt x="3690" y="389" on="0"/>
      </contour>
      <contour>
        <pt x="926" y="1611" on="1"/>
        <pt x="914" y="1582" on="0"/>
        <pt x="890" y="1545" on="1"/>
        <pt x="801" y="1485" on="0"/>
        <pt x="663" y="1416" on="1"/>
        <pt x="547" y="1357" on="0"/>
        <pt x="431" y="1298" on="1"/>
        <pt x="396" y="1298" on="1"/>
        <pt x="383" y="1300" on="0"/>
        <pt x="383" y="1324" on="1"/>
        <pt x="383" y="1368" on="0"/>
        <pt x="409" y="1385" on="1"/>
        <pt x="460" y="1421" on="0"/>
        <pt x="545" y="1461" on="1"/>
        <pt x="614" y="1493" on="0"/>
        <pt x="683" y="1525" on="1"/>
        <pt x="760" y="1569" on="0"/>
        <pt x="902" y="1636" on="1"/>
      </contour>
      <contour>
        <pt x="947" y="1135" on="1"/>
        <pt x="947" y="1101" on="0"/>
        <pt x="903" y="1069" on="1"/>
        <pt x="867" y="1042" on="0"/>
        <pt x="849" y="1042" on="1"/>
        <pt x="838" y="1042" on="0"/>
        <pt x="765" y="1083" on="0"/>
        <pt x="752" y="1083" on="1"/>
        <pt x="740" y="1083" on="0"/>
        <pt x="663" y="1012" on="0"/>
        <pt x="650" y="1012" on="1"/>
        <pt x="615" y="1012" on="0"/>
        <pt x="547" y="1063" on="0"/>
        <pt x="547" y="1083" on="1"/>
        <pt x="547" y="1112" on="0"/>
        <pt x="591" y="1151" on="1"/>
        <pt x="631" y="1185" on="0"/>
        <pt x="645" y="1185" on="1"/>
        <pt x="650" y="1185" on="0"/>
        <pt x="727" y="1135" on="1"/>
        <pt x="836" y="1217" on="0"/>
        <pt x="845" y="1217" on="1"/>
        <pt x="876" y="1217" on="0"/>
        <pt x="914" y="1179" on="1"/>
        <pt x="947" y="1147" on="0"/>
      </contour>
      <contour>
        <pt x="2399" y="-246" on="1"/>
        <pt x="2299" y="-314" on="0"/>
        <pt x="2156" y="-374" on="1"/>
        <pt x="2040" y="-418" on="0"/>
        <pt x="1924" y="-462" on="1"/>
        <pt x="1910" y="-451" on="0"/>
        <pt x="1900" y="-451" on="1"/>
        <pt x="1900" y="-417" on="1"/>
        <pt x="1899" y="-385" on="0"/>
        <pt x="1943" y="-364" on="1"/>
        <pt x="2329" y="-186" on="0"/>
        <pt x="2354" y="-186" on="1"/>
        <pt x="2367" y="-186" on="0"/>
        <pt x="2390" y="-197" on="0"/>
        <pt x="2399" y="-196" on="1"/>
      </contour>
      <contour>
        <pt x="1715" y="-319" on="1"/>
        <pt x="1715" y="-338" on="0"/>
        <pt x="1637" y="-412" on="0"/>
        <pt x="1617" y="-412" on="1"/>
        <pt x="1605" y="-412" on="0"/>
        <pt x="1538" y="-380" on="0"/>
        <pt x="1525" y="-380" on="1"/>
        <pt x="1512" y="-380" on="0"/>
        <pt x="1430" y="-442" on="0"/>
        <pt x="1418" y="-442" on="1"/>
        <pt x="1386" y="-442" on="0"/>
        <pt x="1348" y="-398" on="1"/>
        <pt x="1316" y="-359" on="0"/>
        <pt x="1316" y="-344" on="1"/>
        <pt x="1316" y="-327" on="0"/>
        <pt x="1402" y="-258" on="0"/>
        <pt x="1423" y="-258" on="1"/>
        <pt x="1434" y="-258" on="0"/>
        <pt x="1498" y="-309" on="0"/>
        <pt x="1510" y="-309" on="1"/>
        <pt x="1523" y="-309" on="0"/>
        <pt x="1610" y="-237" on="0"/>
        <pt x="1623" y="-237" on="1"/>
        <pt x="1647" y="-237" on="0"/>
        <pt x="1715" y="-302" on="0"/>
      </contour>
      <contour>
        <pt x="2942" y="163" on="1"/>
        <pt x="2906" y="255" on="0"/>
        <pt x="2874" y="253" on="1"/>
        <pt x="2851" y="230" on="0"/>
        <pt x="2851" y="213" on="1"/>
        <pt x="2851" y="196" on="0"/>
        <pt x="2893" y="162" on="0"/>
        <pt x="2909" y="163" on="1"/>
      </contour>
      <contour>
        <pt x="854" y="407" on="1"/>
        <pt x="854" y="423" on="0"/>
        <pt x="845" y="446" on="1"/>
        <pt x="831" y="479" on="0"/>
        <pt x="808" y="479" on="1"/>
        <pt x="780" y="479" on="0"/>
        <pt x="540" y="340" on="0"/>
        <pt x="517" y="309" on="1"/>
        <pt x="555" y="284" on="0"/>
        <pt x="619" y="284" on="1"/>
        <pt x="712" y="284" on="0"/>
        <pt x="749" y="297" on="1"/>
        <pt x="854" y="335" on="0"/>
      </contour>
    </TTGlyph>
    <TTGlyph name="uni2011" xMin="353" yMin="-462" xMax="3690" yMax="1636">
      <contour>
        <pt x="3629" y="1534" on="1"/>
        <pt x="3629" y="1470" on="0"/>
        <pt x="3391" y="1366" on="1"/>
        <pt x="3388" y="1365" on="0"/>
        <pt x="3132" y="1237" on="1"/>
        <pt x="3117" y="1251" on="0"/>
        <pt x="3117" y="1272" on="1"/>
        <pt x="3117" y="1320" on="0"/>
        <pt x="3224" y="1380" on="1"/>
        <pt x="3226" y="1381" on="0"/>
        <pt x="3376" y="1454" on="1"/>
        <pt x="3459" y="1502" on="0"/>
        <pt x="3615" y="1575" on="1"/>
        <pt x="3629" y="1561" on="0"/>
      </contour>
      <contour>
        <pt x="3568" y="1063" on="1"/>
        <pt x="3568" y="1026" on="0"/>
        <pt x="3525" y="995" on="1"/>
        <pt x="3490" y="971" on="0"/>
        <pt x="3471" y="971" on="1"/>
        <pt x="3448" y="971" on="0"/>
        <pt x="3383" y="1036" on="0"/>
        <pt x="3383" y="1058" on="1"/>
        <pt x="3383" y="1076" on="0"/>
        <pt x="3463" y="1144" on="0"/>
        <pt x="3481" y="1144" on="1"/>
        <pt x="3534" y="1144" on="0"/>
      </contour>
      <contour>
        <pt x="3690" y="878" on="1"/>
        <pt x="3690" y="845" on="0"/>
        <pt x="3649" y="813" on="1"/>
        <pt x="3613" y="786" on="0"/>
        <pt x="3594" y="786" on="1"/>
        <pt x="3582" y="786" on="0"/>
        <pt x="3509" y="817" on="0"/>
        <pt x="3496" y="817" on="1"/>
        <pt x="3483" y="817" on="0"/>
        <pt x="3412" y="766" on="0"/>
        <pt x="3399" y="766" on="1"/>
        <pt x="3345" y="766" on="0"/>
        <pt x="3291" y="842" on="1"/>
        <pt x="3355" y="940" on="0"/>
        <pt x="3399" y="940" on="1"/>
        <pt x="3410" y="940" on="0"/>
        <pt x="3468" y="909" on="0"/>
        <pt x="3481" y="909" on="1"/>
        <pt x="3494" y="909" on="0"/>
        <pt x="3576" y="971" on="0"/>
        <pt x="3588" y="971" on="1"/>
        <pt x="3608" y="971" on="0"/>
        <pt x="3690" y="897" on="0"/>
      </contour>
      <contour>
        <pt x="3005" y="1518" on="1"/>
        <pt x="3005" y="1464" on="0"/>
        <pt x="2799" y="1357" on="1"/>
        <pt x="2524" y="1214" on="0"/>
        <pt x="2499" y="1196" on="1"/>
        <pt x="2455" y="1196" on="1"/>
        <pt x="2442" y="1209" on="0"/>
        <pt x="2442" y="1226" on="1"/>
        <pt x="2442" y="1276" on="0"/>
        <pt x="2544" y="1332" on="1"/>
        <pt x="2607" y="1362" on="0"/>
        <pt x="2670" y="1392" on="1"/>
        <pt x="2737" y="1435" on="0"/>
        <pt x="2885" y="1509" on="1"/>
        <pt x="2919" y="1526" on="0"/>
        <pt x="2992" y="1553" on="1"/>
        <pt x="2992" y="1550" on="0"/>
        <pt x="3005" y="1533" on="0"/>
      </contour>
      <contour>
        <pt x="2513" y="561" on="1"/>
        <pt x="2513" y="505" on="0"/>
        <pt x="2480" y="449" on="1"/>
        <pt x="2450" y="453" on="0"/>
        <pt x="2427" y="575" on="1"/>
        <pt x="2421" y="614" on="0"/>
        <pt x="2387" y="676" on="1"/>
        <pt x="2375" y="699" on="0"/>
        <pt x="2335" y="743" on="1"/>
        <pt x="2308" y="773" on="0"/>
        <pt x="2308" y="801" on="1"/>
        <pt x="2308" y="833" on="0"/>
        <pt x="2344" y="868" on="1"/>
        <pt x="2417" y="838" on="0"/>
        <pt x="2467" y="740" on="1"/>
        <pt x="2513" y="650" on="0"/>
      </contour>
      <contour>
        <pt x="1664" y="1457" on="1"/>
        <pt x="1664" y="1411" on="0"/>
        <pt x="1450" y="1294" on="1"/>
        <pt x="1323" y="1230" on="0"/>
        <pt x="1196" y="1165" on="1"/>
        <pt x="1195" y="1167" on="0"/>
        <pt x="1176" y="1180" on="1"/>
        <pt x="1162" y="1191" on="0"/>
        <pt x="1162" y="1206" on="1"/>
        <pt x="1162" y="1223" on="0"/>
        <pt x="1202" y="1278" on="0"/>
        <pt x="1216" y="1284" on="1"/>
        <pt x="1298" y="1316" on="0"/>
        <pt x="1390" y="1362" on="1"/>
        <pt x="1474" y="1407" on="0"/>
        <pt x="1651" y="1492" on="1"/>
        <pt x="1651" y="1488" on="0"/>
        <pt x="1664" y="1471" on="0"/>
      </contour>
      <contour>
        <pt x="2063" y="668" on="1"/>
        <pt x="2063" y="633" on="0"/>
        <pt x="2019" y="605" on="1"/>
        <pt x="1984" y="582" on="0"/>
        <pt x="1965" y="582" on="1"/>
        <pt x="1936" y="582" on="0"/>
        <pt x="1904" y="608" on="1"/>
        <pt x="1869" y="636" on="0"/>
        <pt x="1869" y="668" on="1"/>
        <pt x="1869" y="691" on="0"/>
        <pt x="1935" y="755" on="0"/>
        <pt x="1960" y="755" on="1"/>
        <pt x="1994" y="755" on="0"/>
        <pt x="2063" y="693" on="0"/>
      </contour>
      <contour>
        <pt x="3690" y="336" on="1"/>
        <pt x="3690" y="187" on="0"/>
        <pt x="3628" y="125" on="1"/>
        <pt x="3579" y="76" on="0"/>
        <pt x="3461" y="61" on="1"/>
        <pt x="3339" y="48" on="0"/>
        <pt x="3217" y="35" on="1"/>
        <pt x="3178" y="-10" on="0"/>
        <pt x="3156" y="-19" on="1"/>
        <pt x="3148" y="-22" on="0"/>
        <pt x="3107" y="-22" on="1"/>
        <pt x="3094" y="-22" on="0"/>
        <pt x="2910" y="-12" on="0"/>
        <pt x="2897" y="-12" on="1"/>
        <pt x="2868" y="-12" on="0"/>
        <pt x="2816" y="15" on="1"/>
        <pt x="2756" y="46" on="0"/>
        <pt x="2742" y="80" on="1"/>
        <pt x="2553" y="-12" on="0"/>
        <pt x="2324" y="-12" on="1"/>
        <pt x="2222" y="-12" on="0"/>
        <pt x="2127" y="21" on="1"/>
        <pt x="2101" y="30" on="0"/>
        <pt x="2037" y="78" on="1"/>
        <pt x="1978" y="120" on="0"/>
        <pt x="1971" y="120" on="1"/>
        <pt x="1943" y="120" on="0"/>
        <pt x="1824" y="-22" on="0"/>
        <pt x="1766" y="-22" on="1"/>
        <pt x="1755" y="-22" on="0"/>
        <pt x="1554" y="49" on="0"/>
        <pt x="1541" y="49" on="1"/>
        <pt x="1531" y="49" on="0"/>
        <pt x="1474" y="14" on="1"/>
        <pt x="1415" y="-23" on="0"/>
        <pt x="1383" y="-30" on="1"/>
        <pt x="1318" y="-43" on="0"/>
        <pt x="1229" y="-43" on="1"/>
        <pt x="934" y="-43" on="0"/>
        <pt x="892" y="237" on="1"/>
        <pt x="886" y="251" on="0"/>
        <pt x="870" y="274" on="1"/>
        <pt x="668" y="131" on="0"/>
        <pt x="599" y="131" on="1"/>
        <pt x="569" y="131" on="0"/>
        <pt x="472" y="152" on="1"/>
        <pt x="372" y="173" on="0"/>
        <pt x="353" y="184" on="1"/>
        <pt x="385" y="325" on="0"/>
        <pt x="558" y="449" on="1"/>
        <pt x="684" y="529" on="0"/>
        <pt x="811" y="609" on="1"/>
        <pt x="810" y="667" on="0"/>
        <pt x="816" y="782" on="1"/>
        <pt x="822" y="839" on="0"/>
        <pt x="858" y="868" on="1"/>
        <pt x="876" y="868" on="0"/>
        <pt x="891" y="844" on="1"/>
        <pt x="894" y="796" on="0"/>
        <pt x="908" y="700" on="1"/>
        <pt x="935" y="555" on="0"/>
        <pt x="961" y="410" on="1"/>
        <pt x="990" y="263" on="0"/>
        <pt x="1043" y="201" on="1"/>
        <pt x="1113" y="120" on="0"/>
        <pt x="1264" y="120" on="1"/>
        <pt x="1401" y="120" on="0"/>
        <pt x="1461" y="153" on="1"/>
        <pt x="1488" y="168" on="0"/>
        <pt x="1533" y="261" on="1"/>
        <pt x="1549" y="293" on="0"/>
        <pt x="1600" y="293" on="1"/>
        <pt x="1608" y="265" on="0"/>
        <pt x="1614" y="170" on="1"/>
        <pt x="1667" y="141" on="0"/>
        <pt x="1751" y="141" on="1"/>
        <pt x="1861" y="141" on="0"/>
        <pt x="1968" y="284" on="0"/>
        <pt x="2012" y="284" on="1"/>
        <pt x="2021" y="284" on="0"/>
        <pt x="2101" y="231" on="1"/>
        <pt x="2186" y="174" on="0"/>
        <pt x="2223" y="164" on="1"/>
        <pt x="2268" y="152" on="0"/>
        <pt x="2577" y="152" on="0"/>
        <pt x="2554" y="150" on="1"/>
        <pt x="2644" y="156" on="0"/>
        <pt x="2711" y="194" on="1"/>
        <pt x="2722" y="202" on="0"/>
        <pt x="2807" y="302" on="1"/>
        <pt x="2877" y="387" on="0"/>
        <pt x="2928" y="387" on="1"/>
        <pt x="2946" y="387" on="0"/>
        <pt x="3173" y="202" on="0"/>
        <pt x="3276" y="202" on="1"/>
        <pt x="3361" y="202" on="0"/>
        <pt x="3446" y="217" on="1"/>
        <pt x="3588" y="241" on="0"/>
        <pt x="3588" y="295" on="1"/>
        <pt x="3588" y="339" on="0"/>
        <pt x="3533" y="390" on="1"/>
        <pt x="3469" y="449" on="0"/>
        <pt x="3468" y="451" on="1"/>
        <pt x="3455" y="483" on="0"/>
        <pt x="3455" y="505" on="1"/>
        <pt x="3455" y="515" on="0"/>
        <pt x="3477" y="588" on="0"/>
        <pt x="3477" y="610" on="1"/>
        <pt x="3481" y="610" on="0"/>
        <pt x="3497" y="623" on="0"/>
        <pt x="3512" y="623" on="1"/>
        <pt x="3541" y="623" on="0"/>
        <pt x="3610" y="530" on="1"/>
        <pt x="3676" y="442" on="0"/>
        <pt x="3686" y="404" on="1"/>
        <pt x="3690" y="389" on="0"/>
      </contour>
      <contour>
        <pt x="926" y="1611" on="1"/>
        <pt x="914" y="1582" on="0"/>
        <pt x="890" y="1545" on="1"/>
        <pt x="801" y="1485" on="0"/>
        <pt x="663" y="1416" on="1"/>
        <pt x="547" y="1357" on="0"/>
        <pt x="431" y="1298" on="1"/>
        <pt x="396" y="1298" on="1"/>
        <pt x="383" y="1300" on="0"/>
        <pt x="383" y="1324" on="1"/>
        <pt x="383" y="1368" on="0"/>
        <pt x="409" y="1385" on="1"/>
        <pt x="460" y="1421" on="0"/>
        <pt x="545" y="1461" on="1"/>
        <pt x="614" y="1493" on="0"/>
        <pt x="683" y="1525" on="1"/>
        <pt x="760" y="1569" on="0"/>
        <pt x="902" y="1636" on="1"/>
      </contour>
      <contour>
        <pt x="947" y="1135" on="1"/>
        <pt x="947" y="1101" on="0"/>
        <pt x="903" y="1069" on="1"/>
        <pt x="867" y="1042" on="0"/>
        <pt x="849" y="1042" on="1"/>
        <pt x="838" y="1042" on="0"/>
        <pt x="765" y="1083" on="0"/>
        <pt x="752" y="1083" on="1"/>
        <pt x="740" y="1083" on="0"/>
        <pt x="663" y="1012" on="0"/>
        <pt x="650" y="1012" on="1"/>
        <pt x="615" y="1012" on="0"/>
        <pt x="547" y="1063" on="0"/>
        <pt x="547" y="1083" on="1"/>
        <pt x="547" y="1112" on="0"/>
        <pt x="591" y="1151" on="1"/>
        <pt x="631" y="1185" on="0"/>
        <pt x="645" y="1185" on="1"/>
        <pt x="650" y="1185" on="0"/>
        <pt x="727" y="1135" on="1"/>
        <pt x="836" y="1217" on="0"/>
        <pt x="845" y="1217" on="1"/>
        <pt x="876" y="1217" on="0"/>
        <pt x="914" y="1179" on="1"/>
        <pt x="947" y="1147" on="0"/>
      </contour>
      <contour>
        <pt x="2399" y="-246" on="1"/>
        <pt x="2299" y="-314" on="0"/>
        <pt x="2156" y="-374" on="1"/>
        <pt x="2040" y="-418" on="0"/>
        <pt x="1924" y="-462" on="1"/>
        <pt x="1910" y="-451" on="0"/>
        <pt x="1900" y="-451" on="1"/>
        <pt x="1900" y="-417" on="1"/>
        <pt x="1899" y="-385" on="0"/>
        <pt x="1943" y="-364" on="1"/>
        <pt x="2329" y="-186" on="0"/>
        <pt x="2354" y="-186" on="1"/>
        <pt x="2367" y="-186" on="0"/>
        <pt x="2390" y="-197" on="0"/>
        <pt x="2399" y="-196" on="1"/>
      </contour>
      <contour>
        <pt x="1715" y="-319" on="1"/>
        <pt x="1715" y="-338" on="0"/>
        <pt x="1637" y="-412" on="0"/>
        <pt x="1617" y="-412" on="1"/>
        <pt x="1605" y="-412" on="0"/>
        <pt x="1538" y="-380" on="0"/>
        <pt x="1525" y="-380" on="1"/>
        <pt x="1512" y="-380" on="0"/>
        <pt x="1430" y="-442" on="0"/>
        <pt x="1418" y="-442" on="1"/>
        <pt x="1386" y="-442" on="0"/>
        <pt x="1348" y="-398" on="1"/>
        <pt x="1316" y="-359" on="0"/>
        <pt x="1316" y="-344" on="1"/>
        <pt x="1316" y="-327" on="0"/>
        <pt x="1402" y="-258" on="0"/>
        <pt x="1423" y="-258" on="1"/>
        <pt x="1434" y="-258" on="0"/>
        <pt x="1498" y="-309" on="0"/>
        <pt x="1510" y="-309" on="1"/>
        <pt x="1523" y="-309" on="0"/>
        <pt x="1610" y="-237" on="0"/>
        <pt x="1623" y="-237" on="1"/>
        <pt x="1647" y="-237" on="0"/>
        <pt x="1715" y="-302" on="0"/>
      </contour>
      <contour>
        <pt x="2942" y="163" on="1"/>
        <pt x="2906" y="255" on="0"/>
        <pt x="2874" y="253" on="1"/>
        <pt x="2851" y="230" on="0"/>
        <pt x="2851" y="213" on="1"/>
        <pt x="2851" y="196" on="0"/>
        <pt x="2893" y="162" on="0"/>
        <pt x="2909" y="163" on="1"/>
      </contour>
      <contour>
        <pt x="854" y="407" on="1"/>
        <pt x="854" y="423" on="0"/>
        <pt x="845" y="446" on="1"/>
        <pt x="831" y="479" on="0"/>
        <pt x="808" y="479" on="1"/>
        <pt x="780" y="479" on="0"/>
        <pt x="540" y="340" on="0"/>
        <pt x="517" y="309" on="1"/>
        <pt x="555" y="284" on="0"/>
        <pt x="619" y="284" on="1"/>
        <pt x="712" y="284" on="0"/>
        <pt x="749" y="297" on="1"/>
        <pt x="854" y="335" on="0"/>
      </contour>
    </TTGlyph>
    <TTGlyph name="uniE000" xMin="0" yMin="0" xMax="1825" yMax="1825">
      <contour>
        <pt x="0" y="1825" on="1"/>
        <pt x="1825" y="1825" on="1"/>
        <pt x="1825" y="0" on="1"/>
        <pt x="0" y="0" on="1"/>
      </contour>
    </TTGlyph>
    <TTGlyph name="uniFB51" xMin="27" yMin="-354" xMax="3926" yMax="1724">
      <contour>
        <pt x="3587" y="1411" on="1"/>
        <pt x="3589" y="1375" on="0"/>
        <pt x="3554" y="1358" on="1"/>
        <pt x="3501" y="1340" on="0"/>
        <pt x="3401" y="1301" on="1"/>
        <pt x="3292" y="1241" on="0"/>
        <pt x="3081" y="1140" on="1"/>
        <pt x="3067" y="1152" on="0"/>
        <pt x="3056" y="1152" on="1"/>
        <pt x="3056" y="1185" on="1"/>
        <pt x="3056" y="1214" on="0"/>
        <pt x="3111" y="1246" on="1"/>
        <pt x="3142" y="1261" on="0"/>
        <pt x="3171" y="1275" on="1"/>
        <pt x="3216" y="1303" on="0"/>
        <pt x="3305" y="1351" on="1"/>
        <pt x="3541" y="1468" on="0"/>
        <pt x="3553" y="1468" on="1"/>
        <pt x="3567" y="1468" on="0"/>
        <pt x="3584" y="1457" on="0"/>
        <pt x="3587" y="1457" on="1"/>
      </contour>
      <contour>
        <pt x="3383" y="762" on="1"/>
        <pt x="3383" y="726" on="0"/>
        <pt x="3340" y="695" on="1"/>
        <pt x="3303" y="669" on="0"/>
        <pt x="3281" y="669" on="1"/>
        <pt x="3235" y="669" on="0"/>
        <pt x="3169" y="733" on="1"/>
        <pt x="3175" y="765" on="0"/>
        <pt x="3201" y="804" on="1"/>
        <pt x="3234" y="854" on="0"/>
        <pt x="3271" y="854" on="1"/>
        <pt x="3297" y="854" on="0"/>
        <pt x="3383" y="782" on="0"/>
      </contour>
      <contour>
        <pt x="2893" y="1493" on="1"/>
        <pt x="2893" y="1448" on="0"/>
        <pt x="2859" y="1430" on="1"/>
        <pt x="2703" y="1351" on="0"/>
        <pt x="2387" y="1162" on="1"/>
        <pt x="2353" y="1162" on="1"/>
        <pt x="2340" y="1175" on="0"/>
        <pt x="2340" y="1192" on="1"/>
        <pt x="2340" y="1208" on="0"/>
        <pt x="2369" y="1262" on="0"/>
        <pt x="2383" y="1269" on="1"/>
        <pt x="2420" y="1289" on="0"/>
        <pt x="2652" y="1423" on="1"/>
        <pt x="2799" y="1509" on="0"/>
        <pt x="2878" y="1529" on="1"/>
        <pt x="2893" y="1516" on="0"/>
      </contour>
      <contour>
        <pt x="2206" y="1407" on="1"/>
        <pt x="2206" y="1362" on="0"/>
        <pt x="2179" y="1346" on="1"/>
        <pt x="2017" y="1258" on="0"/>
        <pt x="1691" y="1080" on="1"/>
        <pt x="1656" y="1080" on="1"/>
        <pt x="1643" y="1093" on="0"/>
        <pt x="1643" y="1110" on="1"/>
        <pt x="1643" y="1184" on="0"/>
        <pt x="2171" y="1448" on="1"/>
        <pt x="2181" y="1440" on="0"/>
        <pt x="2192" y="1433" on="1"/>
        <pt x="2206" y="1422" on="0"/>
      </contour>
      <contour>
        <pt x="2401" y="797" on="1"/>
        <pt x="2401" y="765" on="0"/>
        <pt x="2358" y="731" on="1"/>
        <pt x="2320" y="700" on="0"/>
        <pt x="2299" y="700" on="1"/>
        <pt x="2289" y="700" on="0"/>
        <pt x="2225" y="731" on="0"/>
        <pt x="2211" y="731" on="1"/>
        <pt x="2199" y="731" on="0"/>
        <pt x="2122" y="680" on="0"/>
        <pt x="2109" y="680" on="1"/>
        <pt x="2082" y="680" on="0"/>
        <pt x="2046" y="701" on="1"/>
        <pt x="2001" y="727" on="0"/>
        <pt x="2001" y="756" on="1"/>
        <pt x="2001" y="774" on="0"/>
        <pt x="2078" y="854" on="0"/>
        <pt x="2099" y="854" on="1"/>
        <pt x="2109" y="854" on="0"/>
        <pt x="2162" y="823" on="0"/>
        <pt x="2176" y="823" on="1"/>
        <pt x="2188" y="823" on="0"/>
        <pt x="2276" y="885" on="0"/>
        <pt x="2288" y="885" on="1"/>
        <pt x="2313" y="885" on="0"/>
        <pt x="2401" y="812" on="0"/>
      </contour>
      <contour>
        <pt x="3926" y="265" on="1"/>
        <pt x="3926" y="244" on="0"/>
        <pt x="3838" y="137" on="0"/>
        <pt x="3819" y="137" on="1"/>
        <pt x="3806" y="137" on="0"/>
        <pt x="3693" y="147" on="0"/>
        <pt x="3681" y="147" on="1"/>
        <pt x="3536" y="147" on="0"/>
        <pt x="3124" y="-16" on="0"/>
        <pt x="2984" y="-16" on="1"/>
        <pt x="2890" y="-16" on="0"/>
        <pt x="2848" y="-4" on="1"/>
        <pt x="2765" y="18" on="0"/>
        <pt x="2703" y="96" on="1"/>
        <pt x="2668" y="63" on="0"/>
        <pt x="2563" y="37" on="1"/>
        <pt x="2471" y="14" on="0"/>
        <pt x="2411" y="14" on="1"/>
        <pt x="2398" y="14" on="0"/>
        <pt x="2194" y="55" on="0"/>
        <pt x="2181" y="55" on="1"/>
        <pt x="2168" y="55" on="0"/>
        <pt x="2124" y="39" on="1"/>
        <pt x="2073" y="20" on="0"/>
        <pt x="2059" y="17" on="1"/>
        <pt x="1960" y="-6" on="0"/>
        <pt x="1812" y="-6" on="1"/>
        <pt x="1688" y="-6" on="0"/>
        <pt x="1598" y="43" on="1"/>
        <pt x="1538" y="78" on="0"/>
        <pt x="1420" y="186" on="1"/>
        <pt x="1214" y="375" on="0"/>
        <pt x="1046" y="445" on="1"/>
        <pt x="1041" y="424" on="0"/>
        <pt x="1049" y="379" on="1"/>
        <pt x="1059" y="327" on="0"/>
        <pt x="1059" y="321" on="1"/>
        <pt x="1059" y="217" on="0"/>
        <pt x="1003" y="139" on="1"/>
        <pt x="994" y="126" on="0"/>
        <pt x="956" y="109" on="1"/>
        <pt x="911" y="88" on="0"/>
        <pt x="896" y="77" on="1"/>
        <pt x="887" y="70" on="0"/>
        <pt x="885" y="43" on="1"/>
        <pt x="881" y="8" on="0"/>
        <pt x="881" y="7" on="1"/>
        <pt x="847" y="-108" on="0"/>
        <pt x="732" y="-108" on="1"/>
        <pt x="720" y="-108" on="0"/>
        <pt x="635" y="-88" on="0"/>
        <pt x="624" y="-88" on="1"/>
        <pt x="617" y="-88" on="0"/>
        <pt x="550" y="-162" on="1"/>
        <pt x="475" y="-244" on="0"/>
        <pt x="422" y="-269" on="1"/>
        <pt x="354" y="-301" on="0"/>
        <pt x="212" y="-330" on="1"/>
        <pt x="94" y="-354" on="0"/>
        <pt x="61" y="-354" on="1"/>
        <pt x="47" y="-354" on="0"/>
        <pt x="30" y="-342" on="0"/>
        <pt x="27" y="-342" on="1"/>
        <pt x="27" y="-305" on="1"/>
        <pt x="56" y="-298" on="0"/>
        <pt x="111" y="-280" on="1"/>
        <pt x="157" y="-248" on="0"/>
        <pt x="244" y="-204" on="1"/>
        <pt x="396" y="-163" on="0"/>
        <pt x="523" y="-40" on="1"/>
        <pt x="500" y="68" on="0"/>
        <pt x="510" y="93" on="1"/>
        <pt x="539" y="167" on="0"/>
        <pt x="590" y="224" on="1"/>
        <pt x="651" y="291" on="0"/>
        <pt x="711" y="291" on="1"/>
        <pt x="722" y="291" on="0"/>
        <pt x="855" y="250" on="0"/>
        <pt x="870" y="250" on="1"/>
        <pt x="908" y="250" on="0"/>
        <pt x="968" y="287" on="1"/>
        <pt x="972" y="387" on="0"/>
        <pt x="872" y="518" on="1"/>
        <pt x="852" y="545" on="0"/>
        <pt x="592" y="804" on="1"/>
        <pt x="568" y="828" on="0"/>
        <pt x="568" y="869" on="1"/>
        <pt x="568" y="982" on="0"/>
        <pt x="711" y="1105" on="1"/>
        <pt x="813" y="1194" on="0"/>
        <pt x="995" y="1291" on="1"/>
        <pt x="1100" y="1344" on="0"/>
        <pt x="1205" y="1398" on="1"/>
        <pt x="1452" y="1543" on="0"/>
        <pt x="1750" y="1683" on="1"/>
        <pt x="1794" y="1683" on="1"/>
        <pt x="1807" y="1670" on="0"/>
        <pt x="1807" y="1652" on="1"/>
        <pt x="1807" y="1636" on="0"/>
        <pt x="1747" y="1550" on="0"/>
        <pt x="1723" y="1533" on="1"/>
        <pt x="1679" y="1502" on="0"/>
        <pt x="1597" y="1465" on="1"/>
        <pt x="1489" y="1416" on="0"/>
        <pt x="1466" y="1403" on="1"/>
        <pt x="1280" y="1310" on="0"/>
        <pt x="913" y="1117" on="1"/>
        <pt x="870" y="1093" on="0"/>
        <pt x="790" y="1038" on="1"/>
        <pt x="681" y="963" on="0"/>
        <pt x="681" y="940" on="1"/>
        <pt x="681" y="898" on="0"/>
        <pt x="972" y="694" on="1"/>
        <pt x="1372" y="415" on="0"/>
        <pt x="1545" y="265" on="1"/>
        <pt x="1653" y="172" on="0"/>
        <pt x="1731" y="160" on="1"/>
        <pt x="1747" y="157" on="0"/>
        <pt x="1853" y="157" on="1"/>
        <pt x="1988" y="157" on="0"/>
        <pt x="2046" y="180" on="1"/>
        <pt x="2071" y="190" on="0"/>
        <pt x="2069" y="218" on="1"/>
        <pt x="2065" y="266" on="0"/>
        <pt x="2065" y="266" on="1"/>
        <pt x="2079" y="330" on="0"/>
        <pt x="2154" y="428" on="1"/>
        <pt x="2243" y="546" on="0"/>
        <pt x="2319" y="546" on="1"/>
        <pt x="2378" y="546" on="0"/>
        <pt x="2414" y="473" on="1"/>
        <pt x="2442" y="416" on="0"/>
        <pt x="2442" y="367" on="1"/>
        <pt x="2442" y="323" on="0"/>
        <pt x="2370" y="204" on="1"/>
        <pt x="2385" y="180" on="0"/>
        <pt x="2417" y="177" on="1"/>
        <pt x="2407" y="178" on="0"/>
        <pt x="2472" y="178" on="1"/>
        <pt x="2677" y="178" on="0"/>
        <pt x="2677" y="291" on="1"/>
        <pt x="2616" y="1063" on="1"/>
        <pt x="2616" y="1090" on="0"/>
        <pt x="2670" y="1171" on="1"/>
        <pt x="2706" y="1171" on="1"/>
        <pt x="2720" y="1144" on="0"/>
        <pt x="2734" y="1094" on="1"/>
        <pt x="2739" y="936" on="0"/>
        <pt x="2752" y="614" on="1"/>
        <pt x="2760" y="541" on="0"/>
        <pt x="2775" y="399" on="1"/>
        <pt x="2781" y="342" on="0"/>
        <pt x="2787" y="286" on="1"/>
        <pt x="2803" y="188" on="0"/>
        <pt x="2841" y="188" on="1"/>
        <pt x="2854" y="188" on="0"/>
        <pt x="2898" y="247" on="1"/>
        <pt x="2960" y="327" on="0"/>
        <pt x="2978" y="347" on="1"/>
        <pt x="3070" y="444" on="0"/>
        <pt x="3169" y="444" on="1"/>
        <pt x="3206" y="444" on="0"/>
        <pt x="3253" y="423" on="1"/>
        <pt x="3323" y="390" on="0"/>
        <pt x="3339" y="385" on="1"/>
        <pt x="3616" y="298" on="0"/>
        <pt x="3826" y="298" on="1"/>
        <pt x="3865" y="298" on="0"/>
        <pt x="3903" y="301" on="1"/>
        <pt x="3926" y="277" on="0"/>
      </contour>
      <contour>
        <pt x="895" y="1402" on="1"/>
        <pt x="895" y="1356" on="0"/>
        <pt x="849" y="1356" on="1"/>
        <pt x="837" y="1356" on="0"/>
        <pt x="776" y="1397" on="0"/>
        <pt x="763" y="1397" on="1"/>
        <pt x="751" y="1397" on="0"/>
        <pt x="678" y="1329" on="1"/>
        <pt x="589" y="1246" on="0"/>
        <pt x="500" y="1185" on="0"/>
        <pt x="429" y="1148" on="1"/>
        <pt x="355" y="1110" on="0"/>
        <pt x="337" y="1111" on="1"/>
        <pt x="292" y="1111" on="1"/>
        <pt x="340" y="1182" on="0"/>
        <pt x="470" y="1271" on="1"/>
        <pt x="609" y="1366" on="0"/>
        <pt x="660" y="1432" on="1"/>
        <pt x="635" y="1452" on="0"/>
        <pt x="578" y="1501" on="1"/>
        <pt x="582" y="1559" on="0"/>
        <pt x="614" y="1627" on="1"/>
        <pt x="660" y="1724" on="0"/>
        <pt x="732" y="1724" on="1"/>
        <pt x="754" y="1724" on="0"/>
        <pt x="777" y="1709" on="1"/>
        <pt x="816" y="1674" on="0"/>
        <pt x="816" y="1616" on="1"/>
        <pt x="816" y="1598" on="0"/>
        <pt x="812" y="1569" on="1"/>
        <pt x="807" y="1534" on="0"/>
        <pt x="806" y="1525" on="1"/>
        <pt x="810" y="1518" on="0"/>
        <pt x="858" y="1468" on="1"/>
        <pt x="895" y="1429" on="0"/>
      </contour>
      <contour>
        <pt x="3281" y="214" on="1"/>
        <pt x="3228" y="242" on="0"/>
        <pt x="3175" y="270" on="1"/>
        <pt x="3153" y="280" on="0"/>
        <pt x="3112" y="280" on="1"/>
        <pt x="3024" y="280" on="0"/>
        <pt x="2934" y="161" on="1"/>
        <pt x="2971" y="147" on="0"/>
        <pt x="3030" y="147" on="1"/>
        <pt x="3148" y="147" on="0"/>
      </contour>
      <contour>
        <pt x="2319" y="321" on="1"/>
        <pt x="2319" y="342" on="0"/>
        <pt x="2291" y="383" on="0"/>
        <pt x="2272" y="383" on="1"/>
        <pt x="2249" y="383" on="0"/>
        <pt x="2176" y="314" on="0"/>
        <pt x="2176" y="291" on="1"/>
        <pt x="2176" y="276" on="0"/>
        <pt x="2187" y="254" on="0"/>
        <pt x="2187" y="251" on="1"/>
        <pt x="2251" y="251" on="1"/>
        <pt x="2272" y="250" on="0"/>
        <pt x="2296" y="279" on="1"/>
        <pt x="2319" y="305" on="0"/>
      </contour>
      <contour>
        <pt x="731" y="1552" on="1"/>
        <pt x="731" y="1588" on="1"/>
        <pt x="682" y="1600" on="1"/>
        <pt x="682" y="1584" on="0"/>
        <pt x="715" y="1552" on="0"/>
      </contour>
      <contour>
        <pt x="762" y="66" on="1"/>
        <pt x="754" y="92" on="0"/>
        <pt x="703" y="147" on="0"/>
        <pt x="685" y="147" on="1"/>
        <pt x="643" y="147" on="1"/>
        <pt x="619" y="121" on="1"/>
        <pt x="677" y="64" on="0"/>
        <pt x="728" y="66" on="1"/>
      </contour>
    </TTGlyph>
    <TTGlyph name="uniFB52" xMin="102" yMin="-394" xMax="1699" yMax="1273">
      <contour>
        <pt x="1648" y="1222" on="1"/>
        <pt x="1648" y="1183" on="0"/>
        <pt x="1626" y="1126" on="1"/>
        <pt x="1599" y="1057" on="0"/>
        <pt x="1563" y="1041" on="1"/>
        <pt x="1514" y="1035" on="0"/>
        <pt x="1428" y="1024" on="1"/>
        <pt x="1421" y="1023" on="0"/>
        <pt x="1389" y="1009" on="1"/>
        <pt x="1360" y="997" on="0"/>
        <pt x="1346" y="997" on="1"/>
        <pt x="1319" y="997" on="0"/>
        <pt x="1292" y="1013" on="1"/>
        <pt x="1259" y="1032" on="0"/>
        <pt x="1259" y="1063" on="1"/>
        <pt x="1259" y="1079" on="0"/>
        <pt x="1291" y="1142" on="1"/>
        <pt x="1330" y="1216" on="0"/>
        <pt x="1364" y="1232" on="1"/>
        <pt x="1367" y="1217" on="0"/>
        <pt x="1359" y="1179" on="1"/>
        <pt x="1350" y="1135" on="0"/>
        <pt x="1350" y="1117" on="1"/>
        <pt x="1358" y="1110" on="0"/>
        <pt x="1372" y="1110" on="1"/>
        <pt x="1409" y="1110" on="0"/>
        <pt x="1427" y="1152" on="1"/>
        <pt x="1442" y="1189" on="0"/>
        <pt x="1458" y="1227" on="1"/>
        <pt x="1487" y="1242" on="0"/>
        <pt x="1502" y="1242" on="1"/>
        <pt x="1514" y="1218" on="0"/>
        <pt x="1514" y="1149" on="1"/>
        <pt x="1506" y="1140" on="0"/>
        <pt x="1530" y="1140" on="1"/>
        <pt x="1559" y="1140" on="0"/>
        <pt x="1577" y="1196" on="1"/>
        <pt x="1598" y="1258" on="0"/>
        <pt x="1634" y="1273" on="1"/>
        <pt x="1648" y="1259" on="0"/>
      </contour>
      <contour>
        <pt x="1679" y="-159" on="1"/>
        <pt x="1679" y="-212" on="0"/>
        <pt x="1476" y="-299" on="1"/>
        <pt x="1443" y="-312" on="0"/>
        <pt x="1222" y="-394" on="1"/>
        <pt x="1197" y="-371" on="0"/>
        <pt x="1197" y="-354" on="1"/>
        <pt x="1197" y="-312" on="0"/>
        <pt x="1299" y="-270" on="1"/>
        <pt x="1357" y="-249" on="0"/>
        <pt x="1415" y="-229" on="1"/>
        <pt x="1487" y="-200" on="0"/>
        <pt x="1631" y="-129" on="1"/>
        <pt x="1666" y="-129" on="1"/>
        <pt x="1679" y="-142" on="0"/>
      </contour>
      <contour>
        <pt x="644" y="546" on="1"/>
        <pt x="644" y="514" on="0"/>
        <pt x="579" y="444" on="0"/>
        <pt x="548" y="444" on="1"/>
        <pt x="521" y="444" on="0"/>
        <pt x="440" y="513" on="0"/>
        <pt x="440" y="541" on="1"/>
        <pt x="440" y="570" on="0"/>
        <pt x="511" y="649" on="0"/>
        <pt x="532" y="649" on="1"/>
        <pt x="557" y="649" on="0"/>
        <pt x="603" y="605" on="1"/>
        <pt x="644" y="564" on="0"/>
      </contour>
      <contour>
        <pt x="1699" y="286" on="1"/>
        <pt x="1699" y="127" on="0"/>
        <pt x="1566" y="127" on="1"/>
        <pt x="1490" y="127" on="0"/>
        <pt x="1406" y="150" on="1"/>
        <pt x="1400" y="152" on="0"/>
        <pt x="1368" y="171" on="1"/>
        <pt x="1340" y="188" on="0"/>
        <pt x="1325" y="188" on="1"/>
        <pt x="1314" y="188" on="0"/>
        <pt x="1269" y="139" on="1"/>
        <pt x="1218" y="83" on="0"/>
        <pt x="1195" y="69" on="1"/>
        <pt x="1183" y="61" on="0"/>
        <pt x="1051" y="52" on="1"/>
        <pt x="1023" y="19" on="0"/>
        <pt x="1004" y="-54" on="1"/>
        <pt x="975" y="-167" on="0"/>
        <pt x="968" y="-187" on="1"/>
        <pt x="955" y="-222" on="0"/>
        <pt x="816" y="-306" on="1"/>
        <pt x="685" y="-385" on="0"/>
        <pt x="496" y="-385" on="1"/>
        <pt x="364" y="-385" on="0"/>
        <pt x="248" y="-321" on="1"/>
        <pt x="102" y="-240" on="0"/>
        <pt x="102" y="-103" on="1"/>
        <pt x="102" y="-18" on="0"/>
        <pt x="244" y="214" on="0"/>
        <pt x="303" y="229" on="1"/>
        <pt x="317" y="215" on="0"/>
        <pt x="317" y="198" on="1"/>
        <pt x="317" y="187" on="0"/>
        <pt x="214" y="17" on="0"/>
        <pt x="214" y="-31" on="1"/>
        <pt x="214" y="-110" on="0"/>
        <pt x="333" y="-176" on="1"/>
        <pt x="434" y="-231" on="0"/>
        <pt x="507" y="-231" on="1"/>
        <pt x="598" y="-231" on="0"/>
        <pt x="737" y="-186" on="1"/>
        <pt x="921" y="-127" on="0"/>
        <pt x="921" y="-41" on="1"/>
        <pt x="921" y="45" on="0"/>
        <pt x="808" y="282" on="0"/>
        <pt x="808" y="275" on="1"/>
        <pt x="808" y="320" on="0"/>
        <pt x="862" y="392" on="1"/>
        <pt x="894" y="395" on="0"/>
        <pt x="928" y="334" on="1"/>
        <pt x="971" y="256" on="0"/>
        <pt x="991" y="241" on="1"/>
        <pt x="1031" y="209" on="0"/>
        <pt x="1120" y="209" on="1"/>
        <pt x="1205" y="209" on="0"/>
        <pt x="1253" y="246" on="1"/>
        <pt x="1289" y="273" on="0"/>
        <pt x="1344" y="360" on="1"/>
        <pt x="1366" y="394" on="0"/>
        <pt x="1441" y="464" on="1"/>
        <pt x="1528" y="546" on="0"/>
        <pt x="1566" y="546" on="1"/>
        <pt x="1624" y="546" on="0"/>
        <pt x="1666" y="433" on="1"/>
        <pt x="1699" y="344" on="0"/>
      </contour>
      <contour>
        <pt x="1555" y="315" on="1"/>
        <pt x="1544" y="336" on="0"/>
        <pt x="1532" y="357" on="1"/>
        <pt x="1518" y="383" on="0"/>
        <pt x="1500" y="383" on="1"/>
        <pt x="1469" y="383" on="0"/>
        <pt x="1444" y="324" on="1"/>
        <pt x="1514" y="301" on="0"/>
      </contour>
    </TTGlyph>
    <TTGlyph name="uniFB53" xMin="157" yMin="-767" xMax="3055" yMax="1710">
      <contour>
        <pt x="3055" y="1674" on="1"/>
        <pt x="3055" y="1633" on="0"/>
        <pt x="3031" y="1620" on="1"/>
        <pt x="2910" y="1561" on="0"/>
        <pt x="2715" y="1480" on="1"/>
        <pt x="2525" y="1402" on="0"/>
        <pt x="2506" y="1403" on="1"/>
        <pt x="2461" y="1403" on="1"/>
        <pt x="2461" y="1448" on="1"/>
        <pt x="2461" y="1490" on="0"/>
        <pt x="2741" y="1589" on="1"/>
        <pt x="2839" y="1634" on="0"/>
        <pt x="3041" y="1710" on="1"/>
        <pt x="3055" y="1696" on="0"/>
      </contour>
      <contour>
        <pt x="2941" y="1345" on="1"/>
        <pt x="2941" y="1325" on="0"/>
        <pt x="2908" y="1262" on="1"/>
        <pt x="2871" y="1194" on="0"/>
        <pt x="2847" y="1180" on="1"/>
        <pt x="2810" y="1172" on="0"/>
        <pt x="2733" y="1153" on="1"/>
        <pt x="2632" y="1126" on="0"/>
        <pt x="2645" y="1126" on="1"/>
        <pt x="2563" y="1126" on="0"/>
        <pt x="2563" y="1193" on="1"/>
        <pt x="2563" y="1210" on="0"/>
        <pt x="2590" y="1252" on="1"/>
        <pt x="2620" y="1297" on="0"/>
        <pt x="2643" y="1310" on="1"/>
        <pt x="2643" y="1246" on="1"/>
        <pt x="2651" y="1239" on="0"/>
        <pt x="2670" y="1239" on="1"/>
        <pt x="2691" y="1239" on="0"/>
        <pt x="2719" y="1282" on="1"/>
        <pt x="2740" y="1316" on="0"/>
        <pt x="2760" y="1350" on="1"/>
        <pt x="2797" y="1350" on="1"/>
        <pt x="2800" y="1300" on="0"/>
        <pt x="2788" y="1285" on="1"/>
        <pt x="2804" y="1270" on="0"/>
        <pt x="2819" y="1270" on="1"/>
        <pt x="2833" y="1270" on="0"/>
        <pt x="2841" y="1278" on="1"/>
        <pt x="2856" y="1314" on="0"/>
        <pt x="2894" y="1376" on="1"/>
        <pt x="2900" y="1380" on="0"/>
        <pt x="2915" y="1392" on="1"/>
        <pt x="2931" y="1380" on="0"/>
        <pt x="2941" y="1380" on="1"/>
      </contour>
      <contour>
        <pt x="2829" y="890" on="1"/>
        <pt x="2829" y="857" on="0"/>
        <pt x="2787" y="826" on="1"/>
        <pt x="2750" y="799" on="0"/>
        <pt x="2727" y="799" on="1"/>
        <pt x="2695" y="799" on="0"/>
        <pt x="2624" y="865" on="0"/>
        <pt x="2624" y="890" on="1"/>
        <pt x="2624" y="907" on="0"/>
        <pt x="2710" y="993" on="0"/>
        <pt x="2722" y="993" on="1"/>
        <pt x="2741" y="993" on="0"/>
        <pt x="2829" y="909" on="0"/>
      </contour>
      <contour>
        <pt x="2286" y="1304" on="1"/>
        <pt x="2287" y="1281" on="0"/>
        <pt x="2223" y="1232" on="1"/>
        <pt x="2156" y="1180" on="0"/>
        <pt x="1985" y="1136" on="1"/>
        <pt x="1898" y="1149" on="1"/>
        <pt x="1915" y="1194" on="0"/>
        <pt x="1986" y="1218" on="1"/>
        <pt x="2067" y="1246" on="0"/>
        <pt x="2082" y="1265" on="1"/>
        <pt x="2070" y="1290" on="0"/>
        <pt x="2031" y="1290" on="1"/>
        <pt x="2003" y="1290" on="0"/>
        <pt x="1903" y="1221" on="1"/>
        <pt x="1895" y="1221" on="0"/>
        <pt x="1867" y="1237" on="1"/>
        <pt x="1892" y="1295" on="0"/>
        <pt x="2019" y="1402" on="0"/>
        <pt x="2061" y="1402" on="1"/>
        <pt x="2161" y="1402" on="0"/>
        <pt x="2286" y="1349" on="1"/>
      </contour>
      <contour>
        <pt x="2317" y="854" on="1"/>
        <pt x="2317" y="831" on="0"/>
        <pt x="2273" y="798" on="1"/>
        <pt x="2233" y="768" on="0"/>
        <pt x="2215" y="768" on="1"/>
        <pt x="2174" y="768" on="0"/>
        <pt x="2146" y="802" on="1"/>
        <pt x="2122" y="830" on="0"/>
        <pt x="2122" y="854" on="1"/>
        <pt x="2122" y="881" on="0"/>
        <pt x="2194" y="952" on="0"/>
        <pt x="2220" y="952" on="1"/>
        <pt x="2252" y="952" on="0"/>
        <pt x="2317" y="889" on="0"/>
      </contour>
      <contour>
        <pt x="2901" y="241" on="1"/>
        <pt x="2901" y="86" on="0"/>
        <pt x="2806" y="25" on="1"/>
        <pt x="2734" y="-20" on="0"/>
        <pt x="2583" y="-20" on="1"/>
        <pt x="2488" y="-20" on="0"/>
        <pt x="2253" y="51" on="0"/>
        <pt x="2240" y="51" on="1"/>
        <pt x="2228" y="51" on="0"/>
        <pt x="2181" y="31" on="1"/>
        <pt x="2126" y="7" on="0"/>
        <pt x="2108" y="2" on="1"/>
        <pt x="2029" y="-20" on="0"/>
        <pt x="1903" y="-20" on="1"/>
        <pt x="1746" y="-20" on="0"/>
        <pt x="1655" y="82" on="1"/>
        <pt x="1641" y="77" on="0"/>
        <pt x="1547" y="-20" on="0"/>
        <pt x="1534" y="-20" on="1"/>
        <pt x="1417" y="-20" on="0"/>
        <pt x="1378" y="-7" on="1"/>
        <pt x="1377" y="-7" on="0"/>
        <pt x="1350" y="20" on="0"/>
        <pt x="1334" y="20" on="1"/>
        <pt x="1321" y="20" on="0"/>
        <pt x="1193" y="-20" on="0"/>
        <pt x="1181" y="-20" on="1"/>
        <pt x="1170" y="-20" on="0"/>
        <pt x="1115" y="-10" on="0"/>
        <pt x="1104" y="-10" on="1"/>
        <pt x="1079" y="-10" on="0"/>
        <pt x="1023" y="-211" on="1"/>
        <pt x="996" y="-310" on="0"/>
        <pt x="808" y="-391" on="1"/>
        <pt x="649" y="-461" on="0"/>
        <pt x="546" y="-461" on="1"/>
        <pt x="404" y="-461" on="0"/>
        <pt x="289" y="-383" on="1"/>
        <pt x="157" y="-294" on="0"/>
        <pt x="157" y="-154" on="1"/>
        <pt x="157" y="-68" on="0"/>
        <pt x="217" y="43" on="1"/>
        <pt x="280" y="159" on="0"/>
        <pt x="347" y="184" on="1"/>
        <pt x="362" y="170" on="0"/>
        <pt x="362" y="148" on="1"/>
        <pt x="362" y="135" on="0"/>
        <pt x="269" y="-74" on="0"/>
        <pt x="269" y="-86" on="1"/>
        <pt x="269" y="-191" on="0"/>
        <pt x="390" y="-252" on="1"/>
        <pt x="480" y="-297" on="0"/>
        <pt x="567" y="-297" on="1"/>
        <pt x="674" y="-297" on="0"/>
        <pt x="804" y="-245" on="1"/>
        <pt x="976" y="-178" on="0"/>
        <pt x="976" y="-72" on="1"/>
        <pt x="976" y="-41" on="0"/>
        <pt x="952" y="44" on="1"/>
        <pt x="943" y="79" on="0"/>
        <pt x="896" y="154" on="1"/>
        <pt x="853" y="224" on="0"/>
        <pt x="853" y="235" on="1"/>
        <pt x="853" y="293" on="0"/>
        <pt x="908" y="347" on="1"/>
        <pt x="916" y="347" on="0"/>
        <pt x="933" y="343" on="1"/>
        <pt x="957" y="315" on="0"/>
        <pt x="1038" y="171" on="1"/>
        <pt x="1065" y="123" on="0"/>
        <pt x="1161" y="123" on="1"/>
        <pt x="1267" y="123" on="0"/>
        <pt x="1327" y="156" on="1"/>
        <pt x="1355" y="170" on="0"/>
        <pt x="1392" y="215" on="1"/>
        <pt x="1444" y="279" on="0"/>
        <pt x="1451" y="287" on="1"/>
        <pt x="1483" y="271" on="0"/>
        <pt x="1483" y="243" on="1"/>
        <pt x="1483" y="232" on="0"/>
        <pt x="1468" y="179" on="0"/>
        <pt x="1468" y="164" on="1"/>
        <pt x="1468" y="134" on="0"/>
        <pt x="1487" y="131" on="1"/>
        <pt x="1476" y="133" on="0"/>
        <pt x="1523" y="133" on="1"/>
        <pt x="1587" y="133" on="0"/>
        <pt x="1618" y="197" on="1"/>
        <pt x="1659" y="284" on="0"/>
        <pt x="1731" y="327" on="1"/>
        <pt x="1728" y="236" on="0"/>
        <pt x="1745" y="202" on="1"/>
        <pt x="1758" y="178" on="0"/>
        <pt x="1836" y="155" on="1"/>
        <pt x="1908" y="133" on="0"/>
        <pt x="1959" y="133" on="1"/>
        <pt x="2065" y="133" on="0"/>
        <pt x="2119" y="180" on="1"/>
        <pt x="2116" y="193" on="0"/>
        <pt x="2116" y="209" on="1"/>
        <pt x="2116" y="311" on="0"/>
        <pt x="2203" y="443" on="1"/>
        <pt x="2295" y="583" on="0"/>
        <pt x="2384" y="583" on="1"/>
        <pt x="2511" y="583" on="0"/>
        <pt x="2511" y="374" on="1"/>
        <pt x="2511" y="312" on="0"/>
        <pt x="2507" y="298" on="1"/>
        <pt x="2496" y="258" on="0"/>
        <pt x="2440" y="198" on="1"/>
        <pt x="2465" y="143" on="0"/>
        <pt x="2614" y="143" on="1"/>
        <pt x="2726" y="143" on="0"/>
        <pt x="2788" y="182" on="1"/>
        <pt x="2788" y="219" on="1"/>
        <pt x="2788" y="231" on="0"/>
        <pt x="2696" y="428" on="0"/>
        <pt x="2696" y="440" on="1"/>
        <pt x="2696" y="498" on="0"/>
        <pt x="2751" y="552" on="1"/>
        <pt x="2774" y="552" on="0"/>
        <pt x="2814" y="486" on="0"/>
        <pt x="2846" y="427" on="1"/>
        <pt x="2901" y="296" on="0"/>
      </contour>
      <contour>
        <pt x="1713" y="-281" on="1"/>
        <pt x="1713" y="-326" on="0"/>
        <pt x="1669" y="-345" on="1"/>
        <pt x="1319" y="-491" on="0"/>
        <pt x="1277" y="-491" on="1"/>
        <pt x="1235" y="-491" on="1"/>
        <pt x="1222" y="-477" on="0"/>
        <pt x="1222" y="-461" on="1"/>
        <pt x="1222" y="-407" on="0"/>
        <pt x="1351" y="-357" on="1"/>
        <pt x="1421" y="-336" on="0"/>
        <pt x="1491" y="-315" on="1"/>
        <pt x="1599" y="-271" on="0"/>
        <pt x="1689" y="-245" on="1"/>
        <pt x="1713" y="-270" on="0"/>
      </contour>
      <contour>
        <pt x="1447" y="-568" on="1"/>
        <pt x="1447" y="-576" on="0"/>
        <pt x="1428" y="-605" on="1"/>
        <pt x="1407" y="-637" on="0"/>
        <pt x="1392" y="-642" on="1"/>
        <pt x="1016" y="-767" on="0"/>
        <pt x="1020" y="-767" on="1"/>
        <pt x="957" y="-767" on="1"/>
        <pt x="945" y="-765" on="0"/>
        <pt x="945" y="-742" on="1"/>
        <pt x="945" y="-694" on="0"/>
        <pt x="1146" y="-624" on="1"/>
        <pt x="1290" y="-579" on="0"/>
        <pt x="1434" y="-533" on="1"/>
        <pt x="1434" y="-536" on="0"/>
        <pt x="1447" y="-553" on="0"/>
      </contour>
      <contour>
        <pt x="2409" y="338" on="1"/>
        <pt x="2409" y="367" on="0"/>
        <pt x="2391" y="396" on="1"/>
        <pt x="2370" y="430" on="0"/>
        <pt x="2343" y="430" on="1"/>
        <pt x="2317" y="430" on="0"/>
        <pt x="2225" y="326" on="0"/>
        <pt x="2225" y="297" on="1"/>
        <pt x="2225" y="277" on="0"/>
        <pt x="2259" y="235" on="0"/>
        <pt x="2276" y="235" on="1"/>
        <pt x="2294" y="235" on="0"/>
        <pt x="2345" y="264" on="1"/>
        <pt x="2409" y="299" on="0"/>
      </contour>
    </TTGlyph>
</ttFont>
